/* XPM */
static char *a888acc904e54168c33dfe62aae8de70J9Tk5DYK0Y3miGyO[] = {
/* columns rows colors chars-per-pixel */
"70 70 216 2 ",
"   c None",
".  c #31302E",
"X  c #353432",
"o  c #363533",
"O  c #373634",
"+  c #373635",
"@  c #383735",
"#  c #383736",
"$  c #3B3A37",
"%  c #3A3938",
"&  c #3C3B39",
"*  c #3C3B3A",
"=  c #3D3C3B",
"-  c #3E3D3C",
";  c #3E3E3C",
":  c #3F3E3D",
">  c #3F3F3D",
",  c #3F3F3E",
"<  c #663931",
"1  c #41403D",
"2  c #40403F",
"3  c #41403F",
"4  c #41413F",
"5  c #43423F",
"6  c #734234",
"7  c #7C4936",
"8  c #414140",
"9  c #424241",
"0  c #434342",
"q  c #444442",
"w  c #444443",
"e  c #454443",
"r  c #454544",
"t  c #464544",
"y  c #464645",
"u  c #474645",
"i  c #474746",
"p  c #484847",
"a  c #494948",
"s  c #4A4A49",
"d  c #4B4B4A",
"f  c #4B4B4B",
"g  c #4C4C4B",
"h  c #4C4C4C",
"j  c #4D4D4C",
"k  c gray30",
"l  c #4E4E4D",
"z  c #4F4F4E",
"x  c #4F504F",
"c  c #50504F",
"v  c #515150",
"b  c #515151",
"n  c #525251",
"m  c #525352",
"M  c #535352",
"N  c #535353",
"B  c #545251",
"V  c #555555",
"C  c #565554",
"Z  c #555655",
"A  c #565654",
"S  c #565656",
"D  c gray34",
"F  c #595756",
"G  c #595856",
"H  c #585958",
"J  c #5A5958",
"K  c #595A5A",
"L  c #5A5A5A",
"P  c #5A5B5A",
"I  c #5B5B5B",
"U  c #5B5C5C",
"Y  c #5C5D5D",
"T  c #5D5D5D",
"R  c #5E5E5D",
"E  c gray37",
"W  c #5E5F5F",
"Q  c #60605F",
"!  c #5F6060",
"~  c #606060",
"^  c #606161",
"/  c #626160",
"(  c #626260",
")  c #616262",
"_  c #626363",
"`  c gray39",
"'  c #646362",
"]  c #636463",
"[  c #636464",
"{  c #646464",
"}  c #646565",
"|  c #666664",
" . c #656666",
".. c #666767",
"X. c #676868",
"o. c #686969",
"O. c #696A6A",
"+. c #6B6B6A",
"@. c #706F6F",
"#. c #727372",
"$. c #737372",
"%. c gray45",
"&. c gray47",
"*. c #7D7E7D",
"=. c #834D38",
"-. c #854F38",
";. c #84503A",
":. c #8A5239",
">. c #8D553B",
",. c #8F563B",
"<. c #89543C",
"1. c #FF4F3C",
"2. c #FF653A",
"3. c #915C41",
"4. c #956144",
"5. c #9A6242",
"6. c #9F6644",
"7. c #9E6847",
"8. c #A5714D",
"9. c #AF764E",
"0. c #8C7675",
"q. c #FF674E",
"w. c #FF7643",
"e. c #FF7744",
"r. c #FF7846",
"t. c #FF7C60",
"y. c #F78634",
"u. c #C88F5C",
"i. c #FF834B",
"p. c #FF8B4E",
"a. c #FF9844",
"s. c #FF8D51",
"d. c #FF8F55",
"f. c #FF9757",
"g. c #F79852",
"h. c #FF9E5D",
"j. c #FFA045",
"k. c #FFB149",
"l. c #FFB54A",
"z. c #D09761",
"x. c #FF9774",
"c. c #D9A066",
"v. c #FFA660",
"b. c #FFA662",
"n. c #FFA863",
"m. c #FFB56A",
"M. c #FFB56C",
"N. c #FFBC70",
"B. c #FFBF71",
"V. c #F7CB52",
"C. c #FFEB44",
"Z. c #FFFF44",
"A. c #FFFF4D",
"S. c #FFFF53",
"D. c #FFFF57",
"F. c #FFC274",
"G. c #FFC877",
"H. c #FFD07A",
"J. c #FFD17C",
"K. c #FFD27D",
"L. c #FFFF60",
"P. c #FFFF65",
"I. c #FFFF66",
"U. c #FFFF6A",
"Y. c #FFFF70",
"T. c #FFFF7A",
"R. c #A6209F",
"E. c #A721A0",
"W. c #A822A1",
"Q. c #AA24A3",
"!. c #AB25A4",
"~. c #AC26A5",
"^. c #AD27A6",
"/. c #AE28A7",
"(. c #AF29A8",
"). c #B02AA9",
"_. c #B12BAA",
"`. c #B22CAB",
"'. c #B32DAC",
"]. c #B42EAD",
"[. c #B731B0",
"{. c #B832B1",
"}. c #B933B2",
"|. c #BA34B3",
" X c #BB35B4",
".X c #BC36B5",
"XX c #BD37B6",
"oX c #BE38B7",
"OX c #BF39B8",
"+X c #C03AB9",
"@X c #C33DBC",
"#X c #C43EBD",
"$X c #C741C0",
"%X c #C842C1",
"&X c #CB45C4",
"*X c #CE48C6",
"=X c #CE48C7",
"-X c #CF49C8",
";X c #D04AC9",
":X c #D34DCC",
">X c #D852D1",
",X c #D953D2",
"<X c #DA54D3",
"1X c #DB55D4",
"2X c #DE58D7",
"3X c #E862E1",
"4X c #F06AE9",
"5X c #FA74F3",
"6X c #858787",
"7X c #FFD780",
"8X c #FFE186",
"9X c #FFE488",
"0X c #FFF592",
"qX c #FF90F9",
"wX c #FF99F9",
"eX c #FFB9FB",
/* pixels */
"                                                                                                                                            ",
"                                                                                                                                            ",
"                                                                                                                                            ",
"                                                                                                                                            ",
"                                                                                                                                            ",
"                                                                                                                                            ",
"                                                                                                                                            ",
"                                                                                                                                            ",
"                                                                                                                                            ",
"                                                                                                                                            ",
"                                                                                                                                            ",
"                                                                                                                                            ",
"                                                                >X>X                                                                        ",
"                                                                                                                                            ",
"                                                                                                                                            ",
"                                                                                                                                            ",
"                                                        . . . . . . 5 5 5 5 5 5 5 .       #X                                                ",
"                                            $ . $ $ 5 5 . . . qX3X3XF J G G C 5 5 5 . . . . . 5 5                                           ",
"                                            $ . $ $ 5 0 . . . qX3X3XF J K G C 5 5 5 . . . . . 5 5                                           ",
"                                      5 >X>X$ . C C T ( ( ' 5XoX#X#X.XR R @.+.....( l i i i . 5 5 5 5                                       ",
"                                . . = 5 5 5 s M K K %..XOX|.[.|.{.{._.R.R.W.wX4X4X2XW.K K K B ....5 5 B B 5                                 ",
"                          . . & . . 5 $.eXeXQ.R.^.^.|.}.@X@X}.}.}.}.}.}.}.5X>X1X,X1X,XW.W.R.^.*.*.&.$.5 5 5 = = .                           ",
"                          . . & . . 5 $.eXeXQ.R.(.^.|.}.@X@X[.}.}.}.}.}.}.5X>X1X1X1X1XW.W.R.^.*.*.&.$.5 5 5 = = .                           ",
"                        . , , . Q Q 0.3X-X-X>X].(.'.qX>X|.|.OXOX+X+X+X%X%X*X:X;X;X*XqX>X>X_.'.[.[.}.6X$.$.C . . = .                         ",
"                      . X $ + . $ $ .X'.}.}.$X_.5X5X>X>X,X>X[.|.{.}.qX>X>X+X@X@X#X5X&X$X$X>X_.@X@XR.R.E.R.. . . @ + . .                     ",
"                      . X + + + . . . R.R.R.R.R.@X@X%X@XOXOX}.(.5X5X>X&X&X X(.'.'.[.^..X}.^.R.R.R.R.R.. . . @ @ + X . .                     ",
"                      . X + + @ . . . R.R.R.R.R.@X@X%X#XOXOX[.(.5X5X>X&X&X.X(.'.'.[.(.}..X^.R.R.R.R.E.. . . @ @ + X . .                     ",
"                        . @ @ & % % & . . . . . R.R._.(.R.R.E.E.{.{..X}.}._.!.R.R.R.R.R.R.R.. . . . . & & % & & + .                         ",
"                          . . . 0 0 p 3 3 , 0 w . . . . . . . . R.R.R.R.R.R.. . . . . . . . w 0 0 , 0 i p 0 . . .                           ",
"                          . . , i i l X.X.X...s w 0 5 = 5 2 0 i . . . . . . w w 0 3 , , , w p X...X...l l i , , .                           ",
"                          . . , i i l ..X.X.X.i w w = 3 2 8 w i . . . . . . p w w 5 > > , w p X.X...X.l l i , , .                           ",
"                          . . , i i l i i w X.X.X.X.o.g h l l s w i 0 5 w p g g l l g ..o...X.X.X.w i l l i , , .                           ",
"                        2.. . , f f x M x x M f a a i l X.X.X.X.X.X.X.X.X.X.X.X.X.X.x i i s h M x x M x M s , - .                           ",
"                        2.. . , f f x M c l M f a s i l X.X.X.X.X.X.X.X.X.X.X.X.X.X.l i i a h x M l M x l g , , .                           ",
"                          1.1.q.s s Z ~ ( W ( T H H M M l h l x z z z z z l z l l h M M M H T ( ` ( W Z Z t., = .                           ",
"                2.        . . , a a V Y ..` ....X.[ ....! W U U R ( ` ` ` ~ T K U ! [ X.[ X...X.X.` T Z Z p = , .                           ",
"                              . w w B Y H.K.....X.X.X.X.X.O.X.O.o.o.o.o.o.o.o.o.X.O.X.O.X.X.X.7X7XK.U M c w . .                             ",
"                              . w w c Y K.K.[ X.X.X.o.X.O.X.O.X.o.o.o.o.o.o.o.o.O.X.O.X.X.X.X.7X7XJ.U M M w . .                             ",
"                      y.g.    . 3 - g V T T K.7XX.X.X.o.O.O.O.O.O.O.O.O.O.O.o.O.O.O.X.X.X.X.[ ` ` U Z s s , . .   g.y.y.                    ",
"                        y.      . . w k M.M.9X0X..[ X.X.O.X.X.X.O.O.O.O.O.O.O.o.X.X.X.X.X.[ K.F.F.M.l 0 0 .       y.                        ",
"                        g.g.g.y.. . % d.B.B.K.7XG.G.` [ X.X.X.X.o.X.X.X.X.X.X.X.....[ ` [ G.8XK.K.B.d.% % . y.y.g.g.    2.                  ",
"                        g.g.g.y.. . % d.B.B.7X9XG.G.[ [ X.X.X.X.X.X.X.X.X.X.X.X.....[ [ ` G.8XK.K.B.d.% % . y.y.g.g.    2.                  ",
"                          V.V.V.y.y.. w.n.b.Y.T.N.N.U W ! ! [ [ ` ....[ [ ..[ ` [ ( ! U U N.H.N.B.v.r.. . y.V.V.V.                          ",
"                          V.V.V.y.y.< 2.s.s.L.U.b.v.N D x.x.W W W W W W W W T U U K D M M v.m.v.v.s.2.< < y.V.V.V.                          ",
"                              < < < < 6 2.2.s.f.L.L.I.h.x l M M N N M M N N x M M x h.I.I.L.D.w.w.2.6 < < < < <                             ",
"                              < < < < 6 2.2.p.f.I.D.I.h.l l x M N N M M N N M M x l h.I.I.L.D.w.w.2.6 < < < < <                             ",
"                        < < < ,.,.,.,.<.j.j.w.w.C.C.S.i.0 5 0 w I.I.w i i i 0 0 w 0 i.S.S.C.C.2.2.j.<.,.,.,.,.,.< <                         ",
"                        < 4.4.c.c.c.c.,.l.l.l.k.2.2.C.2.2.2.+ A.+ + X @ + X A.+ + 2.2.C.C.2.k.l.l.l.,.z.c.c.c.c.4.<                         ",
"                        < 8.8.c.z.z.u.c.,.,.,.,.=.-.a.< . . . 2.Z.Z.. . . Z.2.. . . < a.a.-.,.,.,.,.c.u.u.z.c.c.8.<                         ",
"                        < 8.8.c.z.z.u.c.,.,.,.,.-.-.a.< . . . 2.Z.Z.. . . Z.2.. . . < a.a.=.,.,.,.,.c.u.u.z.c.c.8.<                         ",
"                          < < c.z.z.z.c.c.c.6.:.=.=.7 < < < ;.5.,.,.,.,.,.,.5.;.;.< < 7 7 =.>.7.7.c.c.z.z.z.c.c.<                           ",
"                          < < c.c.c.c.c.c.c.7.7 < < < < < < 3.9.c.c.c.c.c.c.9.3.3.< < < < < 7 7.7.c.c.c.c.c.c.c.<                           ",
"                          < < c.c.c.c.c.c.c.7.7 < < < < < < 3.9.c.c.c.c.c.c.9.3.3.< < < < < 7 7.7.c.c.c.c.c.c.c.<                           ",
"                              < < < c.c.,.,.< < < <     < < c.c.c.c.u.u.u.c.c.c.c.<       < < < < ,.c.c.c.< < <                             ",
"                                < < < < < < <           < < c.c.c.c.u.u.u.c.c.c.c.<           < < < < < < <                                 ",
"                                                            < c.c.c.c.c.c.c.c.< <                                                           ",
"                                                            < c.c.c.c.c.c.c.c.< <                                                           ",
"                                                              < < < < < < < <                                                               ",
"                                                                                                                                            ",
"                                                                                                                                            ",
"                                                                                                                                            ",
"                                                                                                                                            ",
"                                                                                                                                            ",
"                                                                                                                                            ",
"                                                                                                                                            ",
"                                                                                                                                            ",
"                                                                                                                                            ",
"                                                                                                                                            ",
"                                                                                                                                            ",
"                                                                                                                                            "
};
