/* XPM */
static char *_e57f8cea91d4569d96c59a077c0f8b5xAaD9tDjK5QadflB[] = {
/* columns rows colors chars-per-pixel */
"70 70 222 2 ",
"   c None",
".  c #31302E",
"X  c #353432",
"o  c #363533",
"O  c #373634",
"+  c #373635",
"@  c #383735",
"#  c #383736",
"$  c #3B3A37",
"%  c #3A3938",
"&  c #3C3B39",
"*  c #3C3B3A",
"=  c #3D3C3B",
"-  c #3E3D3C",
";  c #3E3E3C",
":  c #3F3E3D",
">  c #3F3F3D",
",  c #3F3F3E",
"<  c #663931",
"1  c #34422F",
"2  c #344D2A",
"3  c #3E4539",
"4  c #49572E",
"5  c #41403D",
"6  c #40403F",
"7  c #41403F",
"8  c #41413F",
"9  c #43423F",
"0  c #405239",
"q  c #734234",
"w  c #7C4936",
"e  c #414140",
"r  c #424241",
"t  c #434342",
"y  c #444442",
"u  c #444443",
"i  c #454443",
"p  c #454444",
"a  c #454544",
"s  c #464544",
"d  c #464645",
"f  c #474645",
"g  c #474746",
"h  c #484847",
"j  c #494948",
"k  c #4B4B4A",
"l  c #4B4B4B",
"z  c #4C4C4B",
"x  c #4C4C4C",
"c  c #4D4D4C",
"v  c gray30",
"b  c #4E4E4D",
"n  c #4F4F4E",
"m  c #4F504F",
"M  c #50504F",
"N  c #515150",
"B  c #515151",
"V  c #525251",
"C  c #525352",
"Z  c #535352",
"A  c #535353",
"S  c #545251",
"D  c #555555",
"F  c #555655",
"G  c #565654",
"H  c #565656",
"J  c gray34",
"K  c #595856",
"L  c #585958",
"P  c #5A5958",
"I  c #595A5A",
"U  c #5A5A5A",
"Y  c #5A5B5A",
"T  c #5B5B5B",
"R  c #5B5C5C",
"E  c #5C5D5D",
"W  c #5D5D5D",
"Q  c #5E5E5D",
"!  c gray37",
"~  c #5E5F5F",
"^  c #60605F",
"/  c #5F6060",
"(  c #606060",
")  c #606161",
"_  c #626160",
"`  c #626260",
"'  c #616262",
"]  c #626363",
"[  c gray39",
"{  c #646362",
"}  c #636463",
"|  c #636464",
" . c #646464",
".. c #646565",
"X. c #666664",
"o. c #656666",
"O. c #666767",
"+. c #676868",
"@. c #686969",
"#. c #696A6A",
"$. c #6B6B6A",
"%. c #706F6F",
"&. c #727372",
"*. c #737372",
"=. c gray45",
"-. c gray47",
";. c #7D7E7D",
":. c #814C37",
">. c #834D38",
",. c #854F38",
"<. c #84503A",
"1. c #8A5239",
"2. c #8D553B",
"3. c #8F563B",
"4. c #89543C",
"5. c #FF653A",
"6. c #FF783E",
"7. c #915C41",
"8. c #956144",
"9. c #9A6242",
"0. c #9F6644",
"q. c #9E6847",
"w. c #A5714D",
"e. c #AF764E",
"r. c #8C7675",
"t. c #FF674F",
"y. c #FF7643",
"u. c #FF7744",
"i. c #FF7845",
"p. c #FF7846",
"a. c #FF765B",
"s. c #F78634",
"d. c #C88F5C",
"f. c #FF834B",
"g. c #FF9844",
"h. c #FF8F54",
"j. c #FF9757",
"k. c #F79852",
"l. c #FF9E5D",
"z. c #FFB149",
"x. c #FFB54A",
"c. c #D09761",
"v. c #D9A066",
"b. c #FFA261",
"n. c #FFA660",
"m. c #FFA662",
"M. c #FFB56A",
"N. c #FFB56C",
"B. c #FFA27F",
"V. c #FFBC70",
"C. c #F7CB52",
"Z. c #FFEB44",
"A. c #FFFF44",
"S. c #FFFF4D",
"D. c #FFFF53",
"F. c #FFFF57",
"G. c #FFC877",
"H. c #FFD07A",
"J. c #FFD17C",
"K. c #FFD27D",
"L. c #FFD57F",
"P. c #FFFF60",
"I. c #FFFF65",
"U. c #FFFF66",
"Y. c #FFFF6A",
"T. c #FFFF7A",
"R. c #A41E9D",
"E. c #A6209F",
"W. c #A721A0",
"Q. c #A822A1",
"!. c #AA24A3",
"~. c #AC26A5",
"^. c #AD27A6",
"/. c #AE28A7",
"(. c #AF29A8",
"). c #B02AA9",
"_. c #B12BAA",
"`. c #B32DAC",
"'. c #B32EAD",
"]. c #B42EAD",
"[. c #B731B0",
"{. c #B832B1",
"}. c #B933B2",
"|. c #BB35B4",
" X c #BC36B5",
".X c #BE38B7",
"XX c #BF39B8",
"oX c #C13BBA",
"OX c #C23CBB",
"+X c #C33DBC",
"@X c #C43EBD",
"#X c #C640BF",
"$X c #C741C0",
"%X c #C842C1",
"&X c #CC46C5",
"*X c #CE48C6",
"=X c #CE48C7",
"-X c #CF49C8",
";X c #D14BCA",
":X c #D34DCC",
">X c #D44ECD",
",X c #D54FCE",
"<X c #D852D1",
"1X c #D953D2",
"2X c #DB55D4",
"3X c #DC56D5",
"4X c #DE58D7",
"5X c #DF59D8",
"6X c #E25CDB",
"7X c #E35DDC",
"8X c #FA74F3",
"9X c #FB75F4",
"0X c #858787",
"qX c #FFD780",
"wX c #FFD981",
"eX c #FFE186",
"rX c #FFE488",
"tX c #FFFF86",
"yX c #FFF592",
"uX c #FFFD96",
"iX c #FF90F9",
"pX c #FFB8FB",
/* pixels */
"                                                                                                                                            ",
"                                                                                                                                            ",
"                                                                                                                                            ",
"                                                                                                                                            ",
"                                                                                                                                            ",
"                                                                                                                                            ",
"                                                                                                                                            ",
"                                                                                                                                            ",
"                                                                                                                                            ",
"                                                                                                                                            ",
"                                                                                                                                            ",
"                                                                                                                                            ",
"                                                                                                                                            ",
"                                              +X                                                    1X                                      ",
"                                              +X                                                    1X                                      ",
"                                                        . . . (.E.E.9 9 9 9 9 9 9 .                                                         ",
"                                            $ . & $ , 9 . . R.oX&X&X+XK P K <Xi 9 9 . . . . . 9 9                                           ",
"                                      3 3 3 $ . G G ! ^ { { !.`.(._.`.Q Q %.@.X.X.^ b h f h . 9 9 9 9                                       ",
"                                      3 3 3 $ . G G ! _ { { !.`._.(.`.^ Q %.@.X.X._ b p h f . 9 9 9 9                                       ",
"                                . . 1 2 ].].0 Z U U =. X X X/.E.E.E.E.E.E.E.!.pXpX4X3XU U U A { { 9 9 Z Z 9                                 ",
"                          . . * . . 4 3X7X7X.XE.^.^.|.{.+X+X{.{.|.[.{.|.|.{.9X2X3X2X6X4X3XQ.^.;.;.-.*.9 9 9 = = .                           ",
"                        . : * . ^ _ r.6XoXoX_.]._._.(.iX1X1X.X.X.XoX>X*X-X%X*X:X:X>X1X:X;X1X].[.[.|.0X*.*.G . . = .                         ",
"                        . * & . ^ ^ r.6XoXoX_.]._._.^.iX1X<X.XoX.XoX,X-X*X%X*X>X:X>X1X;X;X1X].{.[.{.0X*.*.G . . = .                         ",
"                      . + # # . $ $ {.E.E.E.+X_.(.(.8X<X<X<X1X{.*X*X,X*X*XoXOX#X#X#X%XOXoX(._.+X+XE.E.E.E.. . . # o . .                     ",
"                      . X # + # . . . E.W.W.W.W.!.!.+X%X+X+X+X{.XX X+X X X{.]._.(.^./.^.^.^.R.Q.W.W.W.. . . # # + o . .                     ",
"                        . # # & % % & . . . . . W.W.W._.(.(.W.R.W.W.Q.Q.Q.R.W.R.Q.R.R.Q.Q.R.. . . . . * * # & & # .                         ",
"                        . # # * % % & . . . . . W.W.W./.(.(.W.W.R.R.Q.Q.Q.W.W.R.R.Q.Q.R.R.Q.. . . . X * * # & & # .                         ",
"                5.        . . . p e h e , 3 t p . . . . . . . . W.W.W.W.R.W.. . . . . . . . s e , , , h h t . . .                           ",
"                          . . , p j b @.+.+.+.h e t , , , e t p . . . . . . p p i e , , , t h +.+.+.+.n x h , , .                           ",
"                          . . 3 g g b p s s +.+.+.+.+.x x b b l g p t t s p k m b x l +.@.+.+.+.+.t f n m a., , .                           ",
"                          . . : g g b p s s +.+.+.+.+.x b x n x p h t t s p k b n b x +.+.+.+.+.+.p t n v a.3 : .                           ",
"                          . . : l l m C m m M z h j h n +.+.+.+.+.+.+.+.+.+.+.+.+.+.n f f l x n C n A n m l t.t..                           ",
"                          . . = j x J ~ / _ ] ! U U C C b x x m M m b M b M b b b x C C C U ! ] ] _ ~ J J l : = .                           ",
"                          . . : x j J ) / / ] ! G J A C x x b m M z M b M b M b b b C C C J ~ ] ] / ~ J G l : : .                           ",
"                          . . : h j A ~ X.] qXO.O.X.X.O.) ) R R ^ ^ } } _ _ ! U R ~ X.O.X.O.O.qXqX] ! D A j : : .       5.                  ",
"                        s.k.k.. t t C E ] ] O.qX+.O.@.@.+.+.@.@.@.@.@.@.+.@.+.+.+.#.+.@.@.O.O.O.O.] R C C u . . k.s.                        ",
"                          s.s.. , , l H E E J.uX+.+.+.#.#.#.#.#.#.#.#.#.#.#.#.#.#.#.@.@.+.O.qXJ.K.E G l j : . . s.                          ",
"                          s.s.. , , l H E E J.uX+.+.+.+.#.#.#.#.#.#.#.#.#.#.#.#.#.@.@.O.+.O.qXK.J.E G x l : . . s.                          ",
"                          k.k.k.5.5.i l N.N.rXyXqXqXO.+.@.@.#.#.#.#.#.#.#.#.#.+.@.@.+.O.O.qXyXrXrXN.b t u 5.k.k.k.                          ",
"                              C.Z.Z.u.s b.b.K.tXG.G.] o.O.O.O.O.+.+.+.+.+.+.+.+.O.O.X.[ ] G.eXK.K.b.t p.u.Z.C.C.                            ",
"                        5.    C.C.C.5.% h.h.V.T.V.V.R ) ] _ ] O.o.o.o.o.o.o.] ] o.B.~ E R V.J.V.V.h.% 5.5.C.C.C.                            ",
"                        5.    C.C.C.5.% h.h.V.T.V.V.R ~ / ] ] X.o.o.o.] o.X.o.] ] B.~ R E V.H.V.V.h.% 5.5.C.C.C.                            ",
"                      5.      C.C.C.6.. u.u.n.Y.m.m.C J R R R ~ ~ ~ E ~ ~ ~ ! E E U J C C n.M.n.n.i.. 6.6.C.C.C.                            ",
"                              < < < < q . . y.j.P.P.Y.l.m b n C C C C C C C C C m m l.I.I.P.F.u.y.. q < < < < <                             ",
"                        < < < 3.3.3.3.4.>.:.5.u.Z.Z.D.f.3 9 t t Y.I.p g s s t t u e f.D.D.Z.Z.5.5.:.4.3.3.3.3.3.< <                         ",
"                        < < < 3.3.3.3.4.:.:.5.u.Z.Z.D.f., 9 t s I.I.p p g t s t e e f.D.D.Z.Z.5.5.:.4.3.3.3.3.3.< <                         ",
"                        < 8.8.v.v.v.v.3.3.3.x.z.5.5.Z.5.5.5.+ o + o + o O o S.o + 5.5.Z.Z.5.z.x.x.3.3.v.v.v.v.v.8.<                         ",
"                        < w.w.v.c.c.d.v.3.2.2.2.,.,.g.< . . . 5.A.A.. . . A.5.. . . < g.g.,.2.2.3.3.v.d.d.c.v.v.w.<                         ",
"                          < < v.c.c.c.v.v.v.0.1.>.>.w < < < <.9.3.3.3.3.3.3.9.<.<.< < w w >.1.0.0.v.v.c.c.c.v.v.<                           ",
"                          < < v.c.c.c.v.v.v.0.1.>.>.w < < < <.9.3.3.3.3.3.3.9.<.<.< < w w >.1.0.0.v.v.c.c.c.v.v.<                           ",
"                          < < v.v.v.v.v.v.v.q.w < < < < < < 7.e.v.v.v.v.v.v.e.7.7.< < < < < w q.q.v.v.v.v.v.v.v.<                           ",
"                              < < < v.v.3.3.< < < <     < < v.v.v.v.d.d.d.v.v.v.v.<       < < < < 3.v.v.v.< < <                             ",
"                              < < < v.v.3.3.< < < <     < < v.v.v.v.d.d.d.v.v.v.v.<       < < < < 3.v.v.v.< < <                             ",
"                                < < < < < < <           < < v.v.v.v.d.d.d.v.v.v.v.<           < < < < < < <                                 ",
"                                                            < v.v.v.v.v.v.v.v.< <                                                           ",
"                                                              < < < < < < < <                                                               ",
"                                                              < < < < < < < <                                                               ",
"                                                                                                                                            ",
"                                                                                                                                            ",
"                                                                                                                                            ",
"                                                                                                                                            ",
"                                                                                                                                            ",
"                                                                                                                                            ",
"                                                                                                                                            ",
"                                                                                                                                            ",
"                                                                                                                                            ",
"                                                                                                                                            ",
"                                                                                                                                            ",
"                                                                                                                                            ",
"                                                                                                                                            "
};
