/* XPM */
static char *_e450d6e84d840c2a191580574f290209SKoP7jqjN35oKOl[] = {
/* columns rows colors chars-per-pixel */
"70 70 211 2 ",
"   c None",
".  c #31302E",
"X  c #353331",
"o  c #353432",
"O  c #363533",
"+  c #373633",
"@  c #373634",
"#  c #373635",
"$  c #383735",
"%  c #383736",
"&  c #393835",
"*  c #3A3938",
"=  c #3B3A38",
"-  c #3C3B39",
";  c #3C3B3A",
":  c #3D3C39",
">  c #3D3C3B",
",  c #3E3D3A",
"<  c #3F3E3B",
"1  c #3E3D3C",
"2  c #3E3E3C",
"3  c #3F3E3D",
"4  c #3F3F3D",
"5  c #3F3F3E",
"6  c #493533",
"7  c #413F3D",
"8  c #5C3937",
"9  c #663931",
"0  c #41403D",
"q  c #40403F",
"w  c #41403F",
"e  c #41413F",
"r  c #42413E",
"t  c #43413E",
"y  c #43423F",
"u  c #734234",
"i  c #7C4936",
"p  c #414140",
"a  c #424241",
"s  c #434342",
"d  c #444442",
"f  c #444443",
"g  c #454443",
"h  c #454544",
"j  c #464544",
"k  c #464645",
"l  c #474645",
"z  c #474746",
"x  c #484847",
"c  c #494947",
"v  c #494948",
"b  c #4A4A49",
"n  c #4B4B4A",
"m  c #4B4B4B",
"M  c #4C4B4A",
"N  c #4C4C4B",
"B  c #4C4C4C",
"V  c #4D4D4C",
"C  c gray30",
"Z  c #4E4D4C",
"A  c #4E4E4D",
"S  c #4F4F4E",
"D  c #4F504F",
"F  c #51504E",
"G  c #50504F",
"H  c #52504F",
"J  c #515150",
"K  c #515151",
"L  c #535250",
"P  c #525251",
"I  c #525352",
"U  c #535352",
"Y  c #535353",
"T  c #545251",
"R  c #565453",
"E  c #555555",
"W  c #555655",
"Q  c #565656",
"!  c #585958",
"~  c #5B5A59",
"^  c #595A5A",
"/  c #5A5A5A",
"(  c #5A5B5A",
")  c #5B5B5A",
"_  c #5B5B5B",
"`  c #5B5C5B",
"'  c #5C5C5B",
"]  c #5B5C5C",
"[  c #5C5D5C",
"{  c #5D5D5C",
"}  c #5C5D5D",
"|  c #5D5D5D",
" . c #5E5E5D",
".. c gray37",
"X. c #5F5E5E",
"o. c #5E5F5F",
"O. c #5F605F",
"+. c #5F6060",
"@. c #606060",
"#. c #606161",
"$. c #616262",
"%. c #626363",
"&. c #636463",
"*. c #636464",
"=. c #646464",
"-. c #656564",
";. c #646565",
":. c #656565",
">. c #656666",
",. c #666766",
"<. c #666767",
"1. c #676868",
"2. c #686969",
"3. c #696A6A",
"4. c #6A6B6B",
"5. c #6D6D6D",
"6. c #834D38",
"7. c #854F38",
"8. c #84503A",
"9. c #8A5239",
"0. c #8D553B",
"q. c #8F563B",
"w. c #89543C",
"e. c #FF653A",
"r. c #915C41",
"t. c #956144",
"y. c #9A6242",
"u. c #9F6644",
"i. c #9E6847",
"p. c #A5714D",
"a. c #AF764E",
"s. c #FF7744",
"d. c #FF7845",
"f. c #FF7846",
"g. c #F78634",
"h. c #C88F5C",
"j. c #FF834B",
"k. c #FF8B4E",
"l. c #FF9844",
"z. c #FF8F55",
"x. c #F79852",
"c. c #FF9E5D",
"v. c #FFA045",
"b. c #FFB149",
"n. c #FFB54A",
"m. c #D09761",
"M. c #D9A066",
"N. c #FFA662",
"B. c #FFA863",
"V. c #FFAF67",
"C. c #FFB56A",
"Z. c #FFB56C",
"A. c #FFB76D",
"S. c #FFBC70",
"D. c #FFBF71",
"F. c #F7CB52",
"G. c #FFEB44",
"H. c #FFFF44",
"J. c #FFFF53",
"K. c #FFFF57",
"L. c #FFC877",
"P. c #FFD07A",
"I. c #FFD17C",
"U. c #FFD27D",
"Y. c #FFFF60",
"T. c #FFFF66",
"R. c #FFFF70",
"E. c #A6209F",
"W. c #A721A0",
"Q. c #A822A1",
"!. c #AA24A3",
"~. c #AB25A4",
"^. c #AC26A5",
"/. c #AD27A6",
"(. c #AF29A8",
"). c #B02AA9",
"_. c #B12BAA",
"`. c #B22CAB",
"'. c #B32DAC",
"]. c #B32EAD",
"[. c #B42EAD",
"{. c #B630AF",
"}. c #B832B1",
"|. c #B933B2",
" X c #BA34B3",
".X c #BC36B5",
"XX c #BE38B7",
"oX c #BF39B8",
"OX c #C03AB9",
"+X c #C13BBA",
"@X c #C33DBC",
"#X c #C43EBD",
"$X c #C53FBE",
"%X c #C741C0",
"&X c #C842C1",
"*X c #CE48C6",
"=X c #CE48C7",
"-X c #D24CCB",
";X c #D34DCC",
":X c #D852D1",
">X c #DA54D3",
",X c #DB55D4",
"<X c #DC56D5",
"1X c #DD57D6",
"2X c #DE58D7",
"3X c #FA74F3",
"4X c #FB75F4",
"5X c #FFE186",
"6X c #FFE488",
"7X c #FF90F9",
"8X c #FF9CF9",
/* pixels */
"                                                                                                                                            ",
"                                                                                                                                            ",
"                                                                                                                                            ",
"                                                                                                                                            ",
"                                                                                                                                            ",
"                                                                                                                                            ",
"                                                                                                                                            ",
"                                                                                                                                            ",
"                                                                                                                                            ",
"                                                                                                                                            ",
"                                                                                                                                            ",
"                                                                                                                                            ",
"                                                                                                                                            ",
"                                                        f t . . + + - > > y 0 y y >                                                         ",
"                                                        a t . . + + - 7 7 y y y y >                                                         ",
"                                            . . . . > t t t . 7 z f V F H H H 7 7 & . . . . . y y                                           ",
"                                      y y y . . z z | ( ( ~ b C 7X7X2X| | | | ( ~ R C x z z . y y y y                                       ",
"                                y y H 7 . . b U ( ( 5.(.^.^.^.3X@XOX:X:X:XW.~.8X8X2X,X~ ( ( P ` { 7 y V V &                                 ",
"                                y y T y . . b U ( ( 5.(.^.(.^.3XOXOX:X:X:XQ.Q.8X8X2X,X' ( ( P ` { 7 7 V V &                                 ",
"                          . . > & & > -.:.:.` E.^.(.!.Q.[.[.|.OX@X@X@X|.|.|.4X<X<X<X:X,X>XE.(.<.:.:.-.+ & O > > .                           ",
"                        . > > . n n O.4.Q.Q.7X[._._.(.7X:X:XXXoXoXoXoXoXoX&X=X;X;X=X=XOX@X|.'.W.E.E.4.{ { x . . > .                         ",
"                      . O % % . . . E.~..X.X-X:X(.(.3X:X:X:X:X|.|.|.|.|.|.|.oX@X@XOXOX7X7X:X_.@X#XE.E.E.E.. . . % O . .                     ",
"                      . O % % . . . E.~..X.X-X:X(.(.3X:X:X:X:X|.|.|.|.|. X|.oX@X@XOXOX7X7X:X_.@X@XE.E.E.E.. . . % O . .                     ",
"                      . O @ @ % . . . ~.'.'.|._.^.^.@X&X#X#XoX}.(.(.(.7X7X:X(.(.(.`.4X$X$X@X:XE.E.E.E.. . . & $ @ O . .                     ",
"                        . % % - * * > . . . . . W.E.E.(.(.(.E.E.E.E.4X:X:X$X}.E.W.~.(.W.W.[.. . . . . - * * 2 * % .                         ",
"                          . . . s s z y q q s f . . . . . . . . E.E.'. X X}.8 6 6 . . . . . s s s w w x b s . . .                           ",
"                          . . . s s z y 5 q y z . . . . . . . . E.E.'. X|.{.8 6 6 . . . . . z s s 2 w x x s . . .                           ",
"                          . . q z z C <.1.1.<.x f s 5 2 y s f f . . . . . . z s s y > y 5 s x <.1.<.2.C C z 2 q .                           ",
"                          . . 2 z z C z z s <.1.1.1.<.C C C D n l z s f s z b C C C V <.2.:.2.:.1.z g C C x 2 q .                           ",
"                          . . 7 m m D P P C P C b b x C 1.<.1.<.1.1.<.1.1.1.1.1.2.<.D z z b B P P D P D D m 7 2 .                           ",
"                          . . 2 m B D P H P P n x b z D 1.<.2.<.1.1.<.1.<.<.1.1.2.2.C x z b B P P D P D D m 7 2 .                           ",
"                          . . 2 b n Q +.+.+.$.| ! ! P U C V C H C F D D D D H C C C U P P ! | %.$.$.+.Q Q b 2 2 .                           ",
"                          . . 2 b b Q | :.*.1.*.1.*.1.*.+.+.} } @.@.$.&.$.| | ( ( +.*.*.<.<.<.<.<.%.| Q Q b > 2 .                           ",
"                          . . 2 z z Q | %.*.<.<.*.1.*.1.+.+.! | @.@.&.-.*.$.} ( ( +.<.<.<.*.<.<.<.%.+.R Y b 2 > X                           ",
"                              . g g P } I.I.:.<.1.1.1.3.1.1.1.1.2.2.2.2.2.2.1.2.2.2.2.2.<.<.<.<.<.I.] K P g . .                             ",
"                      g.x.    . 2 2 b Q | | I.*.1.1.1.1.4.4.4.2.2.2.4.2.4.2.4.2.4.4.2.<.<.2.<.I.I.' Q b b 2 . X   x.g.g.                    ",
"                        g.      . . g C Z.Z.6XI.*.>.1.1.1.1.2.4.4.1.1.4.2.4.2.2.2.2.<.<.<.;.I.6X6XZ.C s s .       g.                        ",
"                        g.      . . a C Z.A.6XI.>.*.1.1.1.1.2.4.4.4.4.4.4.2.4.2.2.2.2.<.<.;.I.6X6XZ.C s s .       g.                        ",
"                        x.x.x.g.. . * z.D.D.I.5XL.L.*.*.1.1.1.1.1.1.1.1.1.1.1.<.<.<.:.%.%.L.5XI.I.D.z.* * . g.g.x.x.                        ",
"                          F.F.F.g.g.X f.B.B.R.P.S.D.} +.$.$.*.:.*.*.:.*.:.*.:.*.%.%.+.] ] S.P.R.R.B.f.. . g.F.F.F.                          ",
"                          g.g.F.F.F.9 e.d.d.Y.C.N.N.V.A.( ( } | +.+.} +.| +.| | } ( A.V.V.B.Z.Y.Y.d.e.9 9 F.F.F.g.                          ",
"                          g.g.F.F.F.9 e.d.d.Y.C.N.N.V.A.( ( | | +.+.} +.+.+.| | } } A.V.V.B.Z.Y.Y.d.e.9 9 F.F.F.g.                          ",
"                              9 9 9 9 u e.e.k.K.K.T.T.c.C C P U Y Y Y Y P P P P P D c.T.T.K.K.k.k.e.u 9 9 9 9 9                             ",
"                        9 9 9 q.0.0.0.w.v.v.s.G.G.G.J.j.s y s s f f z f z f f s s 5 j.J.J.G.G.d.s.v.w.q.q.q.q.0.9 9                         ",
"                        9 t.t.M.M.M.M.q.n.n.n.b.e.e.G.e.e.e.@ @ @ @ @ @ @ @ + % @ e.e.G.G.e.b.n.n.n.0.M.M.M.M.M.t.9                         ",
"                        9 t.t.M.M.M.M.q.n.n.n.b.e.e.G.e.e.e.@ @ @ @ @ @ @ @ O % @ e.e.G.G.e.b.n.n.n.q.M.M.M.M.M.t.9                         ",
"                        9 p.p.M.m.m.h.M.q.q.0.0.8.7.l.9 . . . e.H.H.X . . . e.. . . 9 l.l.7.0.0.q.q.M.h.h.m.M.M.p.9                         ",
"                          9 9 M.m.m.m.M.M.M.u.9.6.6.i 9 9 9 8.y.0.0.0.0.0.q.y.8.8.9 9 i i 6.9.u.u.M.M.m.m.m.M.M.9                           ",
"                          9 9 M.M.M.M.M.M.M.i.i 9 9 9 9 9 9 r.a.M.M.M.M.M.M.a.r.r.9 9 9 9 9 i i.i.M.M.M.M.M.M.M.9                           ",
"                          9 9 M.M.M.M.M.M.M.i.i 9 9 9 9 9 9 r.a.M.M.M.M.M.M.a.r.r.9 9 9 9 9 i i.i.M.M.M.M.M.M.M.9                           ",
"                              9 9 9 M.M.q.q.9 9 9 9     9 9 M.M.M.M.h.h.h.M.M.M.M.9       9 9 9 9 q.M.M.M.9 9 9                             ",
"                                9 9 9 9 9 9 9           9 9 M.M.M.M.h.h.h.M.M.M.M.9           9 9 9 9 9 9 9                                 ",
"                                9 9 9 9 9 9 9           9 9 M.M.M.M.h.h.h.M.M.M.M.9           9 9 9 9 9 9 9                                 ",
"                                                            9 M.M.M.M.M.M.M.M.9 9                                                           ",
"                                                              9 9 9 9 9 9 9 9                                                               ",
"                                                                                                                                            ",
"                                                                                                                                            ",
"                                                                                                                                            ",
"                                                                                                                                            ",
"                                                                                                                                            ",
"                                                                                                                                            ",
"                                                                                                                                            ",
"                                                                                                                                            ",
"                                                                                                                                            ",
"                                                                                                                                            ",
"                                                                                                                                            ",
"                                                                                                                                            ",
"                                                                                                                                            ",
"                                                                                                                                            ",
"                                                                                                                                            "
};
