/* XPM */
static char *result[] = {
/* columns rows colors chars-per-pixel */
"68 100 236 2 ",
"   c #2D1F11",
".  c #2F2012",
"X  c #2F231D",
"o  c #332314",
"O  c #392716",
"+  c #3B2817",
"@  c #34261A",
"#  c #3D2A19",
"$  c #38291C",
"%  c #261F2A",
"&  c #251F30",
"*  c #2B232C",
"=  c #292228",
"-  c #3C2E22",
";  c #342B2C",
":  c #342828",
">  c #3C322D",
",  c #3E3025",
"<  c #262134",
"1  c #2C2637",
"2  c #342C31",
"3  c #3A2E33",
"4  c #352E3B",
"5  c #3D3233",
"6  c #3C343B",
"7  c #3E3934",
"8  c #432E1B",
"9  c #46301D",
"0  c #4B331E",
"q  c #51361F",
"w  c #443323",
"e  c #4C3521",
"r  c #4E3926",
"t  c #4C3B2C",
"y  c #45392D",
"u  c #513721",
"i  c #543A23",
"p  c #5A3D25",
"a  c #543E2A",
"s  c #5A3F28",
"d  c #433534",
"f  c #453A33",
"g  c #4A3C33",
"h  c #44393B",
"j  c #4A3729",
"k  c #4D422E",
"l  c #5E4026",
"z  c #54422E",
"x  c #5C422B",
"c  c #584B2E",
"v  c #4D4233",
"b  c #4C443A",
"n  c #534433",
"m  c #5C4532",
"M  c #554A33",
"N  c #5C4B34",
"B  c #5C4A3A",
"V  c #55483B",
"C  c #5B5337",
"Z  c #5F532F",
"A  c #614127",
"S  c #64452A",
"D  c #68472A",
"F  c #6C4A2D",
"G  c #66482D",
"H  c #724D2F",
"J  c #644A33",
"K  c #6C4D33",
"L  c #634D39",
"P  c #644A34",
"I  c #724F31",
"U  c #635232",
"Y  c #6C5336",
"T  c #6C5A34",
"R  c #65523E",
"E  c #6C523B",
"W  c #645A37",
"Q  c #755133",
"!  c #7B5534",
"~  c #735D36",
"^  c #74553B",
"/  c #795739",
"(  c #7D5A3C",
")  c #7B593B",
"_  c #6C623B",
"`  c #696237",
"'  c #74633A",
"]  c #7B6B3A",
"[  c #786638",
"{  c #7D733C",
"}  c #292848",
"|  c #322D43",
" . c #322F4D",
".. c #373448",
"X. c #2C2C55",
"o. c #2D2E5A",
"O. c #353457",
"+. c #302E51",
"@. c #373864",
"#. c #443D47",
"$. c #403E53",
"%. c #49434A",
"&. c #584C45",
"*. c #5C5249",
"=. c #5A5559",
"-. c #4F4B54",
";. c #635344",
":. c #6B5644",
">. c #63564A",
",. c #6C5B4C",
"<. c #695949",
"1. c #735A43",
"2. c #7B5D43",
"3. c #745C48",
"4. c #655B56",
"5. c #604F41",
"6. c #7E6146",
"7. c #7C624B",
"8. c #776747",
"9. c #6D6357",
"0. c #7A6654",
"q. c #786857",
"w. c #736D4C",
"e. c #5A5867",
"r. c #4E4E6C",
"t. c #696469",
"y. c #736E6C",
"u. c #615D62",
"i. c #855A36",
"p. c #835C3B",
"a. c #8A5E39",
"s. c #805734",
"d. c #8C623E",
"f. c #836D3A",
"g. c #93643D",
"h. c #99683F",
"j. c #83723B",
"k. c #89793E",
"l. c #815E41",
"z. c #836245",
"x. c #8B6543",
"c. c #83654B",
"v. c #8C6A4C",
"b. c #88674B",
"n. c #946A45",
"m. c #9B6C45",
"M. c #936C4B",
"N. c #996E49",
"B. c #926642",
"V. c #877943",
"C. c #9B714D",
"Z. c #97704F",
"A. c #846A53",
"S. c #8C6D52",
"D. c #846E5A",
"F. c #806753",
"G. c #8D725B",
"H. c #8A7159",
"J. c #937154",
"K. c #9B7453",
"L. c #94755A",
"P. c #9C7A5C",
"I. c #9A785A",
"U. c #926F51",
"Y. c #A3744C",
"T. c #A67348",
"R. c #A47954",
"E. c #AB7C54",
"W. c #A37D5C",
"Q. c #A47954",
"!. c #A26E43",
"~. c #897665",
"^. c #957A63",
"/. c #9B7D63",
"(. c #937D6A",
"). c #937963",
"_. c #887C71",
"`. c #A17F61",
"'. c #718764",
"]. c #8C8444",
"[. c #948244",
"{. c #968948",
"}. c #9A9746",
"|. c #908057",
" X c #A3964C",
".X c #AC815B",
"XX c #A7815F",
"oX c #B1845D",
"OX c #A69650",
"+X c #A7A44C",
"@X c #B1AF51",
"#X c #9C826B",
"$X c #958367",
"%X c #998675",
"&X c #8D816B",
"*X c #A58263",
"=X c #AA8564",
"-X c #A1846B",
";X c #AB8A6C",
":X c #A98769",
">X c #B58A65",
",X c #B38D6B",
"<X c #B68B65",
"1X c #BB916C",
"2X c #AB8D72",
"3X c #A38A74",
"4X c #AD927A",
"5X c #B49173",
"6X c #BB9573",
"7X c #B4967B",
"8X c #BC997A",
"9X c #B28F70",
"0X c #C19A76",
"qX c #C29D7C",
"wX c #C6A07E",
"eX c #BEC258",
"rX c #6E6C80",
"tX c #A89583",
"yX c #B99C82",
"uX c #BCA189",
"iX c #BDA590",
"pX c #C4A283",
"aX c #CAA584",
"sX c #C3A589",
"dX c #CCAA8C",
"fX c #C8A88C",
"gX c #C7AC93",
"hX c #CCB29B",
"jX c #D2B294",
"kX c #D4B79C",
"lX c #D1AE90",
"zX c #D6BBA3",
"xX c #CCB8A6",
"cX c #DCC7B3",
"vX c #E2CEBA",
"bX c None",
/* pixels */
"bXbXbXbXbXbXbXbXbXbXbXbXbXbXbXbXbXbXbXbXbXbXbXbXbXbXbXbXbXbXbXbXbXbXbXbXbXbXbXbXbXbXbXbXbXbXbXbXbXbXbXbXbXbXbXbXbXbXbXbXbXbXbXbXbXbXbXbX",
"bXbXbXbXbXbXbXbXbXbXbXbXbXbXbXbXbXbXbXbXbXbXbXbXbXbXbXbXbXbXbXbXbXbX~.bXbXbXbXbXbXbXbXbXbXbXbXbXbXbXbXbXbXbXbXbXbXbXbXbXbXbXbXbXbXbXbXbX",
"bXbXbXbXbXbXbXbXbXbXbXbXbXbXbXbXbXbXbXbXbXbXbXbXbXbX(.3XD.G.bXbXbX3.<.%XbXbXbXbXbXbXbXbXbXbXbXbXbXbXbXbXbXbXbXbXbXbXbXbXbXbXbXbXbXbXbXbX",
"bXbXbXbXbXbXbXbXbXbXbXbXbXbXbXbXbXbXbXbXbXbXbX_.E x.~.&X^.l.G.bX).1.bX3X%XbX/.m./.bXbXbXbXbXbXbXbXbXbXbXbXbXbXbXbXbXbXbXbXbXbXbXbXbXbXbX",
"bXbXbXbXbXbXbXbXbXbXbXbXbXbXbXbXbXbXbXbXD.D.D.bXS.m.bX&X2Xv.P F.:.0.bXyX#X^.z.! J.bXbXbXbXbXbXbXbXbXbXbXbXbXbXbXbXbXbXbXbXbXbXbXbXbXbXbX",
"bXbXbXbXbXbXbXbXbXbXbXbXbXbXbXbXbXbXbXbXW.F.<.D.b.a.5XbXpXI.l.c.7.%XjXaX;XS.D.b.W.bXbXbXbXbXbXbXbXbXbXbXbXbXbXbXbXbXbXbXbXbXbXbXbXbXbXbX",
"bXbXbXbXbXbXbXbXbXbXbXbXbXbXbXbXE c.sXbX>X8X~.3.S p c.5XE.R.5X;XP.=XQ.J.5X:X$X8Xn.c.bXbX~.D.bXbXbXbXbXbXbXbXbXbXbXbXbXbXbXbXbXbXbXbXbXbX",
"bXbXbXbXbXbXbXbXbXbXbXbXbXbXbXm u ( W.M.B.<XlX1XS.2.F / R.x.v.2.s ( M.z.I.pXbX7X! G 1._.G.W.bXbXbXbXbXbXbXbXbXbXbXbXbXbXbXbXbXbXbXbXbXbX",
"bXbXbXbXbXbXbXbXbXbXbXbXbX4.n E E I F D A a.6X1X<X`.K p c.E.x.F F z.,X9XR.>X7Xc.s x 3.(.yX1XbXbXbXbXbXbXbXbXbXbXbXbXbXbXbXbXbXbXbXbXbXbX",
"bXbXbXbXbXbXbXbXbXbXbXbXbXbXR ;X<XR.K s A G L.8XR./ F p s b.C.g.g.Q z.M.x.Y./ F ^ v.8XgX<X`.bXbXbXbXbXbXbXbXbXbXbXbXbXbXbXbXbXbXbXbXbXbX",
"bXbXbXbXbXbXbXbXbXbXbXbXbXbXA.6X<XW.l.Q H p s J.p.s.a.A u E x.s.s.Q K x.E.c.i E =X<X1X6Xp.E bXbXbXbXbXbXbXbXbXbXbXbXbXbXbXbXbXbXbXbXbXbX",
"bXbXbXbXbXbXbXbXbXbXbXbXbX&XyXpXP.1.:XQ.! p e i p A A p L /.`.N.a.! a.Y.b.s p F i.Q.0XJ.p w m 0.bXbXbXbXbXbXbXbXbXbXbXbXbXbXbXbXbXbXbXbX",
"bXbXbXbXbXbXbXbXbXbXbXbX_.tXiX-Xm E 6X0Xx.F A i p F H p 0.L.W.0X<Xl.B.Z.E u D a.! z.J.x u e I -X1.*.bXbXbXbXbXbXbXbXbXbXbXbXbXbXbXbXbXbX",
"bXbXbXbXbXbXbXbXbXbXbXbXbXD.3.L 3.yXpX;XI K ( G A d.m.F i s / W.,XR.W.fX).P p A A s p 0 p A / 6X*X7.bXbXbXbXbXbXbXbXbXbXbXbXbXbXbXbXbXbX",
"bXbXbXbXbXbXbXbXbXbXbXbXbXbXbX<.%XgX;XE s 1.2Xv.I m.<Xc.A A s x x ^ =XjXbX9.i H F p p D ! n.l.Y.=XJ.bXbXbXbXbXbXbXbXbXbXbXbXbXbXbXbXbXbX",
"bXbXbXbXbXbXbXbXbXbXbXbXbXbXbXB m P j 9 K ;XbX=Xl.m.<XN.g.B.i.P r ,.fXjX).j F m.a.A i D N.0X<Xx.s.I <.D.bXbXbXbXbXbXbXbXbXbXbXbXbXbXbXbX",
"bXbXbXbXbXbXbXbXbXbXbXbXbXbX4.w x a 9 0 ! N.n.K I a.N.R.R.T.,XbX3.a ).bX0.z M.<Xg.A 0 8 P ;X,Xn.s.x.`.7X%XD.bXbXbXbXbXbXbXbXbXbXbXbXbXbX",
"bXbXbXbXbXbXbXbXbXbXbXbXbXbXbX5.`.=XM.F i u u S n.E.,XsXaX<XE.E.p.0 a B L S.8X1X! u 8 # 8 a P x G ! S.tX0.M.bXbXbXbXbXbXbXbXbXbXbXbXbXbX",
"bXbXbXbXbXbXbXbXbXbXbXbXbXbXbX3.9X<X=X^ S A p x.pXqXW.*XbXbXW.g.Q 8 o o L bXbXS.e 8 u l 8 8 p n.P.z.W.~.3XW.bXbXbXbXbXbXbXbXbXbXbXbXbXbX",
"bXbXbXbXbXbXbXbXbXbXbXbXbXbX_.5XwX=Xz.W.C.K S $XbXbXZ./ m m m a 0 # o o w n n r 8 # p p.d.S p N.,Xv.6XyX*X) %XbXbXbXbXbXbXbXbXbXbXbXbXbX",
"bXbXbXbXbXbXbXbXbXbXbXbXbX9.tXhX5XE P 5X6XK s 1.2.:.F u + A ^.L.d.H 0 O   o O r G D S Q =XJ.z Q C.R.E.pX=XK ,.bXbXbXbXbXbXbXbXbXbXbXbXbX",
"bXbXbXbXbXbXbXbXbXbXbX_.g - &.1.E L /.pX6X^ p.*XJ.S 8 + + F ;XbX<Xi.0 O . o e 7.:XI.b.x 1.;XS.G A F i.I.E m _.bXbXbXbXbXbXbXbXbXbXbXbXbX",
"bXbXbXbXbXbXbXbXbXbX).(.w + + + a (.bX8X2.a W.lXbXc.9 o o e M.>XE.Q 8 O o e 7.bXaXI.m 9 G ^ ^ i.i 8 8 e 8 2.4Xq.*.4.bXbXbXbXbXbXbXbXbXbX",
"bXbXbXbXbXbXbXbX3.1.l.W.n.) 8 + i 3.3.P 8 w ^.bXbX4XB o # K `.1XB.! S O O ;.bXbX3XP O # A ^ L.:XS.w o o 0 S n - w q.bXbXbXbXbXbXbXbXbXbX",
"bXbXbXbXbXbXbX-XG ( =X.Xl.i.s e P I.J.w . + P 1.2.1.j # 1.K.R.x.H i.K.R # a 3.3.E e 8 + 9 ) /.L z O O l s # . . a 1.0.bXbXbXbXbXbXbXbXbX",
"bXbXbXbXbXbXbXS.J.N.oX=X`.I.I S I.5X7.e 8 0 q s A.G.m R 4XS.D A S G G.2XL m J.z.s E L.3.+ w a 8 8 o 8 Q q o # + F ! s >.bXbXbXbXbXbXbXbX",
"bXbXbXbXbXbX,.P n.=XaX0X<X,XQ F z.2.e e A A A S.bXbXL a ;.z i 2.P.2.E R a <.bXbXc.2.:XE o o p D 9 . o 0 O O 0 u p s p 7.~.bXbXbXbXbXbXbX",
"bXbXbXbXbX3.z A N.aXkXdXR.M.a.I s.A p p Q D E 4XbX~.t w u p 7.7XbXH.p e 8 m _.bX`.^ P + . 9 p i O . . o O p ! F 0 + s =X:X~.bXbXbXbXbXbX",
"bXbXbXbXbX<.L./ 2.J.P.=Xn.`.W.G A H ! u p s G.2X=XP.S.~.2.b.7XbX_.m p 2.D.H./.>XZ.A O   O 8 + o O o o O 8 K P.Y i u F C.0XJ.3.bXbXbXbXbX",
"bXbXbXbXbX:.7.F u A a.p.C.qXpXJ.s.a.a.0 8 / bXyXz.2.4XbX5XL.S.7.n 9 / 5XbX3X^ ! s.8 o O o 8 u u 0 0 9 8 0 Q b.G ! i.i.i.x.! S bXbXbXbXbX",
"bXbXbX~.%X0.p 0 + L :XN.1XdXjX<XT.T.g.A s d.S.F.E e :.P.I./ A 0 8 A p.P.L.V O 8 e o 8 0 9 u ! Z.i.! l 9 0 i p b.Y.!.a.F S Q b.yX3XbXbXbX",
"bXbXbX0.:.*.8 e i g 7.S.kXzX0XY.T.E.I s S.N.I l./ I ( p.F A p 0 D Q S S i o     o 8 l ! I A / E.T.h.D 8 O o a ;X1X<XW.Q S K.<XqXD.bXbXbX",
"bXbXbXbXa e x U.K.A + P (.-Xa.B.>X,Xx e 7.z.M.E.N.E.aX,XM./ H Q H S 0 O O O o o O 0 2.>XB.A s F H a.Q q O 9 Y 7XlXwX,Xm.v.U.XX0X-X~.bXbX",
"'.bXbX,.P U.:XqXQ.I e / J.S.I / =XI.J.).P S b.R.1XaXkXzXfXN.i.h.F 8 9 e 9 9 9 # # S *XfXW.I p # o u Q A + p F 7.7X=XB.E.6X6.E 2XjX3X_.bX",
"C t.bX;./.;XF.J.M.L ).sXdXI.F S l.I.gXyXE p I W.bXbXjXbXbXH.N.=Xp.u p ( z.Q F i 0 K v.-XyXI.! s 9 O 9 8 o 9 0 p z.! F :XaXI.P 1.).D.*.4.",
"-.bXbXB H.2.K L.7X#XzXlX7XL.c.s L yXyXx.D ! L.bXbXbXaXjXbX2X6XaXK.F F K.0X<XN.H D s i K ~.I.x.M.x.u 9 O .   o 0 S F e 1.7XlX3XP e 9 N bX",
"bXbXbX, 8 u b.fXzXyX/.x.,XfX`.s E /.l.v.v.x.L.#XsX0X1X1X6XaXaXqXM.A F M.wXzX2Xi.g.s.Q D s s ^ 5XJ.S G 2.E w 0 # 9 0 O o E #X(.B 8 $ bXbX",
"t.bXbXc e 8 ^ fXfXF.9 L yX%XK + u S K J.5X/ K M.6X0X1X>XJ.;XlX=XP 8 0 F 5XvX4Xp.Y.T.!.m.( s G z.s s ( 6X8X( Q 9 .   . . . w E J 8 0 0.bX",
"'.bXbXv.A G I.6Xz.8 o a q.w     o p s S c.J I 2XwX>XbXbX,.G.7XE O 8 s H I.3X:.1.qXoXoX1X7Xc.x e i s.T.0X1Xm.! J # o   . . O L.P.J P D.bX",
"bXbXyXXXA / /.A.e e i e +       O s I A i S c.bX0XoXbXbX:.E ) e 8 H Y.oXC.A 8 V tXpX,XpXbXG.S 0 S a.!.W.m.h.! b.x 9 O . o 9 7.W.E ,.bXbX",
"bXbX:.b.I H Q s 0 A H p 8     8 D ! s.D A c.bXbXE.m.bXbXm # 0 N 6.R.<X0X5X2.e 8 B q.2.c.A i u u S / C.) s.h.i.! F l 8 + q i p F i &.bXbX",
"bXbXV i F Q Q H D s D 8 o o 8 F h.h.F p K ).(.1.H K 0.V e ^ p.L.uXdX1X1XbX8X2.0 i S i e 8 8 8 0 H z.Q./ C.T.!.Y.! i + 8 S F / ! e b bXbX",
"bXbXbXV i A l a./ # 8 8 q u A n.g.s.A A p z w 8 9 q w 9 z.6X>XC.*XbX=X1XbXjX=Xp.x.m.i.u 8 o O O i c./ x XX.XC.1XXXG O   . 9 ( / r bXbXbX",
"bXbXbXbXu s p.oXW.m s ! ! D l.J.K ^ 2.g.p + + 0 u l 8 L 4XkXdXW.x.Q Q C.,X0XoXE.1XE.B.p 8 8 o O e e 8 r bXbX^ *X0Xb.w o . o p p # <.bXbX",
"rXbXbXD.s / ,XbXbX(.v.Y.I / S.E A.sXpXJ.A 0 a E F w g bXbXbXbX7.p i p s I B.N.<X0XaX=Xl.! S 8 o 9 8 # e A.bXP / XXP.J + o 8 i 8 . - 4.bX",
"+.bXbXm A b.bXyX`.^.fX8Xl.I F D.xXcXtX^ s K 3X6Xn.x 0.bXbX2Xb.S q q u u u p ( I.n.W.bXyXR.g.s 8 # # i e a 6.p 0 x S u + O e p 8   o w bX",
"O.e.bX# u i.Y.x.2.yXxXcXyXa.E yXhX4X^ A e S (.K.a.S S m m J G S F K D F A u p s p S F.).( m.I p 8 9 s.l # 9 r i / x.S O O + 9 +   # w ,.",
"O.e.q.p A Q H u K G.D.xXgXK A l.E E i u 8 8 m i 0 8 9 8 0 A Q n.W.R.m.R.B.F G P s S x K G a.H 8 8 i s.Q 9 r A.Y I.6X6.8 . . o .   . 9 ,.",
"..%.s G D q + O 8 e a 3.P.a 9 8 n c.e O 8 # # 0 p z 0 8 p H I.qX<XN.-XbX;XB.Q.^.S.L.K s p 0 O o 8 F 9 O 8 7.bXP p.=XP.a o o o       , v ",
"t.9.w e 0 o O q p i A G x # o e c.m i K F s 0 I n.J.z p K x.bXbX,X.XpXbXU.i.E.oX8XpXJ.I A 8     O 8 o   o A S.x e x a #   + # o   O 4.bX",
"bXbX9.w O 8 p s S ( I.S.i 9 e u G G 2.;XQ.a.p u b.E i p./ G.bXpXP.Q.1XR./ l.oXT.E.C.Q a u # o o . O O o o 0 p 8 8 0 + 0 8 9 i 9 O - bXbX",
"t.bXbX1.0 D a.I 1.5X-Xz # u K I K z.bXbX,X/ 9 o w s I n.i./ E x.m.Y.1X0XJ.p.n.l.n.h.b.:XL.P i 8 o O O O o o O o 8 # + u i 8 0 8 + # ,.bX",
"-.bX~.s e D Q ^ 2XbX~.e A M.6X=XK.bXbX2XR 8 o o O x L.1XoXn.Q H a.oXdXbX`.I S J.0X<X.XaXbXbXx.i o o + 9 o . o 0 i 8 O 9 9 O o o o # n bX",
"+.$.E F 8 # e I W.bXB # ^ pXjXK.2.bXbX:.i 8 8 x I H ) =XaX5X2.s I *XbX-XE u l.fXzXqX0X1XpXbX#Xa O 8 O q 9 o   8 q 8 O O O O o . $ - 8 k ",
"| : 0 a w 8 p p r g $ o B yXI.s 2.4X3.P i.a.I.:Xb.F S ^ 2.P e # F n.v.2.s i #XvXgX3XkX6XC.:.m # 9 9 8 H i O . . o o o O o 8 O O >.*.- @ ",
"=.d w *.bX;.w + 8 0 +   - n 9 o u E ^ W.,Xv.R.sXbX-XK 9 0 w O 8 F H ! K.L.M.yXzX`.~.cXyXa O o   O 8 q i.! 8 o o o . . . o O 0 e bXbX>.> ",
"bXbXbXbXbXbX,.9 p A 0 O + . O # i A H R.sX3Xl.c.bXbX<.i Q J.P p p.N.p./ / I z.7.K Y 3XtX-         8 F i 0 8 0 8 O . o . 8 8 q p B bXbXbX",
"bXbXbXbXbXbXR l p 8 8 O u P L.J.H s p F 1.7.p.D R R m b.,XoXn.Q.pX6XQ 8 + + 8 8 + 8 a n @         8 q o o 0 p i O o q 8 O O + q i bXbXbX",
"bXbXbX,.;.M # 0 + v <.w K /.5Xb.F s A D ! a.g.D 8 0 6.5X>Xx.I.dXsXz.u 0 8 8 p p 0 O O o   o         O 8 A A q 8 O o 8 o . o O 9 u D.bXbX",
"bXbXbX*.@ 8 0 0 S 6.L u u E J x x.`.W./ ! s.Q A O O n ^ Q i x 7.1.i e u 0 e ! Q u p p 0 0 8 o     . O 0 D A 8 + O o     . $ >.B w V bXbX",
"bXbXbXbX, w 0 9 r z + 9 O O 9 ! ;X0XE.i.! F e # O O o 9 s 0 + 9 e :.1.0 8 F R.U.Y N.K.a.x.b.0 o   o 8 0 q 0 + + O O O + O $ bXbX;.>.bXbX",
"bXbXbXbXbX<.$ O G 1.e + # O 9 x ^ E E v.K 0 o . 8 8 9 H a.s.A 0 8 L m 0 A M.0X*XB.6X;Xx.>X=X7.0 o 8 q q 8 8 + o o O O O . . b bXbXbXbXbX",
"bXbXbXbXbXbX$ o r P 0 9 i q + O + 8 e ) i o o   # # 2.>X,Xz.p 8 u A i x z.yXjX<XQ.lX4XY v.1X8X7.9 q l p i 8 + . . 8 + O o @ $ ;.bXbXbXbX",
"bXbXbXbXbXbXz 0 9 # l F F l # O + 8 # s u O     O R 4XkX/.D.7.p i Q F x G.bX1XE.,XcXhX/ Q K.b.J 9 D D q p 0 8 O 8 i 8 0 &.9.bXbXbXbXbXbX",
"bXbXbXbXbXbXbX0.x F H h.! q + o o O 9 p q O O O # ~.bXD.V ~.bX1.S Q i 8 E z.F S ^.zX;XG e p # . O i u 8 0 u # O 9 i 9 i 1.~.bXbXbXbXbXbX",
"bXbXbXbXbXbXbX0.p.! S a.D 8 q 9 o o 8 8 8 8 9 # w bXD.x u S.bX,.p u O O 8 w # 8 L H.S 8 o . o O 0 8 # O o + O o o 9 + 9 i m bXbXbXbXbXbX",
"bXbXbXbXbXbXbX2.K.F 8 p # O 0 A 0 o o O O + 9 8 # <.z 8 e A /.3.# O . O 9 9 0 p p p # O .   . O 0 O O O .     . . o O $ 9 a bXbXbXbXbXbX",
"bXbXbXbXbXbXbXz.^ 8 o o o . 8 0 p o 8 i 8 8 0 # O u 8 + # # E P o O O $ , w 0 H H 0 O   . o . . .     .       O O # # b t e >.bXbXbXbXbX",
"bXbXbXbXbXbXq.S n &.$   O s A i x e x A 9 S F 8 o # # + + - 9 # O # # ; ; - l ! S + X = @ - . .           o   O O q i q.bX*.>.bXbXbXbXbX",
"bXbXbXbXbXbX9.>.bXbX- O K L.L.~.D.D.p.0 p d.F 8 . O 8 8 # w w + O O : : 7 y a x # = : g N c # @ $ X     . o   O 8 i l B bXbXbXbXbXbXbXbX",
"bXbXbXbXbXbXbXbXbXbX- t /.bXbXbXbXbXF.i d.Q.K # o O 0 8 + w , - + $ : > m U k w > ; > Z ] ~ a ; 7 : O o o o 9 n a e u w bXbXbXbXbXbXbXbX",
"bXbXbXbXbXbXbXbXbXbX>.bXbXbXbXbXbXbX~.x N.M.J L B # # O . : ; 2 : $ > n E ~ W C Y g v W f.[ g 4 4 # 8 o O O z bXbX>.;.>.bXbXbXbXbXbXbXbX",
"bXbXbXbXbXbXbXbXbXbXbXbXbXbXbXbXbXbXbXV 1.x R bX^.e . $ @ : * ; 5 7 v C W B U j.V.U T f.].{ b } ..*.E B - + >.bXbXbXbXbXbXbXbXbXbXbXbXbX",
"bXbXbXbXbXbXbXbXbXbXbXbXbXbXbXbXbXbXbX;.t :.~.bX0.w . k M b > g m n M C C M 8.OX}.[ V. X]._ 6  .r.bXbXbX4.*.bXbXbXbXbXbXbXbXbXbXbXbXbXbX",
"bXbXbXbXbXbXbXbXbXbXbXbXbXbXbXbXbXbXbXbX9.bXbXbX9.w @ M W C n W [ T M v n ` }.@X}.[ { V.] n 7 ..=.bXbXbXbXbXbXbXbXbXbXbXbXbXbXbXbXbXbXbX",
"bXbXbXbXbXbXbXbXbXbXbXbXbXbXbXbXbXbXbXbXbXbXbXy.,.W b C C C M k Y T n 7 g { +X[.[ T U Z z d 2 1 =.bXbXbXbXbXbXbXbXbXbXbXbXbXbXbXbXbXbXbX",
"bXbXbXbXbXbXbXbXbXbXbXbXbXbXbXbXbXbXbXbXbXy.t.&.Z w.|.8.C ` ` v n Y U n g N ' R n U J v 6 4 * = 7 bXbXbXbXbXbXbXbXbXbXbXbXbXbXbXbXbXbXbX",
"bXbXbXbXbXbXbXbXbXbXbXbXbXbXbXbXbXbXbXbX4.h h n ' 8.}.{.V.V.] W Z J T ] T M M M g U U 6 } 1 * % = %.bXbXbXbXbXbXbXbXbXbXbXbXbXbXbXbXbXbX",
"bXbXbXbXbXbXbXbXbXbXbXbXbXbXbXbXbXbXbX-.5 3 t Z k.].OXOXj.8.[ [ V.f. X}.[ _ _ n f f h 7 2 2 = = = < -.bXbXbXbXbXbXbXbXbXbXbXbXbXbXbXbXbX",
"bXbXbXbXbXbXbXbXbXbXbXbXbXbXbXbXbXy.%.d f c Z { [.OX[.f.T _ ] }.OX+XeX}.] [.V.M d 3 > g ; 2 1 < } < * %.bXbXbXbXbXbXbXbXbXbXbXbXbXbXbXbX",
"bXbXbXbXbXbXbXbXbXbXbXbXbXbXbX4.#.h d a c M c ~ {.OXk.T V.].].@X@X@X+X[.[. X] M 7 7 7 k : 2  .1 } } 1 < 4 %.bXbXbXbXbXbXbXbXbXbXbXbXbXbX",
"bXbXbXbXbXbXbXbXbXbXbXbXbXbXbX#.: d d g k g f n ' 6.' ' { { }.eX@X[.f.j.}.k.` C b 6 4 k k 2 1 < < X.@.X.< < ....-.bXbXbXbXbXbXbXbXbXbXbX",
"bXbXbXbXbXbXbXbXbXbXbXbXbXbXbX6 * d d 2 ; 2 ; ; d y T V.` Z j. X Xf.j.+X}.` W C b 7 5 > c k ; % & } o.@.X.} } 1 ..bXbXbXbXbXbXbXbXbXbXbX",
"bXbXbXbXbXbXbXbXbXbXbXbXbXbXbX%.2 6 3 3 h h > * ; n T C Z ~ k. X}.{ }.@X}.{ { ` C k 7 ; c z 3 * & & < } } < 1 ..t.bXbXbXbXbXbXbXbXbXbXbX",
"bXbXbXbXbXbXbXbXbXbXbXbXbXbXbXy.-.t.u.>.bX4.7 7 t n n m ~ k. XC.[ j. X+X+X X}.w.C M , > y > d 5 & % < < 1 4 %.bXbXbXbXbXbXbXbXbXbXbXbXbX",
"bXbXbXbXbXbXbXbXbXbXbXbXbXbXbXbXbXbXbXbXbXbXV c N n J f.k.{.[.[ Z [ k.{.{.].}.w.` k ; * ; 2 f v 2 * < | =.bXbXbXbXbXbXbXbXbXbXbXbXbXbXbX",
"bXbXbXbXbXbXbXbXbXbXbXbXbXbXbXbXbXbXbXbXbX,.` W T Y ~ j.f.[ [ f.[ ~ ~ f.j.].{.].w.k 2 * = * 7 f 5 6 } @.bXbXbXbXbXbXbXbXbXbXbXbXbXbXbXbX",
"bXbXbXbXbXbXbXbXbXbXbXbXbXbXbXbXbXbXbXbX9.W W Z Z U Z J Z Z T [.[.T T f.{ ] ' ] ` M k 2 = & ; 2 | X.@.O.r.bXbXbXbXbXbXbXbXbXbXbXbXbXbXbX",
"bXbXbXbXbXbXbXbXbXbXbXbXbXbXbXbXbXbXbXq.W Z c m c M v z N W ] }.k.c W ].}.] Z c h h h d 3 % % & < X.o.X.o.e.bXbXbXbXbXbXbXbXbXbXbXbXbXbX",
"bXbXbXbXbXbXbXbXbXbXbXbXbXbXbXbXbXbX$XJ.[ N v g g y g y g Z }.+XC , c ] }.[.~ c d 1 2 | d : % & } @.o.@.@.O.r.bXbXbXbXbXbXbXbXbXbXbXbXbX",
"bXbXbXbXbXbXbXbXbXbXbXbXbXbXbXbXbX$X{.V.J g g 6 6 g v ; ; Z @X}.c ; > M [ k.f.~ g d 3 1 } 3 * < o.@.} o.@.@.O.e.bXbXbXbXbXbXbXbXbXbXbXbX",
"bXbXbXbXbXbXbXbXbXbXbXbXbXbXbXbX&X].1.5.&.g b bXbXbX&.2 2 T }.].M 7 > > z T [ f.K g f 2 | | 3 1 X.@.| | O.@.@.O.e.bXbXbXbXbXbXbXbXbXbXbX",
"bXbXbXbXbXbXbXbXbXbXbXbXbXbXbXbXw.T *.bXbXbXbXbXbXbXbX#.5 Y ] R 9.bX9.> 5 v T f.~ n %.4.t.$.#.d } r.bXbX$. .| | %.bXbXbXbXbXbXbXbXbXbXbX",
"bXbXbXbXbXbXbXbXbXbXbXbXbXbXbX~._ *.bXbXbXbXbXbXbXbXbX-.y ~ T V bXbXbX9.g ; t T [ K 4.bXbXy.$.4 } $.bXbXbXbX-.t.bXbXbXbXbXbXbXbXbXbXbXbX",
"bXbXbXbXbXbXbXbXbXbXbXbXbXbXbXbXbXbXbXbXbXbXbXbXbXbXbX9.M T N 4.bXbXbXbXq.7 > t ~ ~ ;.bXbXbXrXO.} %.bXbXbXbXbXbXbXbXbXbXbXbXbXbXbXbXbXbX",
"bXbXbXbXbXbXbXbXbXbXbXbXbXbXbXbXbXbXbXbXbXbXbXbXbXbXbXw.T T g bXbXbXbXbXbXy.b t Z ~ n 4.bXbXbXy.-.bXbXbXbXbXbXbXbXbXbXbXbXbXbXbXbXbXbXbX",
"bXbXbXbXbXbXbXbXbXbXbXbXbXbXbXbXbXbXbXbXbXbXbXbXbXbXbXH.T g f bXbXbXbXbXbXbXy.C U ~ M 4.bXbXbXbXbXbXbXbXbXbXbXbXbXbXbXbXbXbXbXbXbXbXbXbX",
"bXbXbXbXbXbXbXbXbXbXbXbXbXbXbXbXbXbXbXbXbXbXbXbXbXbX$X>.y d 4.bXbXbXbXbXbXbXbX~.L ] ' 9.bXbXbXbXbXbXbXbXbXbXbXbXbXbXbXbXbXbXbXbXbXbXbXbX",
"bXbXbXbXbXbXbXbXbXbXbXbXbXbXbXbXbXbXbXbXbXbXbXbXbXbX,.5 6 4.bXbXbXbXbXbXbXbXbXbXy.6.|.bXbXbXbXbXbXbXbXbXbXbXbXbXbXbXbXbXbXbXbXbXbXbXbXbX",
"bXbXbXbXbXbXbXbXbXbXbXbXbXbXbXbXbXbXbXbXbXbXbXbXbXbXbX=.bXbXbXbXbXbXbXbXbXbXbXbXbX(.bXbXbXbXbXbXbXbXbXbXbXbXbXbXbXbXbXbXbXbXbXbXbXbXbXbX"
};
