/* XPM */
static char *_20fc88eaa0f41d3f6fa0cb2af58b32eOcNzUM0suDzRKZ8N[] = {
/* columns rows colors chars-per-pixel */
"70 70 216 2 ",
"   c None",
".  c #31302E",
"X  c #353432",
"o  c #363533",
"O  c #373634",
"+  c #373635",
"@  c #383735",
"#  c #383736",
"$  c #3A3936",
"%  c #3B3A37",
"&  c #3A3938",
"*  c #3C3B38",
"=  c #3C3B39",
"-  c #3C3B3A",
";  c #3D3C3B",
":  c #3E3D3A",
">  c #3E3D3C",
",  c #3E3E3C",
"<  c #3F3E3D",
"1  c #3F3F3D",
"2  c #3F3F3E",
"3  c #663931",
"4  c #41403D",
"5  c #40403F",
"6  c #41403F",
"7  c #41413F",
"8  c #42403E",
"9  c #42413E",
"0  c #43413E",
"q  c #43423F",
"w  c #734234",
"e  c #7C4936",
"r  c #414140",
"t  c #424140",
"y  c #424241",
"u  c #434342",
"i  c #444442",
"p  c #444443",
"a  c #454443",
"s  c #454444",
"d  c #454544",
"f  c #464544",
"g  c #464645",
"h  c #474645",
"j  c #474746",
"k  c #484847",
"l  c #494847",
"z  c #494948",
"x  c #4A4A49",
"c  c #4B4B4A",
"v  c #4B4B4B",
"b  c #4C4C4B",
"n  c #4C4C4C",
"m  c #4D4D4C",
"M  c gray30",
"N  c #4E4E4D",
"B  c #4F4F4E",
"V  c #5A4340",
"C  c #4F504F",
"Z  c #50504F",
"A  c #51504F",
"S  c #515150",
"D  c #515151",
"F  c #525151",
"G  c #525251",
"H  c #525352",
"J  c #535352",
"K  c #535353",
"L  c #545251",
"P  c #545453",
"I  c #555555",
"U  c #555655",
"Y  c #565656",
"T  c gray34",
"R  c #585958",
"E  c #595A5A",
"W  c #5A5A5A",
"Q  c #5A5B5A",
"!  c #5B5B5B",
"~  c #5B5C5B",
"^  c #5E5D5B",
"/  c #5B5C5C",
"(  c #5C5D5D",
")  c #5D5D5D",
"_  c #5E5E5D",
"`  c gray37",
"'  c #5F5F5E",
"]  c #5E5F5F",
"[  c #7E4644",
"{  c #754847",
"}  c #73514D",
"|  c #665655",
" . c #60605F",
".. c #5F6060",
"X. c #606060",
"o. c #606161",
"O. c #616262",
"+. c #626363",
"@. c gray39",
"#. c #636463",
"$. c #636464",
"%. c #646464",
"&. c #646565",
"*. c #656666",
"=. c #666767",
"-. c #676868",
";. c #686969",
":. c #696A6A",
">. c #814C37",
",. c #834D38",
"<. c #854F38",
"1. c #84503A",
"2. c #8A5239",
"3. c #8D553B",
"4. c #8F563B",
"5. c #89543C",
"6. c #FF653A",
"7. c #FF783E",
"8. c #915C41",
"9. c #8E5C59",
"0. c #956144",
"q. c #9A6242",
"w. c #9F6644",
"e. c #9E6847",
"r. c #8F625F",
"t. c #A5714D",
"y. c #AF764E",
"u. c #866362",
"i. c #FF7643",
"p. c #FF7744",
"a. c #FF7845",
"s. c #FF7846",
"d. c #F78634",
"f. c #C88F5C",
"g. c #FF834B",
"h. c #FF9844",
"j. c #FF8F54",
"k. c #FF9757",
"l. c #F79852",
"z. c #FF9E5D",
"x. c #FFB149",
"c. c #FFB54A",
"v. c #D09761",
"b. c #FF8869",
"n. c #FF8E6F",
"m. c #FF9A78",
"M. c #FF9F7C",
"N. c #D9A066",
"B. c #FFA261",
"V. c #FFA660",
"C. c #FFA662",
"Z. c #FFB56A",
"A. c #FFB56C",
"S. c #FFBC70",
"D. c #F7CB52",
"F. c #FFEB44",
"G. c #FFFF44",
"H. c #FFFF4D",
"J. c #FFFF53",
"K. c #FFFF57",
"L. c #FFC877",
"P. c #FFD07A",
"I. c #FFD17C",
"U. c #FFD27D",
"Y. c #FFD57F",
"T. c #FFFF60",
"R. c #FFFF65",
"E. c #FFFF66",
"W. c #FFFF6A",
"Q. c #FFFF7A",
"!. c #FFFF7B",
"~. c #A6209F",
"^. c #A721A0",
"/. c #A822A1",
"(. c #AA24A3",
"). c #AB25A4",
"_. c #AC26A5",
"`. c #AD27A6",
"'. c #AE28A7",
"]. c #AF29A8",
"[. c #B02AA9",
"{. c #B12BAA",
"}. c #B22CAB",
"|. c #B32DAC",
" X c #B32EAD",
".X c #B42EAD",
"XX c #B52FAE",
"oX c #B630AF",
"OX c #B832B1",
"+X c #B933B2",
"@X c #BA34B3",
"#X c #BB35B4",
"$X c #BC36B5",
"%X c #BD37B6",
"&X c #BE38B7",
"*X c #BF39B8",
"=X c #C03AB9",
"-X c #C13BBA",
";X c #C33DBC",
":X c #C43EBD",
">X c #C640BF",
",X c #C842C1",
"<X c #CE48C7",
"1X c #D04AC9",
"2X c #D54FCE",
"3X c #D852D1",
"4X c #DE58D7",
"5X c #F06AE9",
"6X c #F16BEA",
"7X c #FFD780",
"8X c #FFD981",
"9X c #FFE186",
"0X c #FFE488",
"qX c #FFFF86",
"wX c #FFF592",
"eX c #FFFD96",
/* pixels */
"                                                                                                                                            ",
"                                                                                                                                            ",
"                                                                                                                                            ",
"                                                                                                                                            ",
"                                                                                                                                            ",
"                                                                                                                                            ",
"                                                                                                                                            ",
"                                                                                                                                            ",
"                                                                                                                                            ",
"                                                                                                                                            ",
"                                                                                                                                            ",
"                                                                                                                                            ",
"                                                                                                                                            ",
"                                                                                                                                            ",
"                                                                                                                                            ",
"                                                                                                                                            ",
"                                                                                                                                            ",
"                                                                                        3X                                                  ",
"                                                    ;X                                                                                      ",
"                                                                          3X                                                                ",
"                                                                                                                                            ",
"                                                            q . 3X[ . . q q q q                                                             ",
"                                                  . . . ; q q 3X2 3X{ u 8 2 q . . 3X. . q                                                   ",
"                                              q 6X. . k  ._ ^ } 3X{.}._ F N x k 4Xj 3X. q q q                                               ",
"                                          u L 6X: 3XL | W ~.~.`.~.~.~.3X~.`.~.(./.3X! L  .q q Z =                                           ",
"                                      . ; $ q 9.3Xr.~.`.~.~.XXOXOXOX3X&X3XOX@XXX:X:X~.`.W Y J . . ; .                                       ",
"                                    . ; . j | u.XX{.XX{.].@X@X&X=X=X2X3X&X=X=X,X1X,X3X}.~.~.#.Y j . ; .                                     ",
"                                  . o # . . ~.~.~.;X{.].}. XoXOXOX<X2X<X=X$X&X$X=X$X].{.;X~.~.~.. . # o .                                   ",
"                                  . o O O . . ^.~.~.~.`.`.`.`.].{.$X;X$XOXXX'.'.`.`.`.~.~.~.^.. . $ O X .                                   ",
"                                    . # = & & . . . . ~.~.~.~.~.~.~./.^.~.~.~.~.~.~.~.. . . . & $ & O .                                     ",
"                                      . . u k q 8 u a . . . . . . ~.~.~.~.. . . . . . j u 2 u j u . .                                       ",
"                                      . 2 j N -.-.-.k i 2 2 q u j . . . . j u u 2 2 u k -.-.-.N j 2 .                                       ",
"                                      . 2 j N j j -.-.-.-.n N N x j u u j x N N n -.-.-.-.j j N j 2 .                                       ",
"                                      . 2 v N b.C C n x j N -.=.-.=.-.-.-.-.-.-.C j x v F N F C x 2 .                                       ",
"                                      . 2 x Y _ ..&._ R F J N N B B B N N N N N K F T _ o.....n.x ; .                                       ",
"                                      . = x Y _ #.8X&.=.&.=...( _ _ $.$.o.( W ] &.&.-.-.8X&.m.Y x 2 .                                       ",
"                                    d.l.. s F / o.=.8X-.-.;.;.;.;.;.;.;.;.;.;.;.-.-.-.-.=.$.! F a . l.d.                                    ",
"                                      d.. 2 x Y _ I.eX-.-.-.;.:.:.:.:.:.;.:.:.:.-.-.-.8XP._ Y x 2 . d.                                      ",
"                                      l.l.6.u N A.0XwX7X=.-.-.-.:.:.;.:.;.;.;.;.-.-.8XwX0XA.N i 6.l.l.                                      ",
"                                        D.F.p.s B.I.qXL.&.&.-.-.-.;.-.-.;.-.-.-.&.&.L.8XI.B.i p.F.D.                                        ",
"                                    6.  D.D.6.& j.S.!.S./ M.o.&.=.$.=.$.&.&.&.....( S.P.S.k.# 6.D.D.  6.                                    ",
"                                        D.D.7.. p.C.W.C.F T W ( _ ] ] ] .._ ( W R J C.Z.V.a.. 7.D.D.                                        ",
"                                        3 3 3 w . p.k.K.E.z.N C F !.K K F J F N z.E.T.K.i.. w 3 3 3                                         ",
"                                    3 3 4.4.4.5.,.6.s.F.J.g.u u p u j s E.u u u g.J.F.F.6.>.5.4.4.3.3 3                                     ",
"                                    3 0.N.N.N.4.4.c.x.6.F.6.6.O H.O O O O O O 6.6.F.6.x.c.3.4.N.N.N.0.3                                     ",
"                                    3 t.N.v.f.N.4.3.3.1.h.3 . G.6.. . . G.6.G.. 3 h.1.3.4.4.N.f.v.N.t.3                                     ",
"                                      3 N.v.v.N.N.w.2.,.e 3 3 1.q.4.4.4.4.q.1.3 3 e ,.1.w.N.N.v.v.N.3                                       ",
"                                      3 N.N.N.N.N.e.e 3 3 3 3 8.y.N.N.N.N.y.8.3 3 3 3 e e.N.N.N.N.N.3                                       ",
"                                        3 3 N.N.4.3 3 3     3 N.N.N.f.f.N.N.N.3     3 3 3 4.N.N.3 3                                         ",
"                                          3 3 3 3 3         3 N.N.N.f.f.N.N.N.3         3 3 3 3 3                                           ",
"                                                              3 N.N.N.N.N.N.3                                                               ",
"                                                                3 3 3 3 3 3                                                                 ",
"                                                                                                                                            ",
"                                                                                                                                            ",
"                                                                                                                                            ",
"                                                                                                                                            ",
"                                                                                                                                            ",
"                                                                                                                                            ",
"                                                                                                                                            ",
"                                                                                                                                            ",
"                                                                                                                                            ",
"                                                                                                                                            ",
"                                                                                                                                            ",
"                                                                                                                                            ",
"                                                                                                                                            ",
"                                                                                                                                            ",
"                                                                                                                                            ",
"                                                                                                                                            ",
"                                                                                                                                            ",
"                                                                                                                                            "
};
