/* XPM */
static char *c14e5e3853ab45f6abdc3aae12d0d684UtoPBkYnTY3hLkU5[] = {
/* columns rows colors chars-per-pixel */
"70 70 73 1 ",
"  c #5F5E0F",
". c #5E5C10",
"X c #645E0F",
"o c #695D0F",
"O c #665412",
"+ c #6B5513",
"@ c #655C11",
"# c #695C12",
"$ c #5E650E",
"% c #5E6D0D",
"& c #5E720C",
"* c #5F6410",
"= c #5E6910",
"- c #63650F",
"; c #68630E",
": c #636C0E",
"> c #68690E",
", c #686B0F",
"< c #686D0D",
"1 c #686F0D",
"2 c #696C0E",
"3 c #686D0E",
"4 c #696D0E",
"5 c #686E0E",
"6 c #60710A",
"7 c #63710A",
"8 c #63700B",
"9 c #62730A",
"0 c #65710A",
"q c #64710B",
"w c #66700B",
"e c #64730A",
"r c #66730B",
"t c #62740A",
"y c #63750A",
"u c #63750B",
"i c #64750B",
"p c #65760A",
"a c #66770A",
"s c #62720D",
"d c #62710F",
"f c #65720D",
"g c #61740D",
"h c #63750D",
"j c #60760C",
"k c #62760C",
"l c #66760C",
"z c #64760E",
"x c #68710D",
"c c #69760D",
"v c #69750E",
"b c #65790B",
"n c #66790B",
"m c #667A0B",
"M c #64780C",
"N c #68780C",
"B c #68780F",
"V c #6B790E",
"C c #656410",
"Z c #686110",
"A c #696011",
"S c #6A6010",
"D c #696411",
"F c #646A10",
"G c #6A6B10",
"H c #706C12",
"J c #637210",
"K c #647210",
"L c #657510",
"P c #6A7210",
"I c #667911",
"U c #6B7B10",
"Y c #687B12",
/* pixels */
"1>80xNNVvahlsllluau:--$%%&%8shshhhnUIvflllJhlLNma1G-X;ooX-8%%&yy700;>>",
"::--xv0vxalhhhll0&&---$-:$8:sss&hhlIIKlKlfhhhhmmnf>>X-o--:7%7&aa1<<<>8",
";;o;;11>1>ffflJlu1:----$---<::sshhJflKJsfsssujnjaf1>-;>-8-877aaa0000>;",
";ooooG11G1f1Fshfa0:--XXX-$::s1ssKhJLJLlJssshhhujssf%8:>88887ayaa00;;X;",
"Xoo+#;H;-:f8flls%s8:$$XXX%:88ufsKhJ&KKhhhhshnmm&&l&&&ju8:&yy7a00>>;Xoo",
"oooo##SSS>>:Ffsss&1-;->@X8%$:afsssJKLhLLhhlh&&&&&&&jjnu&y77ya&770>>ooo",
"o+o++##S#;>>::1%:::;X;CC-<$::sss:J=KJhlLLhY&Y&&jhjs&h&nnyyy77070>0>;oo",
"o++++++o##C:::::%:::--CCo-::sfsJsJsFJsJlYjnYjmhI&&n&&n&n7ayy77700000o+",
"S;#++###Z;Z-::--:::1:CCCZFFFJssJJJJ=ddd&hLJ&&I&&hu&u&nyuyyn0aau0a0f1<;",
"1;o##>#SZZZZ-:::%:1:::sFF:JssFsJF&J&d*d%J&JLddJ&&hu&nay&y7a0haaaa00a0<",
"x;S;o;DDDD;--$$::::::F:*FJ:JF&ssJJJJsJJ=&=JJJdd%hhuu&y8&7780uu88a0aa00",
"11;;;@DFD;C-$$$:1:f1ssF:JFK:JJ=shJJJJJhs&d=&h==:ss%&&u%8718aa8uaa0au0>",
"111<G11>::$::$:1:::s:KfFGGFsK:ssJhJF&JJJ=J==JF=:F-::&%%%::8s:y0aa00us1",
"fx11FflFs:::&::$:D::slFGGLFGsJsJKhs%&=FFFCF*F=*CC-C--%:-:180&a00%anlfl",
"va%0KfffFh&%:%%%%::s:fFKxKG1Jssshs&J=JFCC**CC*C*;-.$$-$-::08f8Nahuslx0",
"anN0flLKss&&&&%%s:&s:JfFGGFF:JsJK&J=JFCFC**C*C@C@;O@OX$$1::::f0nauuava",
"allnllLL&I&j&&%=%&&FFfFFGFD;s1JssJ&::FFCC. . @ @OOOOOX;--:::88&uh0Vall",
"hlflflKnI&&j&&h&&JsshG1GCDC::%&sJs=F=$CZ@C... ..OOOOOOX->>%$::08fluull",
"us>fxfnII&s&&&&&&&shl11GDDF-:s::F:%$=-CO@..... OOOOOOOX---:::%:&slllll",
"s1fsKLLnhhJ&=j&&&JsfsfxxFFF-Fs%%s=$=:=.@@@.... OOOOOOOX-::-::110s1flhs",
"s:luf1lKIhh&&u&&ssllsffFFf1G::$:F$F=*$@@....  @@OOOOOOX--:1:>-;:::sfss",
"ssshhfslLn&&&:su&&sFffGP>1FCF::F=FCC*** .@@.  .O@O@OO; ----C@SC;F::sfl",
"u&&sGPlKls&&&&0s%&sffffG>FCC$C=*CF=$====-.. $@Z@@@O@X;$X$--Z@ZSCC-Fssh",
"uhs&:xfPhhu&&&8ffslfFfLGF:=C:$C===$FC=C-$*$ --.@CCC;X@@X$--Z#S;DZZCCss",
"ssu&sflLPJflss1fxlPGGLPGFDC-C=CC$%$%FF===- X*CC>CZ--CCCC:-@C@@Z##ZD@FJ",
"&huhssJfvlsFsf1:1>1GGFFFCF-:=CC==FFF$%$C$$-*CCDFCF-FF*CC$-S@Z@#+###F=J",
"&8hulflGf1s::%::>GGGGGFFFCCCC**C-:C$=F&%$$$=$-CGFFF::F*F---FZZ##@##SFJ",
"hhuhlfFFFF::$:::>:GGGFFDZCC=*CFCF=F$s%%=$$$=--FFFCFFC:F:--C-CD##ZC#Z:s",
"hhhhss1FGC>F--C->>:>GCDDZ@CDFFGGFFFFF:&%$%$$:*FF:C$F*C:F:-FCFD-DZZZCZs",
"&hhss>CGFCGC:-@@S@-GCS#DS@SGPGFDFFGFs%%=:==%FFFFFF=::FF:;FCCFF::CZCFFJ",
"h&hs:FCCFSGCFZ@@--CFCZ##@#DDGGFDFGGPJ%%====::FFCFF:FFF1FFFF-FFC>ZCF1sf",
"uuhs1CCCZZ####;;CZC-DS#####GPGGFGCFGFssJ&F:=:$1F=FF::1fFxx:*:F>F:1Gfsh",
"&LLFFCCDH+++++####ZCD###S##GGUGGGFFGJJKfs::::::F$FsFF:::fLGFFF:F11ffll",
"h&JDFCDC++++++++###CZDSSS##DGGFDDGPGGLKJJs%JFFFFF:F:::::sF1KsFFs1f1Lll",
"uuJFFGCD#+++++++##ZCCZZZS#DFGDFGDFGFGIfKJs&FFFFFFF:F::FJGFfffJ:JPGKLnl",
"&uJJFGDD##++++++##ZGDDDSHSGGGDDDD#DGGFFsJ=FJF*FFF:$-FCFFfFfFFsFffKfLLn",
"uhffFGDDH++++++OZC-:Z->-SCDCFFD####DKFGK==&FFC=C=CCCCCFDFF&FKsJFsLflnn",
"&&ss=SFD++++O#+#$--ZCX@CSCCGFD####CGGFFF====$==C=C*@.CCF:FF::hhssslluj",
"&&s:JFGDD#++O###C---C$@CCCF:D#+#S#SDGFFFF====FF=CC*@CCCCJ::ssJhJhshhhu",
"u&s:FKFDD#DDO##@@C--*$-$C$CCDD+####SDFFJ==F%FF:=FCCCCZ*F:FFFfhhhh&&&hh",
"&u8::1:11ZCZZ@ZZC@.-$$@CCCCCCZ###G##GPFF==FF1FCFFCGCCCC=F:Fhshh&&&b&yy",
"h&&&88s:F:FCCCCCCC@@@*@@@ZCGDD#+D##HSFFFJ==FK>:FFCCC@CFZFFJsh&&hb&&b&&",
"&sss8%s1:=F:FCCCCC$$C.@@@#ZGGS##H#DDGFPFPFFFFF:CCCDDZSF::Fhh&hlLb&&yjj",
"h&h&s&:s:C:$-FF=-C-CCC@@@DZGGDHHDDDHGPIPJJFFF:-CDGCCFFsF%sshI&&hb&&yjn",
"&&u8&%&:-CCCCCCCCCCDXC.ZSZZDSHHGHHGFPPYPGGGFFFCCZFFF:%::ssh&&hhu&&&&6y",
"hhs78%$:-C*C*C=CCC=ZC@CCSSDGHGDGHDHFPYPPPFFD:F:FFFFF:F%JKahh&hj&a&&y&p",
"shu&&8:---@CCCCCC=F=CSCZDGSGDHGHHFGHPPYIFGFFS:::s:sf1sfavvh8&j&&&a6%y6",
"s&&&::$:--CCC==FFF=F=FFDDDGHG1GHHHGYPPPPYGGFFC:::::f11fffn&&&&&&y&&&&p",
"hu8h:$%-oXZ@@=F:=F==JFJFFGGG1GHHHGGPxPvIvG>:1-:-ss::>1>1fls:&8s&&&&%&&",
"&&&::$X-;X;@ZC:=F=JFFJFJFFFGHPvHGPGvxllfJ:1>-$$8::h:1118fvl0lh&&&&&&&&",
"&&%::--XXoX;ZCFF=F=F==FFFFPGPPVGHVGVvILF1F:1$$-%80&x1x<xfvfssu&u6&%&%&",
"8:&:::;XOO#;CFFFCFC===F=KPFPHVPVVVvvVvlf>1>>:1:$8u%10a7<fvva&&88&&77&6",
"%%:8:-;X##@#@SFFCCFF===FFKFPIvvPVVVvllsf:11D1>>1f07777xxxvf80f8u7&77&7",
"u88:::-o####@#ZDFFCCF===FKKKPVVvvVvVvlssfsF:1;>11187N7xxVfvf0uu&6p7y7&",
"&77:%$:-@##@C#SCFFCCF*FFGGKPPxUIlIxVvllffKf:1:1118:0xN0x0vva:a0u&6eey&",
"&y778---*@CFCCCCDDCFFsF%fKKxPvVvvVvVUlllls>1>--::81:77xxvaaauua&y6p6e6",
"&u0s:::CFCFCCCCCCZSFFs:FKffKxxvVVVVVUVVVLvffFS>>&8:%1ffsavfllfa&&u077&",
"&hff1C->F=FFFGGGGCCDGFsJ1PKKfvIIVUUVUVvnflffG>-:-:::1sf:f0s8sf0fu8u&y&",
"&uhs:::$F=CFfFGCFZCCF:&lsJJsKlUlVvVUVVvalsfl1>1Z8:>>::1::ff118ua7u&&&%",
"uus&::::=FFFJ1FG>FF1::h=%*FsLLlIVVUVVIV0Lsff&F::>;1-:>:::::;1fvfuuu&&&",
"uuu0:::fsFJFFfK11::1=J&%%%%hJJKKLLLllvfllJlfss::0>>-CCCC----::&:uh&uau",
"uahsfs&fsssflfss:s%sJL%&&=%JJ&JJLlULlIILJsJll&::-->-SSS#O;-->:1s88uuuu",
"uu8sffsfssffhs:s:ss&%&%&&=%&hhshsLLLfLvvhlhhss::FF-;X@####;->;:8&u&hua",
"uu&&ff::fffs8::sssh&&&&&&&%&=&%JJJLLJLVnnhllhss:::>;O#OO#OX-$:&:fu&8u8",
"u&&&afsfff1ffff0s8u&&&&&&&%%&%&&LddJJInLllhnnu&f::-###OOOOX-$&777&uu77",
"&&uufsfaffsff&8f:&&8&&&&&&&%%&%%Y=IdJJIhlnlIanass:>#OO+OOOO$%>;&7&uyu&",
"&8nufhlnllsfalfu0u8&&&%&&&&&&&&&&&JLIIJIlLnlahjj::;O++++OOX-$&%&&7&yu&",
"u&uuhlllnlshll10uuua&&%%&&&&s&&&&&JIILL&llnlnnjh8:XXOOO+OOX--%7$7&ayu7",
":&uuullnllhJllanauu&&&%%&&%hsh&h&&YIYhILhnnnnl&La0;XXXXOoo8%$%&%saaau&",
"118huuvlnlhlsaaunuu8&&%&%&%s&sh&h&&YYILhnLInnnh&8::oOoXX---$&&%&8uu808"
};
