/* XPM */
static char *_13af2dded2543938c50a987aa0d6e4692o2AfqaTk1yYdzJ[] = {
/* columns rows colors chars-per-pixel */
"70 64 133 2 ",
"   c None",
".  c #695B76",
"X  c #6D5F79",
"o  c #A22532",
"O  c #A22533",
"+  c #A22632",
"@  c #A22633",
"#  c #A32633",
"$  c #A22534",
"%  c #A22634",
"&  c #A32634",
"*  c #A32734",
"=  c #A62734",
"-  c #A22833",
";  c #A32936",
":  c #A72834",
">  c #A82834",
",  c #A92835",
"<  c #AB2835",
"1  c #AB2935",
"2  c #AC2A36",
"3  c #AE2A36",
"4  c #AF2A36",
"5  c #AF2A37",
"6  c #A32C38",
"7  c #B02B37",
"8  c #BF303A",
"9  c #BF303B",
"0  c #C7313C",
"q  c #C6313D",
"w  c #C7313D",
"e  c #C6323C",
"r  c #C7323C",
"t  c #C6333C",
"y  c #C7333C",
"u  c #C6323D",
"i  c #C7323D",
"p  c #C6333D",
"a  c #C7333D",
"s  c #C7313E",
"d  c #C7333F",
"f  c #C8313C",
"g  c #C8323D",
"h  c #C8333D",
"j  c #C8313E",
"k  c #C8353F",
"l  c #CB343E",
"z  c #CD343E",
"x  c #CE353E",
"c  c #D0353F",
"v  c #E7473E",
"b  c #E94B3B",
"n  c #ED5933",
"m  c #F1672B",
"M  c #F0642D",
"N  c #F67622",
"B  c #D33640",
"V  c #DD3A42",
"C  c #E43C44",
"Z  c #596887",
"A  c #5A6987",
"S  c #5B6A87",
"D  c #5A6988",
"F  c #5B6A88",
"G  c #5C6B89",
"H  c #5E6D8B",
"J  c #606F8C",
"K  c #7D6F88",
"L  c #61708D",
"P  c #63728F",
"I  c #667592",
"U  c #707E9B",
"Y  c #717F9B",
"T  c #717F9C",
"R  c #727F9C",
"E  c #71809B",
"W  c #71809C",
"Q  c #72809C",
"!  c #74829D",
"~  c #74829E",
"^  c #75829E",
"/  c #74839E",
"(  c #74839F",
")  c #7685A0",
"_  c #7786A1",
"`  c #7988A3",
"'  c #90839A",
"]  c #91859B",
"[  c #98869C",
"{  c #9D889D",
"}  c #899BB3",
"|  c #8B9AB3",
" . c #8A9BB3",
".. c #8B9BB3",
"X. c #8B9AB4",
"o. c #8A9BB4",
"O. c #8B9BB4",
"+. c #8A9BB5",
"@. c #8B9BB5",
"#. c #8C9BB4",
"$. c #8A9CB4",
"%. c #8B9CB4",
"&. c #8C9CB4",
"*. c #8C9CB5",
"=. c #8D9CB5",
"-. c #8D9DB6",
";. c #909FB8",
":. c #A995A4",
">. c #91A0B8",
",. c #93A2B9",
"<. c #93A1BA",
"1. c #94A3BB",
"2. c #94A4BB",
"3. c #95A4BB",
"4. c #99A7BE",
"5. c #BDAAAE",
"6. c #CBBAB6",
"7. c #AFBCCF",
"8. c #B1BBC8",
"9. c #B0BDD0",
"0. c #B1BDD0",
"q. c #B3C0D3",
"w. c #BCC7D9",
"e. c #BFCADB",
"r. c #BFCADC",
"t. c #C4CDDB",
"y. c #C0CBDC",
"u. c #C1CBDC",
"i. c #C0CCDC",
"p. c #C6CEDC",
"a. c #CAD1DD",
"s. c #DEE0E0",
"d. c #E1E0E0",
/* pixels */
"                                                                                                                                            ",
"                                                                                                                                            ",
"                                                                                                                                            ",
"                                                                                                                                            ",
"                                                                                                                                            ",
"                                                                                                                                            ",
"                                                                                                                                            ",
"                                                                                                                                            ",
"                                                                                                                                            ",
"                                                ~ ~ R A A Z A A L #.#.,.y.r.              @.O.@.                                            ",
"                                                ~ ~ W A A A A A L O.O.,.y.y.i.            O.O.O.                                            ",
"                                                ~ ~ R A A A A A L O.O.3.y.y.              O.O.O.                                            ",
"                                                ~ ~ W S A A A A L O.O.O.O.O.O.O.O.O.#.O.| O.O.#.                                            ",
"                                                ~ ~ W A A A A A L O.O.O.O.O.O.O.O.O.O.O.O.O.O.O.                                            ",
"                                                ~ ~ E S S A A A L O.O.O.O.O.O.O.O.O.O.O.O.O.O.                                              ",
"                                                      ~ ~ U A A D D A A A A A A D A A A D                                                   ",
"                                                      ~ ~ E A A A A A A A A A A A A A A A                                                   ",
"                                                      ~ ~ U A A A A G A D D D D A A S A A                                                   ",
"                                                      ( ~ U S A L *.$.#.*.@.O.      @.$.O.                                                  ",
"                                                      ~ ~ E S S L | @.| #.$.O.      @.O.O.                                                  ",
"                                                      ~ ~ U A A L $.#.| O.O.*.      @.$.O.                                                  ",
"                                                      ~ ~ U A A L @.$.@.O.O.<.u.i.0.| #.#.                                                  ",
"                                                      ~ ~ E A A L | #.| O.O.2.u.i.q.@.$.$.                                                  ",
"                                                      ~ ~ U G H L #.$.@.O.| 2.w.w.0.| #.@.                                                  ",
"                                    ~ ~ ~ ~ ~ ~ ~ ~ ~ ~ ~ ~ ~ ~ ` @.| @.$.@.$.#.O.O.O.O.O.| *.| | $.@.| | $.                                ",
"                                    ~ ~ ~ ~ ~ ~ ~ ~ ~ ~ ~ ~ ~ ~ _ $.#.$.#.| @.| O.O.O.O.$.@.*.*.@.#.$.#.| *.                                ",
"                                    W U E U U E U U E U U W ) ) ` @.$.@.| #.$.#.O.O.O.O.*.>.>.*.*.&.@.$.@.@.                                ",
"                              ~ ~ ~ A A A A A A S A S S A J O.O.#.| #.| @.$.@.| O.O.O.O.4.u.u.t.      | &.$.@.| @.                          ",
"                              ~ ~ ~ A A A A A A S A A A A J O.O.| #.| #.$.@.$.#.O.O.O.O.4.y.y.p.      O.$.#.| #.*.                          ",
"                              U U U A A A A A A A A G J J I O.O.@.$.@.$.#.| @.| O.O.O.O.4.y.y.a.d.s.8.O.@.| @.$.*.                          ",
"                        ~ ~ ~ A A A A A A A A A A A H #.#.O.O.O.$.#.| @.| #.$.#.O.O.O.O.4.y.y.y.y.y.7.O.$.#.$.@.*.@.| *.                    ",
"                        ~ ~ ~ A A A A A A A A A A A H #.O.O.O.O.@.| #.$.@.$.@.| O.O.O.O.4.y.y.y.y.y.7.O.@.| #.| #.$.$.@.                    ",
"                        ~ ~ ~ A A A A A A A A A A A H @.#.$.#.$.$.#.| @.$.@.$.#.| @.$.@.4.t.y.y.y.y.7.O.O.O.O.O.O.O.@.$.                    ",
"                        ~ ~ ~ A A A A A A A A A A A H | | @.| @.@.| #.$.#.| @.| #.$.#.| 4.r.y.i.y.y.7.O.O.O.O.O.O.O.| $.                    ",
"                        ~ ~ ~ A A A A A A A A A A A H #.@.$.#.| $.#.| @.@.| $.#.| @.#.$.4.r.r.i.y.y.7.O.O.O.O.O.O.O.*.#.                    ",
"                        K K K . . . . . . . . . . . X { { { { { { { { { { { { { { { { { :.6.6.6.6.6.5.{ { { { { [ ' ' ]                     ",
"                        @ @ @ @ @ @ @ @ @ @ @ @ @ @ > C C C C C C C C C C C C C C C C C b N N N N N M C C C C C x @ @ 6                     ",
"                        @ @ @ @ @ @ @ @ @ @ @ @ @ @ > C C C C C C C C C C C C C C C C C b N N N N N M C C C C C l @ @ ;                     ",
"                        , < < @ @ @ @ @ @ @ @ @ @ @ > C C C C C C C C C C C C C C C C C b N N N N N M C C C C C l @ @ %                     ",
"                        a e j @ @ @ @ @ @ @ @ @ @ @ > C C C C C C C C C C C C C C C C C b N N N N N M C C C C C l @ @ %                     ",
"                        j a e @ @ @ @ @ @ @ @ @ @ @ > C C C C C C C C C C C C C C C C C b N N N N N M C C C C C l @ @ %                     ",
"                        e a j @ @ @ @ @ @ @ @ @ @ @ > C C C C C C C C C C C C C C C C C v m m m m m n C C C C C l @ @ %                     ",
"                        f e j @ @ @ @ @ @ @ @ @ @ @ , C C C C C C C C C C C C C C C C C C C C C C C C C C C C C l @ @ %                     ",
"                        e j e @ @ @ @ @ @ @ @ @ @ @ > C C C C C C C C C C C C C C C C C C C C C C C C C C C C C l @ @ %                     ",
"                        e a a @ @ @ @ @ @ @ @ @ @ @ & c c B C C C C C C C C C C C C C C C C C C C C C C C V x c e @ @ %                     ",
"                        f a a @ @ @ @ @ @ @ @ @ @ @ # # @ < C C C C C C C C C C C C C C C C C C C C C C C x % @ o @ @ &                     ",
"                        e j a @ @ @ @ @ @ @ @ @ @ @ @ @ @ < C C C C C C C C C C C C C C C C C C C C C C C l o % o % @ @                     ",
"                        a a l < 7 < @ @ @ @ @ @ @ @ @ @ # & z z x x x x x x x x x x x x x x x x x x x x l 9 - o % o @ @                     ",
"                        a a a a a w % @ @ @ @ @ @ @ @ @ @ @ @ @ @ @ @ @ @ @ @ @ @ @ @ @ @ @ @ @ @ @ @ @ @ @ @ @ @ @ # &                     ",
"                        j a a a w a @ @ @ @ @ @ @ @ @ @ @ @ @ @ @ @ @ @ @ @ @ @ @ @ @ @ @ @ @ @ @ @ @ @ @ @ @ @ @ @ @ &                     ",
"                        a a j a a w 7 < < @ @ @ @ @ @ @ @ @ @ @ @ @ @ @ @ @ @ @ @ @ @ @ @ @ @ @ @ @ @ @ @ @ @ @ @ - @                       ",
"                              a a a j w j # @ @ @ @ @ @ @ @ @ @ @ @ @ @ @ @ @ @ @ @ @ @ @ @ @ @ @ @ @ @ @ @ @ @ %                           ",
"                              a a a a a a @ @ @ @ @ O @ @ @ @ @ @ @ @ @ @ @ @ @ @ @ @ @ @ @ @ @ @ @ O @ @ @ @ @ @                           ",
"                              a a a a w w 7 7 7 7 7 7 7 7 7 7 7 7 7 7 7 7 7 7 7 7 7 7 7 7 7 7 7 7 7 7 7 7 < % @                             ",
"                                    a w a w a w j a a a a w a w a w a w a w a w a w a w a w a a a a a a j w                                 ",
"                                    w a w a a a a a a w w a w a w a w a w a w a w a w a w a w a a a a w a a                                 ",
"                                    a a e a a a a a a a a a a a a w a a a a a a a a a a a a a j a a a l j                                   ",
"                                                                                                                                            ",
"                                                                                                                                            ",
"                                                                                                                                            ",
"                                                                                                                                            ",
"                                                                                                                                            ",
"                                                                                                                                            ",
"                                                                                                                                            "
};
