/* XPM */
static char *result[] = {
/* columns rows colors chars-per-pixel */
"76 78 131 2 ",
"   c #8F353D",
".  c #933137",
"X  c #95353B",
"o  c #92383F",
"O  c #98393F",
"+  c #E47D3B",
"@  c #953C43",
"#  c #9D3D42",
"$  c #A23F43",
"%  c #B53F42",
"&  c #9E4449",
"*  c #A5454A",
"=  c #B54044",
"-  c #B54649",
";  c #B6484C",
":  c #A34E53",
">  c #B34E51",
",  c #A45055",
"<  c #A45359",
"1  c #AE5B5F",
"2  c #B65054",
"3  c #BC5054",
"4  c #AA5C62",
"5  c #B15E63",
"6  c #B95D60",
"7  c #AC6166",
"8  c #B56165",
"9  c #B2646A",
"0  c #BA6669",
"q  c #B57175",
"w  c #B5777C",
"e  c #C74A4B",
"r  c #CF4A4A",
"t  c #D14F4C",
"y  c #D3544A",
"u  c #CB5051",
"i  c #CE5A52",
"p  c #C75558",
"a  c #C05A5D",
"s  c #D25550",
"d  c #E47F42",
"f  c #E07E5D",
"g  c #C05D60",
"h  c #C36467",
"j  c #C96263",
"k  c #C5686A",
"l  c #DE7C6A",
"z  c #C07377",
"x  c #CD7D7F",
"c  c #E38246",
"v  c #E1854D",
"b  c #E18751",
"n  c #DD8365",
"m  c #E48865",
"M  c #E38868",
"N  c #5D6985",
"B  c #606B87",
"V  c #616D88",
"C  c #66718B",
"Z  c #69748F",
"A  c #6C7791",
"S  c #6E7992",
"D  c #707A93",
"F  c #77829C",
"G  c #7A849D",
"H  c #7D87A0",
"J  c #80889F",
"K  c #838DA4",
"L  c #8790A6",
"P  c #8A94A9",
"I  c #939CAF",
"U  c #8F9BB2",
"Y  c #929DB4",
"T  c #96A1B6",
"R  c #99A2B5",
"E  c #97A2B8",
"W  c #99A4B9",
"Q  c #9FA9BD",
"!  c #A2ABBF",
"~  c #D38D8F",
"^  c #C48F92",
"/  c #D59294",
"(  c #D89B9D",
")  c #D0A6A9",
"_  c #DEAAAC",
"`  c #D4ADB0",
"'  c #E0B0B1",
"]  c #A3ADC0",
"[  c #A7B0C2",
"{  c #ADB4C3",
"}  c #ADB6C8",
"|  c #B2B8C7",
" . c #B3BBCA",
".. c #B9BFCC",
"X. c #BDC3CF",
"o. c #B7C0D0",
"O. c #BBC3D2",
"+. c #BFC8D7",
"@. c #C1C7D5",
"#. c #C5CAD3",
"$. c #CBCED5",
"%. c #C3CBDA",
"&. c #CACFD8",
"*. c #CAD1DC",
"=. c #D0D5DF",
"-. c #DFDEDD",
";. c #E5C9CB",
":. c #EACACA",
">. c #EBDADB",
",. c #F0D7D7",
"<. c #F1DBDB",
"1. c #E2E0DE",
"2. c #CFD6E1",
"3. c #D4D9E1",
"4. c #D9DDE5",
"5. c #DEE1E7",
"6. c #E3E2E3",
"7. c #ECE3E2",
"8. c #E1E4E9",
"9. c #E6E9ED",
"0. c #F4E3E3",
"q. c #F4E7E8",
"w. c #F7EBEB",
"e. c #F9EFEF",
"r. c #EBEDF1",
"t. c #EDF0F1",
"y. c #F3F4F6",
"u. c #FAF5F5",
"i. c #F5F6F8",
"p. c #F7F8F9",
"a. c #FFFFFF",
/* pixels */
"a.a.a.a.a.a.a.a.a.a.a.a.a.a.a.a.a.a.a.a.a.a.a.a.a.a.a.a.a.a.a.a.a.a.a.a.a.a.a.a.a.a.a.a.a.a.a.a.a.a.a.a.a.a.a.a.a.a.a.a.a.a.a.a.a.a.a.a.a.a.a.a.a.a.a.a.",
"a.a.a.a.a.a.a.a.a.a.a.a.a.a.a.a.a.a.a.a.a.a.a.a.a.a.a.a.a.a.a.a.a.a.a.a.a.a.a.a.a.a.a.a.a.a.a.a.a.a.a.a.a.a.a.a.a.a.a.a.a.a.a.a.a.a.a.a.a.a.a.a.a.a.a.a.",
"a.a.a.a.a.a.a.a.a.a.a.a.a.a.a.a.a.a.a.a.a.a.a.a.a.a.a.a.a.a.a.a.a.a.a.a.a.a.a.a.a.a.a.a.a.a.a.a.a.a.a.a.a.a.a.a.a.a.a.a.a.a.a.a.a.a.a.a.a.a.a.a.a.a.a.a.",
"a.a.a.a.a.a.a.a.a.a.a.a.a.a.a.a.a.a.a.a.a.a.a.a.a.a.a.a.a.a.a.a.a.a.a.a.a.a.a.a.a.a.a.a.a.a.a.a.a.a.a.a.a.a.a.a.a.a.a.a.a.a.a.a.a.a.a.a.a.a.a.a.a.a.a.a.",
"a.a.a.a.a.a.a.a.a.a.a.a.a.a.a.a.a.a.a.a.a.a.a.a.a.a.a.a.a.a.a.a.a.a.a.a.a.a.a.a.a.a.a.a.a.a.a.a.a.a.a.a.a.a.a.a.a.a.a.a.a.a.a.a.a.a.a.a.a.a.a.a.a.a.a.a.",
"a.a.a.a.a.a.a.a.a.a.a.a.a.a.a.a.a.a.a.a.a.a.a.a.a.a.a.a.a.a.a.a.a.a.a.a.a.a.a.a.a.a.a.a.a.a.a.a.a.a.a.a.a.a.a.a.a.a.a.a.a.a.a.a.a.a.a.a.a.a.a.a.a.a.a.a.",
"a.a.a.a.a.a.a.a.a.a.a.a.a.a.a.a.a.a.a.a.a.a.a.a.a.a.a.a.a.a.a.a.a.a.a.a.a.a.a.a.a.a.a.a.a.a.a.a.a.a.a.a.a.a.a.a.a.a.a.a.a.a.a.a.a.a.a.a.a.a.a.a.a.a.a.a.",
"a.a.a.a.a.a.a.a.a.a.a.a.a.a.a.a.a.a.a.a.a.a.a.a.a.a.a.a.a.a.a.a.a.a.a.a.a.a.a.a.a.a.a.a.a.a.a.a.a.a.a.a.a.a.a.a.a.a.a.a.a.a.a.a.a.a.a.a.a.a.a.a.a.a.a.a.",
"a.a.a.a.a.a.a.a.a.a.a.a.a.a.a.a.a.a.a.a.a.a.a.a.a.a.a.a.a.a.a.a.a.a.a.a.a.a.a.a.a.a.a.a.a.a.a.a.a.a.a.a.a.a.a.a.a.a.a.a.a.a.a.a.a.a.a.a.a.a.a.a.a.a.a.a.",
"a.a.a.a.a.a.a.a.a.a.a.a.a.a.a.a.a.a.a.a.a.a.a.a.a.a.a.a.a.a.a.a.a.a.a.a.a.a.a.a.a.a.a.a.a.a.a.a.a.a.a.a.a.a.a.a.a.a.a.a.a.a.a.a.a.a.a.a.a.a.a.a.a.a.a.a.",
"a.a.a.a.a.a.a.a.a.a.a.a.a.a.a.a.a.a.a.a.a.a.a.a.a.a.a.a.a.a.a.a.a.a.a.a.a.a.a.a.a.a.a.a.a.a.a.a.a.a.a.a.a.a.a.a.a.a.a.a.a.a.a.a.a.a.a.a.a.a.a.a.a.a.a.a.",
"a.a.a.a.a.a.a.a.a.a.a.a.a.a.a.a.a.a.a.a.a.a.a.a.a.a.y.9.9.9.8.8.8.8.8.8.9.r.r.t.i.i.p.p.a.a.p.a.a.p.r.r.t.p.a.a.a.a.a.a.a.a.a.a.a.a.a.a.a.a.a.a.a.a.a.a.",
"a.a.a.a.a.a.a.a.a.a.a.a.a.a.a.a.a.a.a.a.a.a.a.a.a.i.X.H H K C C Z C Z S I Y T Q %.&.2.9.t.t.t.t.t.8.W T ] 4.a.a.a.a.a.a.a.a.a.a.a.a.a.a.a.a.a.a.a.a.a.a.",
"a.a.a.a.a.a.a.a.a.a.a.a.a.a.a.a.a.a.a.a.a.a.a.a.a.i.X.F G F N N N N N C L Y U E %.%.%.9.t.t.t.t.t.5.T Y W 4.a.a.a.a.a.a.a.a.a.a.a.a.a.a.a.a.a.a.a.a.a.a.",
"a.a.a.a.a.a.a.a.a.a.a.a.a.a.a.a.a.a.a.a.a.a.a.a.a.i...F F F N N N N N V P U U W %.+.2.9.t.t.t.t.t.5.T U W 4.a.a.a.a.a.a.a.a.a.a.a.a.a.a.a.a.a.a.a.a.a.a.",
"a.a.a.a.a.a.a.a.a.a.a.a.a.a.a.a.a.a.a.a.a.a.a.a.a.y...F G F N N N N N C L Y U Y ] ] ! ] [ [ [ [ [ ! U U W 4.a.a.a.a.a.a.a.a.a.a.a.a.a.a.a.a.a.a.a.a.a.a.",
"a.a.a.a.a.a.a.a.a.a.a.a.a.a.a.a.a.a.a.a.a.a.a.a.a.i...F F F N N N N N C P U U U U Y U Y U U Y Y Y U U U W 4.a.a.a.a.a.a.a.a.a.a.a.a.a.a.a.a.a.a.a.a.a.a.",
"a.a.a.a.a.a.a.a.a.a.a.a.a.a.a.a.a.a.a.a.a.a.a.a.a.i...G G F N N N N N C P U U U U U U U U U U U U U U U W 4.a.a.a.a.a.a.a.a.a.a.a.a.a.a.a.a.a.a.a.a.a.a.",
"a.a.a.a.a.a.a.a.a.a.a.a.a.a.a.a.a.a.a.a.a.a.a.a.a.p.4. .| { P I P S N V G I T I Y I I I I I I I I R +.@.&.r.a.a.a.a.a.a.a.a.a.a.a.a.a.a.a.a.a.a.a.a.a.a.",
"a.a.a.a.a.a.a.a.a.a.a.a.a.a.a.a.a.a.a.a.a.a.a.a.a.a.a.p.p.5.G G G G N N N V N N V V V V V V V V V G y.p.p.a.a.a.a.a.a.a.a.a.a.a.a.a.a.a.a.a.a.a.a.a.a.a.",
"a.a.a.a.a.a.a.a.a.a.a.a.a.a.a.a.a.a.a.a.a.a.a.a.a.a.a.a.a.5.F F G J N N N N N N N N N N N N N N N F p.a.a.a.a.a.a.a.a.a.a.a.a.a.a.a.a.a.a.a.a.a.a.a.a.a.",
"a.a.a.a.a.a.a.a.a.a.a.a.a.a.a.a.a.a.a.a.a.a.a.a.a.a.a.a.a.8.F F G J N V C S S S S D S D D D S S D L y.a.a.a.a.a.a.a.a.a.a.a.a.a.a.a.a.a.a.a.a.a.a.a.a.a.",
"a.a.a.a.a.a.a.a.a.a.a.a.a.a.a.a.a.a.a.a.a.a.a.a.a.a.a.a.a.5.F F G J N C L U P U U U T *.9.5.@.U I Q p.a.a.a.a.a.a.a.a.a.a.a.a.a.a.a.a.a.a.a.a.a.a.a.a.a.",
"a.a.a.a.a.a.a.a.a.a.a.a.a.a.a.a.a.a.a.a.a.a.a.a.a.a.a.a.a.8.F F G G N C L U U U U U W -.t.9.*.U U Q p.a.a.a.a.a.a.a.a.a.a.a.a.a.a.a.a.a.a.a.a.a.a.a.a.a.",
"a.a.a.a.a.a.a.a.a.a.a.a.a.a.a.a.a.a.a.a.a.a.a.a.a.a.a.a.a.5.F F G J N V P Y Y U U U W 3.y.9.&.U U ] p.a.a.a.a.a.a.a.a.a.a.a.a.a.a.a.a.a.a.a.a.a.a.a.a.a.",
"a.a.a.a.a.a.a.a.a.a.a.a.a.a.a.a.a.a.a.a.a.a.a.a.a.a.a.a.a.8.F F G J B C L Y U U U U E %.3.3.+.U U ] p.a.a.a.a.a.a.a.a.a.a.a.a.a.a.a.a.a.a.a.a.a.a.a.a.a.",
"a.a.a.a.a.a.a.a.a.a.a.a.a.a.a.a.a.a.a.a.a.a.a.a.a.a.a.a.a.5.F F G J N V L U U U U U E +.%.+.o.U U ] p.a.a.a.a.a.a.a.a.a.a.a.a.a.a.a.a.a.a.a.a.a.a.a.a.a.",
"a.a.a.a.a.a.a.a.a.a.a.a.a.a.a.a.a.a.a.a.a.a.a.a.a.a.a.a.a.8.F F G K N C L U U U U U E +.%.%.o.U U ] p.a.a.a.a.a.a.a.a.a.a.a.a.a.a.a.a.a.a.a.a.a.a.a.a.a.",
"a.a.a.a.a.a.a.a.a.a.a.a.a.a.a.a.a.a.a.y.$.$.*.&.&.&.&.&.&...F F G I P U R U U U U U Y  .O.O.} U U E 3.3.3.3.3.3.3.3.3.4.p.a.a.a.a.a.a.a.a.a.a.a.a.a.a.a.",
"a.a.a.a.a.a.a.a.a.a.a.a.a.a.a.a.a.a.a.4.H H H H H H H H H G F F F G G H R U U U U U Y Y Y Y Y U U U Y Y Y Y Y E Y T Y ] i.a.a.a.a.a.a.a.a.a.a.a.a.a.a.a.",
"a.a.a.a.a.a.a.a.a.a.a.a.a.a.a.a.a.a.a.4.F F F F F G F G F G F F F F F H R U U U U U U U Y U U U U U U U U U U U U U U ! y.a.a.a.a.a.a.a.a.a.a.a.a.a.a.a.",
"a.a.a.a.a.a.a.a.a.a.a.a.a.a.a.a.p.p.y.3.H H H H H H H H H H H H K G H K R U U U U U U U U U U U U Y E Y E Y E T T U U ! r.p.p.a.a.a.a.a.a.a.a.a.a.a.a.a.",
"a.a.a.a.a.a.a.a.a.a.a.a.a.a.a.y. .K K K B B N N B B B B B B B B Z Y U U U U U U U U U U U U U U U W +.+.%.4.1.1.#.U U Y T E Q 4.a.a.a.a.a.a.a.a.a.a.a.a.",
"a.a.a.a.a.a.a.a.a.a.a.a.a.a.a.i.| G G H N N N N N N N N N N N N C R U U U U U U U U U U U U U U U W %.+.%.6.7.6.$.U U U U U W =.a.a.a.a.a.a.a.a.a.a.a.a.",
"a.a.a.a.a.a.a.a.a.a.a.a.a.a.a.y.| D H H N N N N N N N N N N N N C R I U U U U U U U U U U U U U U W %.%.*.8.6.5.$.U U U U U W =.a.a.a.a.a.a.a.a.a.a.a.a.",
"a.a.a.a.a.a.a.a.a.a.a.a.y.| ! ] ! L K G N N N N N N N N N A Y Y Y Y U U U U U U U U U U U U U U U W %.%.%.2.3.2.@.U U U U U T [ ..o.*.a.a.a.a.a.a.a.a.a.",
"a.a.a.a.a.a.a.a.a.a.a.a.r.P H H P B B B N N N N N N N N N S Y Y Y U U U U U U U U U U U U U U U U E %.%.%.%.%.%.O.U U U U U U U U T  .a.a.a.a.a.a.a.a.a.",
"a.a.a.a.a.a.a.a.a.a.a.a.r.P F H P N N N N N N N N N N N N S U U U U U U U U U U U U U U U U U U U W %.%.%.%.%.%.o.U U U U U U U U T  .a.a.a.a.a.a.a.a.a.",
"a.a.a.a.a.a.a.a.a.a.a.a.r.P F G P N N N N N N N N N N N N S U U U U U U U U U U U U U U U U U U U E %.%.%.%.%.%.o.U U U U U U U U Y  .a.a.a.a.a.a.a.a.a.",
"a.a.a.a.a.a.a.a.a.a.a.a.r.P F H P N N N N N N N N N N N N S U U U U U U U U U U U U U U U U U U U E %.%.%.%.%.+.o.U U U U U U U U U  .a.a.a.a.a.a.a.a.a.",
"a.a.a.a.a.a.a.a.a.a.a.a.r.P F H L N N N N N N N N N N N N S U U U U U U U U U U U U U U U U U U U W +.%.%.%.%.@.X.U U U U U U U U T  .a.a.a.a.a.a.a.a.a.",
"a.a.a.a.a.a.a.a.a.a.a.a.r.P F G P N N N N N N N N N N N N S U U U U U U U U U U U U U U U U U U U W %.+.%.%.%.%.o.U U U U U U U U Y  .a.a.a.a.a.a.a.a.a.",
"a.a.a.a.a.a.a.a.a.a.a.a.0.< @   o                       @ & u u u u u u u u u u u u u u u u u u p i b c c c c v n u u u u u p 9 @ @ w a.a.a.a.a.a.a.a.a.",
"a.a.a.a.a.a.a.a.a.a.a.a.7.: . . . . . . . . . . . . . . . $ r r r r r r r r r r r r r r r r r r r y c + + + + d n r r r r r u 8 . X q a.a.a.a.a.a.a.a.a.",
"a.a.a.a.a.a.a.a.a.a.a.a.0.: . . . . . . . . . . . . . . . $ r r r r r r r r r r r r r r r r r r r y c + + + + d n r r r r r t 8 . O q a.a.a.a.a.a.a.a.a.",
"a.a.a.a.a.a.a.a.a.a.a.a.q.z 8 8 < . . . . . . . . . . . X $ r r r r r r r r r r r r r r r r r r r y c + + + + c f r r r r r u 8 . X q a.a.a.a.a.a.a.a.a.",
"a.a.a.a.a.a.a.a.a.a.a.a.0.6 = ; 5 . . . . . . . . . . . . $ r r r r r r r r r r r r r r r r r r t y c + + + + + f r r r r r u 5 . O q a.a.a.a.a.a.a.a.a.",
"a.a.a.a.a.a.a.a.a.a.a.a.0.a % - 5 . . . . . . . . . . . X $ r r r r r r r r r r r r r r r r r r r y c + + + + + f r r r r r t 8 . X q a.a.a.a.a.a.a.a.a.",
"a.a.a.a.a.a.a.a.a.a.a.a.0.a % - 5 . . . . . . . . . . . X $ r r r r r r r r r r r r r r r r r r r y M m m m m M l r r r r r r 5 . O q a.a.a.a.a.a.a.a.a.",
"a.a.a.a.a.a.a.a.a.a.a.a.0.a % - 5 . . . . . . . . . . . . $ r r r r r r r r r r r r r r r r r r r t t t t t t t t r r r r r u 8 . X q a.a.a.a.a.a.a.a.a.",
"a.a.a.a.a.a.a.a.a.a.a.a.0.a % - 5 . . . . . . . . . . . X $ r r r r r r r r r r r r r r r r r r r r r r r r r r r r r r r r u 5 . O q a.a.a.a.a.a.a.a.a.",
"a.a.a.a.a.a.a.a.a.a.a.a.0.a % - 5 . . . . . . . . . . . . $ r t r r r r r r r r r r r r r r r r r r r r r r r r r r r r r r s 8 . X q a.a.a.a.a.a.a.a.a.",
"a.a.a.a.a.a.a.a.a.a.a.a.0.a % - 5 . . . . . . . . . . . . X # # * g r r r r r r r r r r r r r r r r r r r r r r r r t e : # # @ . O q a.a.a.a.a.a.a.a.a.",
"a.a.a.a.a.a.a.a.a.a.a.a.0.a % - 5 . . . . . . . . . . . . . . . $ g r r r r r r r r r r r r r r r r r r r r r r r r r e * . . . . X q a.a.a.a.a.a.a.a.a.",
"a.a.a.a.a.a.a.a.a.a.a.a.0.a % - 5 . . . . . . . . . . . . . . . $ j r r r r r r r r r r r r r t r r r r r r r r r r r e * . . . . O q a.a.a.a.a.a.a.a.a.",
"a.a.a.a.a.a.a.a.a.a.a.a.0.a % - 6 0 8 1 . . . . . . . . . . . . @ 5 0 k 0 0 0 0 0 0 0 0 0 0 0 0 0 0 0 0 0 0 0 0 0 0 0 5 @ . . . . X q a.a.a.a.a.a.a.a.a.",
"a.a.a.a.a.a.a.a.a.a.a.a.0.a % % = = ; > . . . . . . . . . . . . . . X X X X X X X X O X X X X X X X X X O X X X . X X X . . . . . O q a.a.a.a.a.a.a.a.a.",
"a.a.a.a.a.a.a.a.a.a.a.a.0.a % % % % = > . . . . . . . . . . . . . . . . . . . . . . . . . . . . . . . . . . . . . . . . . . . . . X q a.a.a.a.a.a.a.a.a.",
"a.a.a.a.a.a.a.a.a.a.a.a.w.x k h 3 % = > < < : @ . . . . . . . . . . . . . . . . . . . . . . . . . . . . . . . . . . . . . . X : 4 7 ^ a.a.a.a.a.a.a.a.a.",
"a.a.a.a.a.a.a.a.a.a.a.a.a.u.u.0.~ % % % = = = < . . . . . . . . . . . . . . . . . . . . . . . . . . . . . . . . . . . . . . # ) u.u.u.a.a.a.a.a.a.a.a.a.",
"a.a.a.a.a.a.a.a.a.a.a.a.a.a.a.e./ % % % % = = , . . . . . . . . . . . . . . . . . . . . . . . . . . . . . . . . . . . . . . & ` a.a.a.a.a.a.a.a.a.a.a.a.",
"a.a.a.a.a.a.a.a.a.a.a.a.a.a.a.e./ % % % % = = < . . . . . . . . . . . . . . . . . . . . . . . . . . . . . . . . . . . . . . & ` a.a.a.a.a.a.a.a.a.a.a.a.",
"a.a.a.a.a.a.a.a.a.a.a.a.a.a.a.a.q.<.,.' % % = 2 2 2 2 2 2 2 2 2 2 2 2 2 2 > 3 3 2 2 2 2 2 2 2 2 2 2 3 > 2 2 > 3 3 > > 0 ;.>.>.e.a.a.a.a.a.a.a.a.a.a.a.a.",
"a.a.a.a.a.a.a.a.a.a.a.a.a.a.a.a.a.a.a.:.% % % = % = = % = = % = = % = = = % % % % = = % = = % = = % = % = = = = = % % g q.a.a.a.a.a.a.a.a.a.a.a.a.a.a.a.",
"a.a.a.a.a.a.a.a.a.a.a.a.a.a.a.a.a.a.a.:.= % % % % % % % % % % % % % % % % % % % % % % % % % % % % % % % % % % % % % % 3 e.a.a.a.a.a.a.a.a.a.a.a.a.a.a.a.",
"a.a.a.a.a.a.a.a.a.a.a.a.a.a.a.a.a.a.a.0.( ( ( ( ( ( ( ( ( ( ( ( ( ( ( ( ( ( ( ( ( ( ( ( ( ( ( ( ( ( ( ( ( ( ( ( ( ( ( _ u.a.a.a.a.a.a.a.a.a.a.a.a.a.a.a.",
"a.a.a.a.a.a.a.a.a.a.a.a.a.a.a.a.a.a.a.a.u.u.a.u.a.u.u.a.u.a.u.u.u.a.u.a.u.u.a.u.u.u.u.a.u.a.u.a.u.u.a.u.u.u.u.a.u.a.u.a.a.a.a.a.a.a.a.a.a.a.a.a.a.a.a.a.",
"a.a.a.a.a.a.a.a.a.a.a.a.a.a.a.a.a.a.a.a.a.a.a.a.a.a.a.a.a.a.a.a.a.a.a.a.a.a.a.a.a.a.a.a.a.a.a.a.a.a.a.a.a.a.a.a.a.a.a.a.a.a.a.a.a.a.a.a.a.a.a.a.a.a.a.a.",
"a.a.a.a.a.a.a.a.a.a.a.a.a.a.a.a.a.a.a.a.a.a.a.a.a.a.a.a.a.a.a.a.a.a.a.a.a.a.a.a.a.a.a.a.a.a.a.a.a.a.a.a.a.a.a.a.a.a.a.a.a.a.a.a.a.a.a.a.a.a.a.a.a.a.a.a.",
"a.a.a.a.a.a.a.a.a.a.a.a.a.a.a.a.a.a.a.a.a.a.a.a.a.a.a.a.a.a.a.a.a.a.a.a.a.a.a.a.a.a.a.a.a.a.a.a.a.a.a.a.a.a.a.a.a.a.a.a.a.a.a.a.a.a.a.a.a.a.a.a.a.a.a.a.",
"a.a.a.a.a.a.a.a.a.a.a.a.a.a.a.a.a.a.a.a.a.a.a.a.a.a.a.a.a.a.a.a.a.a.a.a.a.a.a.a.a.a.a.a.a.a.a.a.a.a.a.a.a.a.a.a.a.a.a.a.a.a.a.a.a.a.a.a.a.a.a.a.a.a.a.a.",
"a.a.a.a.a.a.a.a.a.a.a.a.a.a.a.a.a.a.a.a.a.a.a.a.a.a.a.a.a.a.a.a.a.a.a.a.a.a.a.a.a.a.a.a.a.a.a.a.a.a.a.a.a.a.a.a.a.a.a.a.a.a.a.a.a.a.a.a.a.a.a.a.a.a.a.a.",
"a.a.a.a.a.a.a.a.a.a.a.a.a.a.a.a.a.a.a.a.a.a.a.a.a.a.a.a.a.a.a.a.a.a.a.a.a.a.a.a.a.a.a.a.a.a.a.a.a.a.a.a.a.a.a.a.a.a.a.a.a.a.a.a.a.a.a.a.a.a.a.a.a.a.a.a.",
"a.a.a.a.a.a.a.a.a.a.a.a.a.a.a.a.a.a.a.a.a.a.a.a.a.a.a.a.a.a.a.a.a.a.a.a.a.a.a.a.a.a.a.a.a.a.a.a.a.a.a.a.a.a.a.a.a.a.a.a.a.a.a.a.a.a.a.a.a.a.a.a.a.a.a.a.",
"a.a.a.a.a.a.a.a.a.a.a.a.a.a.a.a.a.a.a.a.a.a.a.a.a.a.a.a.a.a.a.a.a.a.a.a.a.a.a.a.a.a.a.a.a.a.a.a.a.a.a.a.a.a.a.a.a.a.a.a.a.a.a.a.a.a.a.a.a.a.a.a.a.a.a.a.",
"a.a.a.a.a.a.a.a.a.a.a.a.a.a.a.a.a.a.a.a.a.a.a.a.a.a.a.a.a.a.a.a.a.a.a.a.a.a.a.a.a.a.a.a.a.a.a.a.a.a.a.a.a.a.a.a.a.a.a.a.a.a.a.a.a.a.a.a.a.a.a.a.a.a.a.a.",
"a.a.a.a.a.a.a.a.a.a.a.a.a.a.a.a.a.a.a.a.a.a.a.a.a.a.a.a.a.a.a.a.a.a.a.a.a.a.a.a.a.a.a.a.a.a.a.a.a.a.a.a.a.a.a.a.a.a.a.a.a.a.a.a.a.a.a.a.a.a.a.a.a.a.a.a.",
"a.a.a.a.a.a.a.a.a.a.a.a.a.a.a.a.a.a.a.a.a.a.a.a.a.a.a.a.a.a.a.a.a.a.a.a.a.a.a.a.a.a.a.a.a.a.a.a.a.a.a.a.a.a.a.a.a.a.a.a.a.a.a.a.a.a.a.a.a.a.a.a.a.a.a.a."
};
