/* XPM */
static char *d098fad01a924c3afb5ef15bf6affc6cjAeM9Rofwmoxj4BY[] = {
/* columns rows colors chars-per-pixel */
"67 70 183 2 ",
"   c None",
".  c #070E04",
"X  c #071003",
"o  c #091405",
"O  c #0B1B05",
"+  c #0A140A",
"@  c #0C1A0A",
"#  c #161502",
"$  c #1A1603",
"%  c #151C04",
"&  c #1C1A05",
"*  c #1B1E09",
"=  c #0F1E11",
"-  c #201704",
";  c #221A05",
":  c #2A1E07",
">  c #221F09",
",  c #291F08",
"<  c #0E2405",
"1  c #0F2A05",
"2  c #0E220B",
"3  c #132305",
"4  c #1C2406",
"5  c #112B07",
"6  c #13250A",
"7  c #1A220C",
"8  c #122D0B",
"9  c #1C2C09",
"0  c #14310E",
"q  c #0F2113",
"w  c #112513",
"e  c #182610",
"r  c #132C13",
"t  c #1A2B14",
"y  c #142718",
"u  c #142E18",
"i  c #153414",
"p  c #193316",
"a  c #173916",
"s  c #183A16",
"d  c #173519",
"f  c #1A351B",
"g  c #173818",
"h  c #193C1B",
"j  c #252206",
"k  c #282006",
"l  c #23240C",
"z  c #2D2209",
"x  c #212D0D",
"c  c #34240A",
"v  c #39260B",
"b  c #3D290D",
"n  c #212D12",
"m  c #3F2D10",
"M  c #263115",
"N  c #223519",
"B  c #243C1E",
"V  c #393415",
"C  c #193420",
"Z  c #1B3E23",
"A  c #422C0E",
"S  c #462F10",
"D  c #482F10",
"F  c #443212",
"G  c #4C3213",
"H  c #4B3815",
"J  c #513615",
"K  c #543917",
"L  c #5B3E1A",
"P  c #1C421D",
"I  c #1D4324",
"U  c #1F4825",
"Y  c #1E4529",
"T  c #1F4928",
"R  c #214424",
"E  c #214B25",
"W  c #20472A",
"Q  c #214C2B",
"!  c #245027",
"~  c #24522D",
"^  c #28572F",
"/  c #28592D",
"(  c #244F30",
")  c #265531",
"_  c #285734",
"`  c #275833",
"'  c #2A5C35",
"]  c #2C5E38",
"[  c #2D6135",
"{  c #2E633A",
"}  c #30673C",
"|  c #326C3F",
" . c #31693E",
".. c #316940",
"X. c #326940",
"o. c #326B40",
"O. c #326B41",
"+. c #326C40",
"@. c #336C41",
"#. c #336D41",
"$. c #336D40",
"%. c #346D40",
"&. c #346D42",
"*. c #346F42",
"=. c #346E43",
"-. c #346D44",
";. c #356F45",
":. c #336D41",
">. c #357043",
",. c #357143",
"<. c #367145",
"1. c #357244",
"2. c #367245",
"3. c #367344",
"4. c #377346",
"5. c #377247",
"6. c #377147",
"7. c #377445",
"8. c #377446",
"9. c #377546",
"0. c #377547",
"q. c #367244",
"w. c #387445",
"e. c #387647",
"r. c #387647",
"t. c #377248",
"y. c #387548",
"u. c #397748",
"i. c #397648",
"p. c #397748",
"a. c #397949",
"s. c #3A7948",
"d. c #3A794B",
"f. c #3A7B4A",
"g. c #3B7B4A",
"h. c #3B7A4C",
"j. c #3B7B4C",
"k. c #3C7D4D",
"l. c #3C7C4D",
"z. c #3C7E4D",
"x. c #3D7F4D",
"c. c #3D7C4E",
"v. c #3D7F4E",
"b. c #3E7F4F",
"n. c #3B7B4B",
"m. c #3D804E",
"M. c #3E814E",
"N. c #3E814F",
"B. c #3F824F",
"V. c #3E814F",
"C. c #3E8050",
"Z. c #3F8250",
"A. c #3F8351",
"S. c #3F8450",
"D. c #3F8251",
"F. c #408351",
"G. c #408451",
"H. c #408552",
"J. c #418552",
"K. c #418653",
"L. c #418554",
"P. c #428554",
"I. c #428754",
"U. c #428654",
"Y. c #418552",
"T. c #428854",
"R. c #428855",
"E. c #438955",
"W. c #438855",
"Q. c #438956",
"!. c #448A56",
"~. c #448B57",
"^. c #458C57",
"/. c #438A56",
"(. c #458C58",
"). c #458D59",
"_. c #468D59",
"`. c #468E59",
"'. c #478F5A",
"]. c #458C58",
"[. c #47905B",
"{. c #48925C",
"}. c #48915C",
/* pixels */
"                                                                                                                                      ",
"                                                                                                                                      ",
"                                  )                                                                   ( `                             ",
"                                ) y.                                                                ( ;.                              ",
"                                j._.                                                                t.I.                              ",
"                              Y y._.                                                              Z o.(.I.                            ",
"                              Q b.'.]                                                             W 6.'.;.Y                           ",
"                        Z Z Q <.D.(.k.'                                                     Z Z W -.c.(.D.{ Y                         ",
"                          ( h.b.W.G.N.a.'                                                     Y <.N.Q.Q.N.a.{ Y                       ",
"                      Z ( t.(.D._._.D.Q.k.' Z                                             Z W o.W.G.W.{.G.F.F.{ Z Y                   ",
"                        <.Q.D.D._.G.W.I.N.e.{                                               o.I.Q.k.W.W.Q.Q.F.a...                    ",
"                      ..<.D.I.D._.F.(.G.G.;.I                                             { @.k.W.N.W.Q.G.Q.F.h.Q 8                   ",
"                Y Z W ~ _ G.e.{ F.e.U._.<.Y i Z Z                                   Z Y Y ( ) j.k.{ k.k.N.`.n.~ i h Z I               ",
"                Z I Q ' I s.E g e.} %.(.' a ~ ) Y                                   Z Z Y ] P 9.! s | %.} K.| s Q ) Y                 ",
"                _ ] } { E ' P P ' I P e./ ~ <.{ )                                   ) ] { @.E ` E P ) W P } | R ,.| )                 ",
"              ( ] ;.%.w.| ' { | ~ 0 s ! ~ [ =.o.{ ) )                             W ' ,.@.0.@.] ] | ' a 0 E ~ ' %.o.| ) )             ",
"              W ~ ` +.m.0.9.0.j.{ U ~ E ~ } [ ' %.} ` Q Y                         Y ! ' } j.0.9.<.n.} E ~ ~ ! } { ` | | ' ~ Y         ",
"              0 P { a.' [ 9.S.,.` ,.{ <.,.| o.` { ,.~ ~                             a ` j.{ ' @.G.n.' | } o.1.{ ,.` ` r.` !           ",
"          Q h a ) [ ) U ` S.a.` } 9.{ a.@._ ~ ~ | | E i                         I i U ' ' U ~ D.l.] { <.} ,.0._ ` T { 1.~ i           ",
"        ' Q W h P ) g P { 9.{ { S.=.) ' ,.{ h P ~ P h I Y I                   ) Y I P ) Z a ` ,.} ] k.e._ ) o.o.U s ! T h I Y Y       ",
"      Y Y Q { @.' I i Q { ' Q ~ D.+.[ ) ` { ) h 0 P ,.{ ] Q Y       W     Y Y Q ' ,.' E i U ] { ~ Q 0.0.{ ) ) ] ` I 0 s | { { ~ Y     ",
"    Z T ' @.=.<.+.T U Q _ T T Q 9.` ` ~ Y T ~ T T ~ | s.0.{       Y o.    Y ) } ,.| <.~ T ~ ' T U W +.{ _ ) T T ~ Q U ~ } e.e.|       ",
"      =.0.@.<.S.f._ Q Q T 0 0 U ] T ` P P ` ' { | e.e.} | y.a.    <.I.    o.9.,.@.N.S.] T T T a 0 P ' ) ) T s ) ' ' { e.e.| | ,.a.    ",
"    Z ) ` | S.Q.m.,.[ ` T I 0 0 T g I U T Q _ } k._.Q.e.{ { ` Q Y <.(.    Q ) { k.Q.N.9.{ ' ~ I 0 0 I s h T U Q ) } a.^.^.s.} { ' ~   ",
"        ' { k.Q.e.} @.a.T T Y I T U ) ' ~ T ` } 9.D.A.f.P Q     Y y.{...    _ { a.).f.| } f.) T I I U I ~ ] ` T ) { | m.S.S.E T       ",
"        W P [ 9.) { F.a.~ ' | ' T _ ,.} ' ' } @.[ [ 1.a.Y Y Y Y { k._.a.) Z W I ! 0.' _ m.m.) `  .{ Q ) } +.[ ' { @.{ { +.j.! s E s   ",
"    Z ( h a W T P | j.] ' 9.I.9.' { m.f.} +.a.f.} T _ ] T Q Y o.h.I.G.N.,.) f i I ~ s [ j.{ ' ,.S.f.{ ' 0.D.+.} r.f.+.T ) ' ~ I ~ I h ",
"    Q Q ~ E i i E ,.[ I 9.Q.G.<.{ +.D.Q.,.| } ,.} g g g Z ( ] Q.G._._.N.S.y.Q Z I i I ,.} U } S.S.a.} | m.S.a.} | +.1.P a a Z P s Y Y ",
"    Q ' { Q i i Q { P P e._.<.' | f.9.S.,.` T ~ ` 0 8 P T { S.Q.N.(.(.I.Q.G.<.) Z u I } U P ,.S.f.[ { f.a.m.f.` ! U ` d 8 s T ! g I I ",
"  h E { ' W Y h I E i U ,.G.' ~ 9.r.{ j.o.( s 0 s d g ( ] 1.Q.S.N.(.G.Q.G.N.n.) g Z P T i P } S...Q +.f.} ,.a.( I 0 s d d T _ } ] W i ",
"  I I I U ~ Q ) ' T I P ,.[ P Q } { U ' } ~ s 0 8 d Z Y ` _ c.S.;.G.b.I.(.b.' i d Y T T I g } { U T { { ~ ! | ` s i 8 i T h T T } _ u ",
"8 5 o 8 E ~ ~ ,.7.' Q Y E 8 0 P T U 0 s ` P s U g I Z Y ) T j.' I y.%.t.'.} g P ( Y ` [ ) U ~ 0 8 h T T s 0 ~ ! i U d I ~ s I 0 g I w ",
"    i E ~ P ' f.r.} Q T i 8 h i d i 8 8 R P g ( ) Y ( ' | P { P a [ / ~ e.[ P | [ ` ,.,.Q T i 8 s d d d r 0 h E i W ' Q ) ) ) a @ + 2 ",
"  5 I E P / e.} ! E U +.U i T I i Z Y Y a g W ] { ' 9.<.| { ~ ' } Q 0 8 / ' ' e.,.[ ( T g } ~ d I T d g Z I h a I ' 9.9.Q Q I Y i d Y ",
"    8 @ E ' Q R g ) | ) Y ' 9.' Y ' Q Q ` Q I Y Q ' ' { N.a.9.+.e.{ P E E E { ' [ ,.{ ` T T Y ) ,.{ U ) ) Y ) ~ Y Y { 9.{ U i 8 h I i ",
"    8 g i R h a Y ~ ) T _ 9.f.a.' @.{ ~ | { ) ) E h ' k.| { @.S.l.' } ] { | @.%.` ' ,.) ` T ) +.f.f.{ } | ~ { @.) ) { { 9.{ Y Z Q h 8 ",
"  0 P Y i g g g I a T ' @.~ [ a.a.| ,._ ( o.{ I s Q [ { Q ` D.m.{ ' r.} e.;.' ' ) { 9./ g ( o.` _ 9.f.| ,.{ Q { { ) <.{ ' <.,.Q Q Y 0 ",
"5 5 0 0 g W I g 0 0 Q | [ ` @.{ e.) ) o._ ` ` Z g P ' I g ' a.+.' j.9._ [ <.{ I P [ ~ a Z Y Q ) | { ,.] ~ { { ) } s ] o.s w R a 0 0 0 ",
"    % % h Q g 8 i g h E P | { ) ,.~ ~ ,.' Y Y ' { ~ U i U { } ` ) m.9.' ) ] { ~ h i P [ _ ` T T { ~ } ` W | [ P ) d = y f d r % % j   ",
"  $ : n a i i i 2 q d 8 0 ` P i ' h a W Q Q { @.%.| U I T { T T T 9.{ ' _ T Q ~ U P U } 9.9.[ Q P i ~ U i E [ [ Q r O O i Q R 8 # v A ",
"  D b p 3 3 8 i d y 8 @ h Z + o h @ o C { <.,.,.f.j.) T Q ~ i g T { ) ) U s ( ' ` [ +.,.,.| 1.,.y X f y X u ` Y 6 8 i 1 8 I T i 3 F G ",
"  K c & $ % 8 h Z 0 < 2 Z i O + = @ o h _ { | a.Q.D.@.` _ T h 8 i ~ h U I I Q ' } a.S.S.9.} +.{ C @ @ @ o r h 8 O 0 Z i 8 C t i x F   ",
"  A c $ # * p f r 8 a h i 1 i i @ < i i a U { N.^.a.@.| ,.Q T s g I P T ` ) T ~ } a.).S.m.! ) P U h 2 < 0 0 1 8 i 0 Y Y d i t t l v G ",
"    A z $ e 8 # 4 P W Y i i Z d 0 0 h i 8 I ~ { D.{ ] a.D.) ) ] _ T ) { } ' ) ' o.{ @.a.m.P g s g g 0 8 h d 8 f g 8 I ) Y h f > : b A ",
"    v : & % % & f E W Y W W Z i 5 I Y d h I i E ' Y [ S.| ` | m.,._ ' a.r.} { 9.a.{ Q [ } ( P ! s r 8 s R d i Y I i I Q ~ Y 4 c A A   ",
"    v : : > $ e i 8 C Y ) Q Z Z i W Q Y Q U P Z i P @.| T } N.^.f.} } m.S.,.| 9.9.,.I P I I U U T Y d U ~ h d Y ) Y Y f f 6 & A A b   ",
"    v S G S - % 4 % i Y E h 8 g f R E ~ ) { ! 0 i Q | ! P | ^.f.} { r.f.Q.a.' ) ) [ 0 8 i I P i T I g I Q W f Z ) ) R & 3 > v K G     ",
"      v b : & : : 7 B R 8 6 5 6 > & 8 Y { { T I h P ! a U | S.} Q 9.f.| j.9.T I i I g i ~ ~ | Q Y i 1 % B B - * Z I 5 $ ; A b A b     ",
"          c b A v z z m & $ & $ $ # h Q ~ Q Q ~ T ) Y C s 7.7.~ T @.| ~ { ,./ h 8 8 i I Z ~ ~ | Q r % # N B # $ & & $ c v D           ",
"                  G J b v A A v & 3 0 @ 6 P ~ ! { =.` ~ Y / s 0 I ~ ~ s P ` T a P 0 Z W i I a Q Q = # , m c ; c v v ; v               ",
"                          b     v     < h ~ U ! f.f.@.~ I i 8 g d h a 8 8 P U i T Q W ) ~ Q r @ + 2 j c   v v     b S                 ",
"                                    5 P ~ P ! 7.9.[ ~ P } T 0 Z h i g Z h h g I ' 9.} Q ~ E E 8 u I a                                 ",
"                                      a w R [ ` ~ a Q { ' W Q { ` I T ( T Q Y I ~ } 0._ Y r i h Z g 8                                 ",
"                                      5 r g E I a h ) ] Q ~ =.j.,._ { ] ~ { { ~ ) [ @.<._ h g W g 8                                   ",
"                                      h I i i h a U P T ) | ' { a.,.,.=._ ` | { ) ,.{ } 6.} W ) I i                                   ",
"                                    5 a g i I I g a 8 T | { ( { o.0.{ ] { ) { [ I @.} P R _ g g a 8                                   ",
"                                    8 3 % g ( Y i 8 i Z ` U { ,.) ,.` T =.` E ` d C I i q r 3 3 4                                     ",
"                                      ; > g h i 8 1 y i i 0 { ~ h [ T P ' ' ! E r X @ f T g 3 # v b                                   ",
"                                    z v M r 3 0 d r q i < i T 2 O I r O h { ' d 8 8 1 8 Q T 0 % F A                                   ",
"                                    L b 4 % % 5 d Z a < + Z h o X y @ . i I r o 0 Z 8 8 Z f i 9 H                                     ",
"                                    D c $ # # t h d 8 8 i g 8 0 8 @ O 1 8 1 8 8 8 I Z i f 7 f z A                                     ",
"                                    v A z # e i 3 % i Y T r 0 h C 8 8 h i 1 d d i Y ) Z i f * ; v A                                   ",
"                                      v v ; % 3 $ e Q Q Y Z I Z d 1 g I d d I h i Y ) ~ Y 4 c A A                                     ",
"                                      v : $ & # 7 d i I I ) Q I Z i I T d d Y T Z Z Z Z 8 & A A b                                     ",
"                                      v b G S ; & 6 % i I ~ Y 0 h C Q ~ R Z W ) ) R * 6 & c K G                                       ",
"                                        b A z $ > k * Z W i 0 1 8 l 7 R B > t Q U 8 % & v b G A                                       ",
"                                            z v b v , l V & % % % $ # B N $ $ 7 4 & : c G                                             ",
"                                                  A A F b z v v c $ ; V z & : c : - v                                                 ",
"                                                            A G   z c   c c   b S c                                                   ",
"                                                                                b                                                     "
};
