/* XPM */
static char *_561d01081d24a58d4f03442da840a4b7GE5w936tA2xYWjI[] = {
/* columns rows colors chars-per-pixel */
"43 50 251 2 ",
"   c None",
".  c #151220",
"X  c #151421",
"o  c #241729",
"O  c #25172B",
"+  c #251C2A",
"@  c #261F2C",
"#  c #261C2E",
"$  c #271E2F",
"%  c #29182C",
"&  c #1F2938",
"*  c #26202F",
"=  c #272030",
"-  c #272130",
";  c #262230",
":  c #272231",
">  c #272331",
",  c #282131",
"<  c #292330",
"1  c #282331",
"2  c #282332",
"3  c #282432",
"4  c #2B2234",
"5  c #2B2334",
"6  c #2A2535",
"7  c #2A2634",
"8  c #2B2735",
"9  c #2B2636",
"0  c #2C2435",
"q  c #2C2536",
"w  c #2C2736",
"e  c #2D2736",
"r  c #2C2737",
"t  c #2F263A",
"y  c #2B2A39",
"u  c #2D2838",
"i  c #2D2839",
"p  c #2E2939",
"a  c #2E283A",
"s  c #2E293A",
"d  c #2F2A3B",
"f  c #2D2F3C",
"g  c #33223C",
"h  c #36223F",
"j  c #302A39",
"k  c #312C3A",
"l  c #312D3B",
"z  c #302B3D",
"x  c #312B3D",
"c  c #322E3C",
"v  c #322C3F",
"b  c #322D3F",
"n  c #342D3D",
"m  c #2E333F",
"M  c #34303E",
"N  c #362441",
"B  c #372842",
"V  c #372843",
"C  c #362B43",
"Z  c #332D40",
"A  c #332D41",
"S  c #372C44",
"D  c #372D44",
"F  c #372F45",
"G  c #362D46",
"H  c #362F47",
"J  c #382C45",
"K  c #382F46",
"L  c #392F46",
"P  c #392F47",
"I  c #3A2F47",
"U  c #2A3649",
"Y  c #363044",
"T  c #373045",
"R  c #373146",
"E  c #393047",
"W  c #383147",
"Q  c #393147",
"!  c #383247",
"~  c #393247",
"^  c #35344A",
"/  c #383048",
"(  c #383248",
")  c #393248",
"_  c #393348",
"`  c #3A3348",
"'  c #3A3249",
"]  c #3A3349",
"[  c #3B334A",
"{  c #3A3449",
"}  c #3B3449",
"|  c #3B344A",
" . c #3B354A",
".. c #3D3448",
"X. c #3C364A",
"o. c #3D374B",
"O. c #3D374C",
"+. c #3A3A4C",
"@. c #3B3A4D",
"#. c #3B3B4E",
"$. c #3E384C",
"%. c #393D4F",
"&. c #3C3E50",
"*. c #3F3F54",
"=. c #433E4B",
"-. c #40394D",
";. c #483C4A",
":. c #453A51",
">. c #413D50",
",. c #443E52",
"<. c #453F53",
"1. c #493D54",
"2. c #4B3F58",
"3. c #34424B",
"4. c #36474F",
"5. c #3D575C",
"6. c #3D585D",
"7. c #3E5B5F",
"8. c #46404D",
"9. c #47434F",
"0. c #514645",
"q. c #554B4B",
"w. c #464150",
"e. c #434254",
"r. c #444154",
"t. c #464054",
"y. c #474054",
"u. c #4A4250",
"i. c #484450",
"p. c #4A4652",
"a. c #4B4753",
"s. c #494356",
"d. c #4B4655",
"f. c #4A4457",
"g. c #4C4759",
"h. c #4D475A",
"j. c #434D5B",
"k. c #444D5F",
"l. c #454D5F",
"z. c #4E485B",
"x. c #4E495C",
"c. c #4F495C",
"v. c #504A5D",
"b. c #524C5F",
"n. c #524D5F",
"m. c #534D5F",
"M. c #40545A",
"N. c #4A535D",
"B. c #5D5455",
"V. c #414D60",
"C. c #464E60",
"Z. c #534D60",
"A. c #544D60",
"S. c #544E61",
"D. c #554F61",
"F. c #5A4E64",
"G. c #455161",
"H. c #485164",
"J. c #495467",
"K. c #435B62",
"L. c #465B63",
"P. c #435E64",
"I. c #455E67",
"U. c #575163",
"Y. c #575465",
"T. c #585264",
"R. c #585364",
"E. c #595465",
"W. c #595466",
"Q. c #5A5466",
"!. c #5A5567",
"~. c #5B5667",
"^. c #5C5963",
"/. c #5C5668",
"(. c #5E596A",
"). c #5F596B",
"_. c #5F5A6B",
"`. c #625D68",
"'. c #635E6A",
"]. c #605B6C",
"[. c #625D6E",
"{. c #635E6E",
"}. c #406063",
"|. c #436064",
" X c #44626E",
".X c #49616C",
"XX c #4B646D",
"oX c #476A6E",
"OX c #4D6B6E",
"+X c #53626B",
"@X c #57666C",
"#X c #54686D",
"$X c #4D6670",
"%X c #456D71",
"&X c #496B70",
"*X c #4A6C71",
"=X c #496F73",
"-X c #556B76",
";X c #586B70",
":X c #487172",
">X c #4B7074",
",X c #497274",
"<X c #4B7475",
"1X c #5C7377",
"2X c #52737B",
"3X c #557B7C",
"4X c #656070",
"5X c #6E6A79",
"6X c #696F7D",
"7X c #657574",
"8X c #717072",
"9X c #91837E",
"0X c #5B878C",
"qX c #5B8D8F",
"wX c #5C8E90",
"eX c #5C9A9C",
"rX c #648587",
"tX c #668487",
"yX c #6D8583",
"uX c #658788",
"iX c #6A8689",
"pX c #7C8C8A",
"aX c #639C9E",
"sX c #659D9F",
"dX c #6D999D",
"fX c #649DA0",
"gX c #659EA0",
"hX c #679EA0",
"jX c #62A3A5",
"kX c #69A4A6",
"lX c #6AA5A7",
"zX c #73A4A3",
"xX c #7AAAAB",
"cX c #7AACAE",
"vX c #808283",
"bX c #A19C91",
"nX c #83B0B1",
"mX c #86B1B3",
"MX c #87B4B5",
"NX c #89B6B7",
"BX c #95B7B4",
"VX c #AAA6A3",
"CX c #AEB6AB",
"ZX c #B9B3AE",
"AX c #A9BEB5",
"SX c #AEC4BE",
"DX c #D0C0AC",
"FX c #D7CAB7",
"GX c #D9CBB7",
"HX c #DDCDB8",
"JX c #E5DAC8",
/* pixels */
"                                                                                      ",
"                                                                                      ",
"                                                                                      ",
"                                      ].                                              ",
"                                    (.o.n.{.                                          ",
"                                      z. . .v.                                        ",
"                                        c.' ' c.                                      ",
"                                        {. . . .].                                    ",
"                                          z. . .n.                                    ",
"                                          {. .( o.(.                                  ",
"                                          4X . .' n.                                  ",
"                                          F.' ' ' L Y.                                ",
"                                      ;XL.j.#.N h *.XXM.j =.                          ",
"                                  p.l 0 4.P.P.J.H.2X*X@ * 8 l w.                      ",
"                              9.c y < = = + P.qXwX&X< 4 r r d ' z.                    ",
"                            d.8 = = = 8 8 4 d z d d d R ~ ~ ~ '  .Z.                  ",
"                          Q. .d r 8 8 A ~ R H C C S H L ~ ' ( ( $.Q.                  ",
"                          n.~ ~ R R H L L ~ H H ( ( %.&.r.c.c.g.Q.                    ",
"                          _.$.'  .y.r.#.%.#.>.$...N.OXXXtX                            ",
"                            /.s.h.  iX*X*X%XpX8XB.bXpXI.xX                            ",
"                                    nXsXaXeXSXVX9XJXZX-XcX                            ",
"                                    NXlXlXjXAXFXDXHXGXCXMX                            ",
"                                    mXhXhXfXzXyXq.0.7XBX                              ",
"                                    6XC.k.k.V.U X . & +X                              ",
"                                  5X:.C N C C C z 3 @ ;.                              ",
"                                  Q.~ _ _ ' ~ ' A < > Y ^.                            ",
"                                  y._ _ _ _ R  .c = = 3 p.                            ",
"                                Q.' _ _ _ _  .R ( d 8 = p.                            ",
"                                Q. .R  .R  .R  . .A > > p.                            ",
"                                d.(  .R  .R  .R ' A 3 = p.                            ",
"                              U.R  .R  .R  .~ ~ ' A 3 8 p.                            ",
"                              Y. .R  .R  .R  . .Y u = < p.                            ",
"                              g._ _ _ _ _ _ _  .c > > > p.                            ",
"                            S.~ _ _ _ _ _ _ ' Y t = 8 = u.                            ",
"                            Z.' _ _ _ _ _ ~ ' z = 2 @ f @X                            ",
"                            n. ._ _ _ _ _  .R d = O y 6.uX                            ",
"                              ,.' (  .' L g % o U 3.5.<XrX                            ",
"                                w.' ( H C..XK.N.#X<X<X3X                              ",
"                                  R.R.1.$X0XdX    |.7.1X                              ",
"                                      (.' 2.    `.0 n '.                              ",
"                                        S.        9.                                  ",
"                                                                                      ",
"                                                                                      ",
"                                                                                      ",
"                                                                                      ",
"                                                                                      ",
"                                                                                      ",
"                                                                                      ",
"                                                                                      ",
"                                                                                      "
};
