/* XPM */
static char *_f357d4d58d24eada194521575b4245dQoAa2xFB5laLHAgH[] = {
/* columns rows colors chars-per-pixel */
"35 70 108 2 ",
"   c None",
".  c #282332",
"X  c #292433",
"o  c #292434",
"O  c #2A2534",
"+  c #2A2535",
"@  c #2B2635",
"#  c #2B2636",
"$  c #2D2839",
"%  c #2E293A",
"&  c #2F2A3B",
"*  c #312C3E",
"=  c #322C3F",
"-  c #332E41",
";  c #342E41",
":  c #342F42",
">  c #353043",
",  c #363044",
"<  c #363145",
"1  c #373146",
"2  c #383246",
"3  c #323F47",
"4  c #393348",
"5  c #3A3A4C",
"6  c #3B3C4D",
"7  c #34424A",
"8  c #35444C",
"9  c #36444D",
"0  c #3D4653",
"q  c #3D4955",
"w  c #3E4E58",
"e  c #3B5157",
"r  c #395256",
"t  c #3A5458",
"y  c #3D555B",
"u  c #48464B",
"i  c #4D4648",
"p  c #404A58",
"a  c #414C5A",
"s  c #414E5B",
"d  c #40555D",
"f  c #41585F",
"g  c #535156",
"h  c #595152",
"j  c #675F5B",
"k  c #425A61",
"l  c #465A65",
"z  c #595860",
"x  c #406063",
"c  c #436367",
"v  c #446166",
"b  c #426466",
"n  c #436567",
"m  c #45676A",
"M  c #456A6C",
"N  c #466C6E",
"B  c #466D6E",
"V  c #476E70",
"C  c #4A6C71",
"Z  c #487071",
"A  c #50787C",
"S  c #50797D",
"D  c #527A7E",
"F  c #636067",
"G  c #6C6D69",
"H  c #6A686E",
"J  c #726969",
"K  c #79777A",
"L  c #988E7F",
"P  c #547A80",
"I  c #547B81",
"U  c #537D81",
"Y  c #527F81",
"T  c #5B8B8E",
"R  c #5D8D91",
"E  c #5F9195",
"W  c #62989B",
"Q  c #63999C",
"!  c #649A9C",
"~  c #669EA0",
"^  c #67A0A2",
"/  c #68A2A4",
"(  c #79A7A6",
")  c #818C88",
"_  c #9C978D",
"`  c #9F9F99",
"'  c #80A09D",
"]  c #96A29D",
"[  c #A9A397",
"{  c #A0A09A",
"}  c #B1A493",
"|  c #BAAD9D",
" . c #B8AC9E",
".. c #85AAA8",
"X. c #85ABA8",
"o. c #A2A2A2",
"O. c #B5AFA2",
"+. c #BCB0A2",
"@. c #B9B9B1",
"#. c #B8BEB1",
"$. c #BCC6BC",
"%. c #D8CDB8",
"&. c #E2D2BB",
"*. c #C0CFC9",
"=. c #E4D8C4",
"-. c #E7DECD",
";. c #E7DFCF",
":. c #ECECE1",
/* pixels */
"                        4 4                                           ",
"                      4 4 4 4                                         ",
"                      4 4 4 4 4                                       ",
"                      4 4 4 4 4 4                                     ",
"                          4 4 4 4 4                                   ",
"                          4 4 4 4 4 4                                 ",
"                          4 4 4 4 4 4 4                               ",
"                          4 4 4 4 4 4 4                               ",
"                          4 4 4 4 4 4 4                               ",
"                              4 4 4 4 4 4 4                           ",
"                              4 4 4 4 4 4 4                           ",
"                              4 4 4 4 4 4 4                           ",
"                              4 4 4 4 4 4 4 4                         ",
"                              4 4 4 4 4 4 4 4                         ",
"                      Z Z 5 4 4 4 4 4 4 4 4 4 m M . .                 ",
"                      x n q 0 0 6 4 4 4 4 p l c x . .                 ",
"                . . . . . N Z Z d 4 4 4 4 I / w . . . . . . . .       ",
"          . . . . . . . . r t t C I I I I D A 3 . . . . . X * - 4     ",
"          . . . . . . . . . . . Y / / / ^ A . . . . . X . O 4 4 4     ",
"      . . . . . . . . . . . . . 8 y y y y 7 . - , , , , , , 4 4 4 4 4 ",
"      O X . . . . . . X O O O O O O O O O O O , 4 4 4 4 4 4 4 4 4 4 4 ",
"  4 4 4 ; . . . . . . - 4 4 4 4 4 4 4 4 4 4 4 4 4 4 4 4 4 4 4 4 4 4 4 ",
"  4 4 4 , & & & & & & > 4 4 4 4 4 4 4 4 4 4 4 4 4 4 4 4 4 4 4 4 4 4 4 ",
"  4 4 4 4 4 4 4 4 4 4 4 4 4 4 4 4 4 4 4 4 4 4 4 4 4 4 4 4 4 4 4       ",
"      4 4 4 4 4 4 4 4 4 4 4 4 4 4 4 4 4 2 w v c v v k                 ",
"      4 4 4 4 4 4 4 4 4 4 4 4 4 4 4 4 4 2 d C Z Z Z Z                 ",
"                    V V V V V V ) ] u i _ _ { g s ^ ^                 ",
"                    Y Y Y Y Y Y ] @.g h } +.@.F s / /                 ",
"                    / / / / / / *.:.H J &.;.:.K p / /                 ",
"                    / / / / / / %.-.O. .&.=.;.+.[ / /                 ",
"                    / / / / / / #.&.&.&.&.&.&.&.%./ /                 ",
"                    / / / / / / / ..G j j j j ' ..                    ",
"                    ! ! ! ! ! ! ! ! 9 O . . . T W                     ",
"                    1 4 1 4 4 4 4 4 4 , . . . . .                     ",
"                  4 4 4 4 4 4 4 4 4 4 , . . . . .                     ",
"                4 4 4 4 4 4 4 4 4 4 4 , . . . . . . .                 ",
"                4 4 4 4 4 4 4 4 4 4 4 1 . . . . . . .                 ",
"                4 4 4 4 4 4 4 4 4 4 4 , . . . . . . .                 ",
"                4 4 4 4 4 4 4 4 4 4 4 1 . . . . . . .                 ",
"                4 4 4 4 4 4 4 4 4 4 4 1 & O . . . . .                 ",
"            4 4 4 4 4 4 4 4 4 4 4 4 4 4 4 & o . . . .                 ",
"            4 4 4 4 4 4 4 4 4 4 4 4 4 4 4 - . . . . .                 ",
"            4 4 4 4 4 4 4 4 4 4 4 4 4 4 4 - . . . . X                 ",
"            4 4 4 4 4 4 4 4 4 4 4 4 4 4 4 & . . . . .                 ",
"            4 4 4 4 4 4 4 4 4 4 4 4 4 4 4 - . . . . .                 ",
"            4 4 4 4 4 4 4 4 4 4 4 4 4 4 4 & . . . . .                 ",
"            4 4 4 4 4 4 4 4 4 4 4 4 4 1 - $ . . . . X                 ",
"            4 4 4 4 4 4 4 4 4 4 4 4 1 > . . . . . . .                 ",
"          4 4 4 4 4 4 4 4 4 4 4 4 4 4 < . . . . . . .                 ",
"          4 4 4 4 4 4 4 4 4 4 4 4 4 4 , . . . . . . X                 ",
"          4 4 4 4 4 4 4 4 4 4 4 4 4 4 , . . . . . . .                 ",
"          4 4 4 4 4 4 4 4 4 4 4 4 4 > * . . . . . . X                 ",
"          4 4 4 4 4 4 4 4 4 4 4 4 4 @ X . . . . . . X                 ",
"          4 4 4 4 4 4 4 4 4 4 4 4 4 @ X . . . . X                     ",
"          4 4 4 4 4 4 4 4 1 4 4 4 4 @ . . . . . .                     ",
"                4 4 4 4 4 ~ ~ ~ ! ^     N N N N N                     ",
"                4 4 4 4 4 R E E ! /     n c n c n                     ",
"                      4 4 4 4 4         . . . . .                     ",
"                      4 4 4 4           . . . .                       ",
"                      4 4 4 4           . . .                         ",
"                                                                      ",
"                                                                      ",
"                      o.o.o.o.o.o.o.o.o.o.o.o.                        ",
"                      o.o.o.o.o.o.o.o.o.o.o.o.o.                      ",
"                    o.o.o.o.o.o.o.o.o.o.o.o.o.o.o.                    ",
"                    o.o.o.o.o.o.o.o.o.o.o.o.o.o.o.                    ",
"                    o.o.o.o.o.o.o.o.o.o.o.o.o.o.o.                    ",
"                      o.o.o.o.o.o.o.o.o.o.o.o.                        ",
"                        o.o.o.o.o.o.o.o.o.o.o.                        ",
"                                                                      "
};
