/* XPM */
static char *_161edfcc468427cee932564363640faiOQPiZFEpqzbaUFo[] = {
/* columns rows colors chars-per-pixel */
"36 70 124 2 ",
"   c None",
".  c #282332",
"X  c #292433",
"o  c #282533",
"O  c #292434",
"+  c #2B2636",
"@  c #2D2738",
"#  c #2D2839",
"$  c #2E293A",
"%  c #2F2A3B",
"&  c #2F2A3C",
"*  c #312B3D",
"=  c #322D3F",
"-  c #2D333E",
";  c #2D343E",
":  c #2E353F",
">  c #322D40",
",  c #332D40",
"<  c #332E41",
"1  c #342F42",
"2  c #352F43",
"3  c #373145",
"4  c #383247",
"5  c #393347",
"6  c #303943",
"7  c #393348",
"8  c #393449",
"9  c #393549",
"0  c #3A364A",
"q  c #3B3D4E",
"w  c #34474D",
"e  c #35484E",
"r  c #3C4150",
"t  c #364B51",
"y  c #3E4B56",
"u  c #3A4F56",
"i  c #3E4E58",
"p  c #395155",
"a  c #3A5357",
"s  c #3F585E",
"d  c #3F5A5F",
"f  c #3F5F62",
"g  c #4A434F",
"h  c #4D4A55",
"j  c #534C54",
"k  c #54525B",
"l  c #415C62",
"z  c #425E64",
"x  c #416164",
"c  c #426065",
"v  c #436166",
"b  c #426466",
"n  c #49666D",
"m  c #4B676F",
"M  c #45686B",
"N  c #46696C",
"B  c #47696D",
"V  c #466A6C",
"C  c #466D6E",
"Z  c #486A6E",
"A  c #486A6F",
"S  c #4C6971",
"D  c #496C70",
"F  c #487071",
"G  c #497172",
"H  c #4A7375",
"J  c #4C7276",
"K  c #4B7475",
"L  c #4F7278",
"P  c #4E7A7B",
"I  c #587575",
"U  c #5D7877",
"Y  c #517E7F",
"T  c #7F766C",
"R  c #537D81",
"E  c #557C82",
"W  c #528081",
"Q  c #568387",
"!  c #568587",
"~  c #578588",
"^  c #598489",
"/  c #598589",
"(  c #588689",
")  c #59858A",
"_  c #5A868B",
"`  c #588A8B",
"'  c #5A8A8D",
"]  c #5B8C8F",
"[  c #5E9093",
"{  c #5E9194",
"}  c #669EA1",
"|  c #67A0A2",
" . c #68A2A4",
".. c #8A8A85",
"X. c #8E8D89",
"o. c #9B9081",
"O. c #9E9285",
"+. c #A0A19A",
"@. c #A2A19A",
"#. c #BAAD9D",
"$. c #9AAEA7",
"%. c #A2A2A2",
"&. c #ABABA5",
"*. c #AEAEA8",
"=. c #A5B6AD",
"-. c #C0B29F",
";. c #CCBEAA",
":. c #C6C7BE",
">. c #C8C7BE",
",. c #D9CAB4",
"<. c #DACBB5",
"1. c #DACBB6",
"2. c #D8CDB9",
"3. c #DACDB8",
"4. c #DBCEB9",
"5. c #DDD0BD",
"6. c #DED1BD",
"7. c #E2D2BB",
"8. c #CACAC2",
"9. c #CDCCC4",
"0. c #E1D6C3",
"q. c #E4D8C3",
"w. c #E9EADF",
"e. c #EBEBDF",
/* pixels */
"                                                                        ",
"                    7 7 7 7 7                                           ",
"                    7 7 7 7 7                                           ",
"                    7 7 7 7 7 7 7 7 7                                   ",
"                      7 7 7 7 7 7 7 7                                   ",
"                        7 7 7 7 7 7 7 7                                 ",
"                            7 7 7 7 7 7                                 ",
"                            7 7 7 7 7 7                                 ",
"                            7 7 7 7 7 7 7 7                             ",
"                            7 7 7 7 7 7 7 7                             ",
"                              7 7 7 7 7 7 7                             ",
"                              7 7 7 7 7 7 7 7                           ",
"                              7 7 7 7 7 7 7 7 7                         ",
"                        F v 7 7 5 0 7 7 7 7 7 y F                       ",
"                        f d i i i 0 7 7 7 7 Z n l p                     ",
"                  . . . . e F F D 0 7 7 7 7 } ] o . . . .               ",
"            . . . . . . . ; t t t ) ) ) _ _ D l . . . . . . > 7         ",
"          . . . . . . . . . . . . |  . . . .; X . . . . . . > 7         ",
"        . . . . . . . . . . . . . 6 6 6 6 6 O $ 7 4 3 5 4 4 7 7 7 7     ",
"      * @ O . . . . . . @ @ @ @ @ @ @ @ @ @ @ = 7 7 7 7 7 7 7 7 7 7     ",
"    7 7 7 $ . . . . . . 7 7 7 7 7 7 7 7 5 7 7 7 7 7 7 7 7 7 7 7 7 7 7   ",
"    7 7 7 1 = = = = = = 7 7 7 7 7 7 7 7 5 5 7 7 7 7 7 7 7 7 7 7 7 7 7   ",
"    7 7 7 7 7 7 7 7 7 7 7 7 7 7 7 7 7 7 7 7 7 7 7 7 7 7 7 7 7 7 7 7 7   ",
"    7 7 7 7 7 7 7 7 7 7 7 7 7 7 7 7 7 7 7 7 M V V V V                   ",
"    7 7 7 7 7 7 7 7 q r r r r r r k h 3 q j U I M G Y                   ",
"          7 7 7 7 7 v F F F F F F +.... T o.@.X.5 ^  .                  ",
"            7 7 7 7 R ` ` ` ` ` ` :.&.* O.;.>.*.5 ^  .                  ",
"                     . . . . . . .w.8.7 #.7.e.9.7 )  .                  ",
"                     . . . . . . .0.5.;.,.7.q.5.;.$. .                  ",
"                     . . . . . . .2.3.,.,.,.,.,.4.=. .                  ",
"                     . . . . . . . .' . X X . v  .                      ",
"                    E ) ) ) ) ) ) ) L & O X . u ^                       ",
"                  7 7 7 7 7 7 7 7 7 7 7 $ . . . .                       ",
"                  7 7 7 7 7 7 7 7 7 7 7 * . . . . . .                   ",
"                  7 7 7 7 7 7 7 7 7 5 7 $ X . . . . .                   ",
"              7 7 7 7 7 7 7 7 7 7 7 5 0 $ . . . . . .                   ",
"              7 7 7 7 7 7 7 7 7 7 7 7 7 > $ . . . . .                   ",
"              7 7 7 7 7 7 7 7 7 7 7 7 7 7 7 X . . . .                   ",
"              7 7 7 7 7 7 7 7 7 7 7 7 7 7 7 X . . . .                   ",
"              7 7 7 7 7 7 7 7 7 7 7 7 7 7 7 X . . . .                   ",
"          7 7 7 7 7 7 7 7 7 7 7 7 7 7 7 7 7 . . . . .                   ",
"          7 7 7 7 7 7 7 7 7 7 7 7 7 7 7 7 7 O . . . .                   ",
"          7 7 7 7 7 7 7 7 7 7 7 7 7 7 7 7 7 . . . . .                   ",
"          7 7 7 7 7 7 7 7 7 7 7 7 7 7 7 7 7 O . . . .                   ",
"          7 7 7 7 7 7 7 7 7 7 7 7 7 7 7 7 5 . . . . .                   ",
"          7 7 7 7 7 7 7 7 7 7 7 7 7 7 7 * @ . . . . .                   ",
"          7 7 7 7 7 7 7 7 7 7 7 7 7 5 3 $ . . . . . .                   ",
"          7 7 7 7 7 7 7 7 7 7 7 7 7 1 . . . . . . . .                   ",
"            7 7 7 7 7 7 7 7 7 7 7 > * . z J a w o . .                   ",
"              7 7 7 7 7 7 7 7 7 7 . . . Q  .H v . . .                   ",
"              7 7 7 7 7 5 3 @ @ @ . d [ ~ W F C b b b                   ",
"              7 7 7 7 7 3 > . - 6 6 V  .! D F F F F F                   ",
"                    7 7 . . . ~  . . . .! F F F F F F                   ",
"                      0 Z D D {  . . . .W F F F F F F                   ",
"                         . . . . . . .  F F F F F                       ",
"                        S S S S S       e e e e e                       ",
"                        7 7 7 7 7       . . . . .                       ",
"                        7 7 7           . . . .                         ",
"                        7 7 7             . .                           ",
"                                                                        ",
"                                                                        ",
"                                                                        ",
"                            %.%.%.%.%.%.%.%.                            ",
"                            %.%.%.%.%.%.%.%.                            ",
"                        %.%.%.%.%.%.%.%.%.%.%.%.                        ",
"                        %.%.%.%.%.%.%.%.%.%.%.%.                        ",
"                        %.%.%.%.%.%.%.%.%.%.%.%.                        ",
"                            %.%.%.%.%.%.%.%.                            ",
"                            %.%.%.%.%.%.%.%.                            ",
"                                                                        "
};
