/* XPM */
static char *_b1ae5f6de6c4cf4cb5c97f80028789eBrx901Ru9qgy0gVj[] = {
/* columns rows colors chars-per-pixel */
"35 70 121 2 ",
"   c None",
".  c #282332",
"X  c #292433",
"o  c #292434",
"O  c #2A2535",
"+  c #2B2636",
"@  c #2D2738",
"#  c #2E293A",
"$  c #2F293B",
"%  c #302A3C",
"&  c #322C3F",
"*  c #2C303B",
"=  c #2C313C",
"-  c #2D313C",
";  c #2C323C",
":  c #2D323D",
">  c #332D40",
",  c #342E41",
"<  c #352F43",
"1  c #2F3841",
"2  c #363044",
"3  c #373145",
"4  c #383246",
"5  c #383247",
"6  c #303942",
"7  c #393348",
"8  c #3A364A",
"9  c #3A374B",
"0  c #3A3B4C",
"q  c #3B3C4D",
"w  c #3B3D4E",
"e  c #3B404F",
"r  c #3B4050",
"t  c #3C4251",
"y  c #3D4653",
"u  c #3F4756",
"i  c #374A51",
"p  c #384E53",
"a  c #3F4E59",
"s  c #3E575D",
"d  c #404A58",
"f  c #4C565E",
"g  c #5C5458",
"h  c #58555C",
"j  c #406063",
"k  c #406163",
"l  c #416164",
"z  c #436065",
"x  c #436165",
"c  c #446568",
"v  c #49626B",
"b  c #44686A",
"n  c #45696B",
"m  c #46696C",
"M  c #466C6D",
"N  c #476D6F",
"B  c #487071",
"V  c #4B7074",
"C  c #4E7A7B",
"Z  c #507178",
"A  c #507279",
"S  c #52777D",
"D  c #53787E",
"F  c #517E7F",
"G  c #686060",
"H  c #6C6A6D",
"J  c #667E7C",
"K  c #6B7F7D",
"L  c #7D7D79",
"P  c #857B70",
"I  c #70827F",
"U  c #538283",
"Y  c #558184",
"T  c #568285",
"R  c #558485",
"E  c #588287",
"W  c #588388",
"Q  c #578889",
"!  c #58888A",
"~  c #5C8C8F",
"^  c #5E8E92",
"/  c #5C9092",
"(  c #5D9092",
")  c #609396",
"_  c #629699",
"`  c #62979A",
"'  c #62989A",
"]  c #659C9E",
"[  c #659C9F",
"{  c #67A1A3",
"}  c #68A2A4",
"|  c #9B9081",
" . c #979691",
".. c #ACA091",
"X. c #A2A199",
"o. c #A2A29B",
"O. c #A3A29D",
"+. c #83A2A0",
"@. c #8BA8A4",
"#. c #91B0AB",
"$. c #94B6B4",
"%. c #A2A2A2",
"&. c #B1B7AB",
"*. c #B8BCAE",
"=. c #B7B7B1",
"-. c #C2B4A3",
";. c #C9BBA6",
":. c #D2C3AF",
">. c #C2C2BA",
",. c #D9CAB4",
"<. c #DDCEB7",
"1. c #DCCEB9",
"2. c #E2D2BB",
"3. c #E1D3BF",
"4. c #D1D0C6",
"5. c #D2D2C8",
"6. c #DADAD1",
"7. c #E4D6C1",
"8. c #E4D6C2",
"9. c #EBEADF",
"0. c #ECECE1",
/* pixels */
"                                                                      ",
"                        7 7 7                                         ",
"                      7 7 7 7                                         ",
"                      7 7 7 7 7 7                                     ",
"                      7 7 7 7 7 7                                     ",
"                      7 7 7 7 7 7 7 7                                 ",
"                          7 7 7 7 7 7 7                               ",
"                          7 7 7 7 7 7 7                               ",
"                          7 7 7 7 7 7 7                               ",
"                          7 7 7 7 7 7 7                               ",
"                          7 7 7 7 7 7 7 7 7                           ",
"                          7 7 7 7 7 7 7 7 7                           ",
"                          7 7 7 7 7 7 7 7 7 7 7                       ",
"                        B r 7 7 7 7 7 7 7 7 7 w B                     ",
"                      B B y 7 7 7 7 7 7 7 7 7 t B B                   ",
"                . . . = 1 l m m l 7 7 7 7 7 ) ~ 1 = . . .             ",
"                . . . . . j M M c u u u u u ' / . . . . .             ",
"        . . . . . . . . . . . . s } } } } } 6 . . . . . . . O 7 7     ",
"        . . . . . . . . . . . . i Q ! ! ! ! = O % % % % # % % 7 7     ",
"      . . . . . . . . . . . . . . . . . . . . + 7 7 4 7 7 7 7 7 7 7   ",
"  7 3 > @ . . . . . . # > > > > > > > > > > > > 7 7 7 7 7 7 7 7 7 7   ",
"  7 4 7 % . . . . . . > 7 7 7 7 7 7 7 7 7 7 7 7 7 7 7 7 7 7 7 7 7 7   ",
"  7 7 7 4 3 3 3 3 3 3 4 7 7 7 7 7 7 7 7 7 7 7 7 4 7 7 7 7 7 7         ",
"  7 7 7 7 7 7 7 7 7 7 7 7 7 7 7 7 7 7 7 7 7 0 w w w w 7 7 7 7         ",
"        7 7 7 7 7 7 7 7 7 7 7 7 7 7 7 7 7 7 N B B B B                 ",
"          7 7 7 7 r a a a a a a f H h > g G I K x V R                 ",
"                    B B B B B B J O.L X P | X. .7 Z }                 ",
"                    / / / / / / +.5.O.> ..;.4.>.7 Z }                 ",
"                    } } } } } } $.0.=.7 -.2.9.6.7 Z }                 ",
"                    } } } } } } #.7.1.:.<.2.7.3.:.&.}                 ",
"                    ] ] ] ] ] ] @.,.,.,.,.,.,.,.,.*.}                 ",
"                    7 7 7 7 7 7 7 7 7 7 # . . . . .                   ",
"                  7 7 7 7 7 7 7 7 7 7 7 # . . . . .                   ",
"                7 7 7 7 7 7 7 7 7 7 7 7 # . . . . . .                 ",
"                7 7 7 7 7 7 7 7 7 7 7 7 < > . . . . .                 ",
"                7 7 7 7 7 7 7 7 7 7 7 7 7 7 o . . . .                 ",
"            7 7 7 7 7 7 7 7 7 7 7 7 7 7 7 7 O . . . .                 ",
"            7 7 7 7 7 7 7 7 7 7 7 7 7 7 7 7 o . . . .                 ",
"            7 7 7 7 7 7 7 7 7 7 7 7 7 7 7 7 O . . . .                 ",
"            7 7 7 7 7 7 7 7 7 7 7 7 7 7 7 7 . . . . .                 ",
"        7 7 7 7 7 7 7 7 7 7 7 7 7 7 7 7 7 7 O . . . .                 ",
"        7 7 7 7 7 7 7 7 7 7 7 7 7 7 7 7 7 7 o . . . .                 ",
"        7 7 7 7 7 7 7 7 7 7 7 7 7 7 7 7 7 7 o . . . .                 ",
"        7 7 7 7 7 7 7 7 7 7 7 7 7 7 7 7 7 7 o . . . .                 ",
"        7 7 7 7 7 7 7 7 7 7 7 7 7 7 7 7 3 4 O . . . .                 ",
"        7 7 7 7 7 7 7 7 7 7 7 7 7 7 7 7 # . . . . . .                 ",
"          7 7 7 7 7 7 7 7 7 7 7 7 7 7 7 # . . . . . .                 ",
"            7 7 7 7 7 7 7 7 7 7 7 7 7 7 # . . . . . .                 ",
"            7 7 7 7 7 7 7 7 7 7 7 7 v W U E = X . . .                 ",
"            7 7 7 7 7 7 7 7 7 7 7 7 S } } } 1 X . . .                 ",
"                ` W 7 7 7 7 7 ' ` ` [ } ! C n l . . .                 ",
"                } ^ u u u u d } } } } } U B B c * * *                 ",
"                } } } } } } } } } } } } U B B B B B B                 ",
"                } } } } } } } } } } } } F B B B B B B                 ",
"                      } } } } } } } }   B B B B B B                   ",
"                      A A Z Z Z D       p p p p p p                   ",
"                      7 7 7 7 7 7       . . . . . .                   ",
"                      7 7 7 7           . . . .                       ",
"                        7 7 7           . . . .                       ",
"                                                                      ",
"                                                                      ",
"                                                                      ",
"                        %.%.%.%.%.%.%.%.%.%.%.                        ",
"                      %.%.%.%.%.%.%.%.%.%.%.%.%.                      ",
"                      %.%.%.%.%.%.%.%.%.%.%.%.%.                      ",
"                      %.%.%.%.%.%.%.%.%.%.%.%.%.                      ",
"                      %.%.%.%.%.%.%.%.%.%.%.%.%.                      ",
"                        %.%.%.%.%.%.%.%.%.%.%.%.                      ",
"                          %.%.%.%.%.%.%.%.%.                          ",
"                                                                      "
};
