/* XPM */
static char *_e49e000c62842059df3a08aedf7ad92LQLyYhlnu9vgt10E[] = {
/* columns rows colors chars-per-pixel */
"34 70 119 2 ",
"   c None",
".  c #282332",
"X  c #292433",
"o  c #2B2636",
"O  c #2C2737",
"+  c #2D2738",
"@  c #2D2839",
"#  c #2E2839",
"$  c #2E293A",
"%  c #2F293B",
"&  c #2D2D3A",
"*  c #302B3D",
"=  c #312C3E",
"-  c #322C3E",
";  c #322C3F",
":  c #332D40",
">  c #342F42",
",  c #352F43",
"<  c #363044",
"1  c #373146",
"2  c #383246",
"3  c #383347",
"4  c #303C44",
"5  c #393348",
"6  c #3B3A4C",
"7  c #324249",
"8  c #34434B",
"9  c #35464D",
"0  c #35484E",
"q  c #36484F",
"w  c #3C4150",
"e  c #3C4552",
"r  c #3C4553",
"t  c #3E4453",
"y  c #3E4D57",
"u  c #3B5358",
"i  c #3F515A",
"p  c #45424B",
"a  c #4A4449",
"s  c #4C4A4F",
"d  c #534D4D",
"f  c #504D58",
"g  c #43515E",
"h  c #43525F",
"j  c #41585F",
"k  c #4D585F",
"l  c #425B61",
"z  c #415E62",
"x  c #475B66",
"c  c #426065",
"v  c #436166",
"b  c #446367",
"n  c #436567",
"m  c #476269",
"M  c #436668",
"N  c #436769",
"B  c #46666B",
"V  c #446869",
"C  c #44686A",
"Z  c #466B6D",
"A  c #476F70",
"S  c #496D71",
"D  c #4E6E75",
"F  c #4F6F76",
"G  c #4F6F77",
"H  c #487071",
"J  c #4D7377",
"K  c #4A7475",
"L  c #53777E",
"P  c #527B7F",
"I  c #66636A",
"U  c #6C6A6F",
"Y  c #766D6C",
"T  c #727B7B",
"R  c #82796F",
"E  c #877D74",
"W  c #86827A",
"Q  c #537E82",
"!  c #577F85",
"~  c #588689",
"^  c #5C8A8E",
"/  c #5F9396",
"(  c #609497",
")  c #609697",
"_  c #619598",
"`  c #629598",
"'  c #629699",
"]  c #63979A",
"[  c #659C9E",
"{  c #659C9F",
"}  c #659D9F",
"|  c #679FA2",
" . c #67A0A2",
".. c #68A2A4",
"X. c #8C8B85",
"o. c #8D8D89",
"O. c #86928E",
"+. c #91938D",
"@. c #8F9690",
"#. c #A19586",
"$. c #A69B91",
"%. c #A89E93",
"&. c #AB9F92",
"*. c #A5A095",
"=. c #84AAA8",
"-. c #95ACA5",
";. c #94B0AA",
":. c #97B1AB",
">. c #A2A2A2",
",. c #A8A8A1",
"<. c #B6BDB1",
"1. c #BAC7BF",
"2. c #CFC9B6",
"3. c #E2D2BB",
"4. c #BDCEC7",
"5. c #E5DBC9",
"6. c #E8E1D1",
"7. c #E8E2D3",
"8. c #ECECE1",
/* pixels */
"                                                                    ",
"                  5 5 5                                             ",
"                  5 5 5                                             ",
"                  5 5 5 5 5 5                                       ",
"                  5 5 5 5 5 5 5                                     ",
"                      5 5 5 5 5 5                                   ",
"                        5 5 5 5 5 5 5                               ",
"                        5 5 5 5 5 5 5                               ",
"                        5 5 5 5 5 5 5                               ",
"                        5 5 5 5 5 5 5                               ",
"                            5 5 5 5 5 5                             ",
"                            5 5 5 5 5 5                             ",
"                            5 5 5 5 5 5                             ",
"                            5 5 5 5 5 5 5 5                         ",
"                            5 5 5 5 5 5 5 5                         ",
"                      H w 5 5 5 5 5 5 5 5 5 Z n . . .               ",
"              . . . 4 0 z c c y 5 5 5 5 D ^ u 7 . . . . . .         ",
"              . . . . . N A A j 6 6 6 6 ~ | 7 . . . . . . .         ",
"        . . . . . . . . . . . P ........J . . . . . . X + 5 5 5     ",
"        . . . . . . . . . . . B ~ ~ ~ ~ z . $ # $ * $ * = 5 5 5     ",
"    . . . . . . . . . . . . . . . . . . X . 1 5 5 5 5 5 5 5 5 5 5 5 ",
"  5 , : . . . . . X $ < < < : , : < : , , , 3 5 5 5 5 5 5 5 5 5 5 5 ",
"  5 5 1 X X X X X X = 5 1 3 5 5 5 5 5 5 5 5 5 5 5 5 5 5 5 5 5 5 5 5 ",
"  5 5 5 5 5 5 5 5 5 5 5 5 5 5 5 5 5 5 5 5 5 5 5 5 5 5 5 5 5 5 5     ",
"  5 5 5 5 5 5 5 5 5 5 5 5 5 5 5 5 5 5 5 e j g g u e 3 3 5 5 5 5     ",
"  5 5 5 5 5 5 5 5 5 5 5 5 5 5 5 5 5 5 5 j K A A A                   ",
"    5 5 5 5 5     b b b b b b T o.p a E o.@.k m '                   ",
"    5 5 5 5 5     K K K K K K O.,.s d #.*.*.f x ..                  ",
"                  ............4.8.U Y 3.6.8.I x ..                  ",
"                  ............1.7.%.*.3.5.7.$.+...                  ",
"                  ............<.3.3.3.3.3.3.3.2...                  ",
"                  ............=.:.W E Y E R -.:.                    ",
"                  | [ | [ | |  .[ 9 . . . . ( [                     ",
"                  3 3 5 3 3 3 5 3 o . . . . . .                     ",
"                  5 5 5 3 5 5 5 5 = $ . . . . .                     ",
"                  5 5 5 5 5 5 5 5 5 1 . . . . .                     ",
"              5 5 5 5 5 5 5 5 5 5 5 1 . . . . . .                   ",
"              5 5 5 5 5 5 5 5 5 5 5 , . . . . . .                   ",
"              5 5 5 5 5 5 5 5 5 5 3 < . . . . . .                   ",
"              5 5 5 5 5 5 5 5 5 5 3 1 - O . . . .                   ",
"            5 5 5 5 5 5 5 5 5 5 5 5 5 5 - . . . .                   ",
"            5 5 5 5 5 5 5 5 5 5 5 5 5 5 % . . . .                   ",
"            5 5 5 5 5 5 5 5 5 5 5 5 5 5 % . . . .                   ",
"            5 5 5 5 5 5 5 5 5 5 5 5 5 5 = . . . .                   ",
"          5 5 5 5 5 5 5 5 5 5 5 5 5 5 5 % . . . .                   ",
"        5 5 5 5 5 5 5 5 5 5 5 5 5 5 5 5 = X . . .                   ",
"        5 5 5 5 5 5 5 5 5 5 5 5 5 5 5 5 % . . . .                   ",
"        5 5 5 5 5 5 5 5 5 5 5 5 5 5 5 5 % . . . .                   ",
"        5 5 5 5 5 5 5 5 5 5 5 5 5 5 5 5 - . . . .                   ",
"        5 5 5 D L L L L t 5 5 5 5 5 3 - O . . . .                   ",
"        5 5 5 _ ........g 3 5 5 5 5 1 . . . . . .                   ",
"              | ........` ( ( L 5 + o . . . . . .                   ",
"              ................! g & . . . . . . .                   ",
"              ....................0 . . . . . . .                   ",
"              ....................Q S . . . . . .                   ",
"              ....................../ . . . . . .                   ",
"                    ..............    V V V V B                     ",
"                      ` ` ` _ | ..    V V V V V                     ",
"                      5 5 5 5         . X . . .                     ",
"                      5 5 5           . . . .                       ",
"                      5 5 5           . . .                         ",
"                                                                    ",
"                                                                    ",
"                        >.>.>.>.>.>.>.>.                            ",
"                  >.>.>.>.>.>.>.>.>.>.>.>.>.>.                      ",
"                  >.>.>.>.>.>.>.>.>.>.>.>.>.>.>.                    ",
"                  >.>.>.>.>.>.>.>.>.>.>.>.>.>.>.                    ",
"                  >.>.>.>.>.>.>.>.>.>.>.>.>.>.>.                    ",
"                        >.>.>.>.>.>.>.>.                            ",
"                                                                    "
};
